G04 #@! TF.FileFunction,Legend,Top*
%FSLAX46Y46*%
G04 Gerber Fmt 4.6, Leading zero omitted, Abs format (unit mm)*
G04 Created by KiCad (PCBNEW 4.0.1-stable) date 15/06/2016 21:54:59*
%MOMM*%
G01*
G04 APERTURE LIST*
%ADD10C,0.100000*%
%ADD11C,0.150000*%
%ADD12C,0.175000*%
G04 APERTURE END LIST*
D10*
D11*
X133494429Y-116093715D02*
X133494429Y-116436572D01*
X133494429Y-116265144D02*
X132894429Y-116265144D01*
X132980143Y-116322287D01*
X133037286Y-116379429D01*
X133065857Y-116436572D01*
X133494429Y-115836572D02*
X132894429Y-115836572D01*
X133494429Y-115493715D01*
X132894429Y-115493715D01*
X133094429Y-114950858D02*
X133494429Y-114950858D01*
X132865857Y-115093715D02*
X133294429Y-115236572D01*
X133294429Y-114865144D01*
X132894429Y-114522286D02*
X132894429Y-114465143D01*
X132923000Y-114408000D01*
X132951571Y-114379429D01*
X133008714Y-114350858D01*
X133123000Y-114322286D01*
X133265857Y-114322286D01*
X133380143Y-114350858D01*
X133437286Y-114379429D01*
X133465857Y-114408000D01*
X133494429Y-114465143D01*
X133494429Y-114522286D01*
X133465857Y-114579429D01*
X133437286Y-114608000D01*
X133380143Y-114636572D01*
X133265857Y-114665143D01*
X133123000Y-114665143D01*
X133008714Y-114636572D01*
X132951571Y-114608000D01*
X132923000Y-114579429D01*
X132894429Y-114522286D01*
X132894429Y-113950857D02*
X132894429Y-113893714D01*
X132923000Y-113836571D01*
X132951571Y-113808000D01*
X133008714Y-113779429D01*
X133123000Y-113750857D01*
X133265857Y-113750857D01*
X133380143Y-113779429D01*
X133437286Y-113808000D01*
X133465857Y-113836571D01*
X133494429Y-113893714D01*
X133494429Y-113950857D01*
X133465857Y-114008000D01*
X133437286Y-114036571D01*
X133380143Y-114065143D01*
X133265857Y-114093714D01*
X133123000Y-114093714D01*
X133008714Y-114065143D01*
X132951571Y-114036571D01*
X132923000Y-114008000D01*
X132894429Y-113950857D01*
X133094429Y-113236571D02*
X133494429Y-113236571D01*
X132865857Y-113379428D02*
X133294429Y-113522285D01*
X133294429Y-113150857D01*
X141495429Y-124293143D02*
X141495429Y-124178858D01*
X141466857Y-124121715D01*
X141438286Y-124093143D01*
X141352571Y-124036001D01*
X141238286Y-124007429D01*
X141009714Y-124007429D01*
X140952571Y-124036001D01*
X140924000Y-124064572D01*
X140895429Y-124121715D01*
X140895429Y-124236001D01*
X140924000Y-124293143D01*
X140952571Y-124321715D01*
X141009714Y-124350286D01*
X141152571Y-124350286D01*
X141209714Y-124321715D01*
X141238286Y-124293143D01*
X141266857Y-124236001D01*
X141266857Y-124121715D01*
X141238286Y-124064572D01*
X141209714Y-124036001D01*
X141152571Y-124007429D01*
X141438286Y-123750286D02*
X141466857Y-123721714D01*
X141495429Y-123750286D01*
X141466857Y-123778857D01*
X141438286Y-123750286D01*
X141495429Y-123750286D01*
X141495429Y-123436000D02*
X141495429Y-123321715D01*
X141466857Y-123264572D01*
X141438286Y-123236000D01*
X141352571Y-123178858D01*
X141238286Y-123150286D01*
X141009714Y-123150286D01*
X140952571Y-123178858D01*
X140924000Y-123207429D01*
X140895429Y-123264572D01*
X140895429Y-123378858D01*
X140924000Y-123436000D01*
X140952571Y-123464572D01*
X141009714Y-123493143D01*
X141152571Y-123493143D01*
X141209714Y-123464572D01*
X141238286Y-123436000D01*
X141266857Y-123378858D01*
X141266857Y-123264572D01*
X141238286Y-123207429D01*
X141209714Y-123178858D01*
X141152571Y-123150286D01*
X140895429Y-122950286D02*
X140895429Y-122550286D01*
X141495429Y-122807429D01*
X140895429Y-122378857D02*
X140895429Y-122007428D01*
X141124000Y-122207428D01*
X141124000Y-122121714D01*
X141152571Y-122064571D01*
X141181143Y-122036000D01*
X141238286Y-122007428D01*
X141381143Y-122007428D01*
X141438286Y-122036000D01*
X141466857Y-122064571D01*
X141495429Y-122121714D01*
X141495429Y-122293142D01*
X141466857Y-122350285D01*
X141438286Y-122378857D01*
X141495429Y-121750285D02*
X140895429Y-121750285D01*
X141266857Y-121693142D02*
X141495429Y-121521713D01*
X141095429Y-121521713D02*
X141324000Y-121750285D01*
X138174429Y-122631143D02*
X138574429Y-122631143D01*
X137945857Y-122774000D02*
X138374429Y-122916857D01*
X138374429Y-122545429D01*
X137974429Y-122059714D02*
X137974429Y-122174000D01*
X138003000Y-122231143D01*
X138031571Y-122259714D01*
X138117286Y-122316857D01*
X138231571Y-122345428D01*
X138460143Y-122345428D01*
X138517286Y-122316857D01*
X138545857Y-122288285D01*
X138574429Y-122231143D01*
X138574429Y-122116857D01*
X138545857Y-122059714D01*
X138517286Y-122031143D01*
X138460143Y-122002571D01*
X138317286Y-122002571D01*
X138260143Y-122031143D01*
X138231571Y-122059714D01*
X138203000Y-122116857D01*
X138203000Y-122231143D01*
X138231571Y-122288285D01*
X138260143Y-122316857D01*
X138317286Y-122345428D01*
X138574429Y-121716856D02*
X138574429Y-121602571D01*
X138545857Y-121545428D01*
X138517286Y-121516856D01*
X138431571Y-121459714D01*
X138317286Y-121431142D01*
X138088714Y-121431142D01*
X138031571Y-121459714D01*
X138003000Y-121488285D01*
X137974429Y-121545428D01*
X137974429Y-121659714D01*
X138003000Y-121716856D01*
X138031571Y-121745428D01*
X138088714Y-121773999D01*
X138231571Y-121773999D01*
X138288714Y-121745428D01*
X138317286Y-121716856D01*
X138345857Y-121659714D01*
X138345857Y-121545428D01*
X138317286Y-121488285D01*
X138288714Y-121459714D01*
X138231571Y-121431142D01*
D12*
X103440667Y-106738666D02*
X102740667Y-106738666D01*
X103440667Y-106338666D01*
X102740667Y-106338666D01*
X102740667Y-105872000D02*
X102740667Y-105738667D01*
X102774000Y-105672000D01*
X102840667Y-105605333D01*
X102974000Y-105572000D01*
X103207333Y-105572000D01*
X103340667Y-105605333D01*
X103407333Y-105672000D01*
X103440667Y-105738667D01*
X103440667Y-105872000D01*
X103407333Y-105938667D01*
X103340667Y-106005333D01*
X103207333Y-106038667D01*
X102974000Y-106038667D01*
X102840667Y-106005333D01*
X102774000Y-105938667D01*
X102740667Y-105872000D01*
X103485905Y-117516999D02*
X102685905Y-117516999D01*
X103485905Y-117116999D01*
X102685905Y-117116999D01*
X103409714Y-116383666D02*
X103447810Y-116417000D01*
X103485905Y-116517000D01*
X103485905Y-116583666D01*
X103447810Y-116683666D01*
X103371619Y-116750333D01*
X103295429Y-116783666D01*
X103143048Y-116817000D01*
X103028762Y-116817000D01*
X102876381Y-116783666D01*
X102800190Y-116750333D01*
X102724000Y-116683666D01*
X102685905Y-116583666D01*
X102685905Y-116517000D01*
X102724000Y-116417000D01*
X102762095Y-116383666D01*
X103409714Y-112036999D02*
X103447810Y-112070333D01*
X103485905Y-112170333D01*
X103485905Y-112236999D01*
X103447810Y-112336999D01*
X103371619Y-112403666D01*
X103295429Y-112436999D01*
X103143048Y-112470333D01*
X103028762Y-112470333D01*
X102876381Y-112436999D01*
X102800190Y-112403666D01*
X102724000Y-112336999D01*
X102685905Y-112236999D01*
X102685905Y-112170333D01*
X102724000Y-112070333D01*
X102762095Y-112036999D01*
X102685905Y-111603666D02*
X102685905Y-111470333D01*
X102724000Y-111403666D01*
X102800190Y-111336999D01*
X102952571Y-111303666D01*
X103219238Y-111303666D01*
X103371619Y-111336999D01*
X103447810Y-111403666D01*
X103485905Y-111470333D01*
X103485905Y-111603666D01*
X103447810Y-111670333D01*
X103371619Y-111736999D01*
X103219238Y-111770333D01*
X102952571Y-111770333D01*
X102800190Y-111736999D01*
X102724000Y-111670333D01*
X102685905Y-111603666D01*
X151889667Y-119513333D02*
X151889667Y-119846666D01*
X152223000Y-119880000D01*
X152189667Y-119846666D01*
X152156333Y-119780000D01*
X152156333Y-119613333D01*
X152189667Y-119546666D01*
X152223000Y-119513333D01*
X152289667Y-119480000D01*
X152456333Y-119480000D01*
X152523000Y-119513333D01*
X152556333Y-119546666D01*
X152589667Y-119613333D01*
X152589667Y-119780000D01*
X152556333Y-119846666D01*
X152523000Y-119880000D01*
X151889667Y-119279999D02*
X152589667Y-119046666D01*
X151889667Y-118813333D01*
X152556333Y-109870667D02*
X152589667Y-109770667D01*
X152589667Y-109604000D01*
X152556333Y-109537333D01*
X152523000Y-109504000D01*
X152456333Y-109470667D01*
X152389667Y-109470667D01*
X152323000Y-109504000D01*
X152289667Y-109537333D01*
X152256333Y-109604000D01*
X152223000Y-109737333D01*
X152189667Y-109804000D01*
X152156333Y-109837333D01*
X152089667Y-109870667D01*
X152023000Y-109870667D01*
X151956333Y-109837333D01*
X151923000Y-109804000D01*
X151889667Y-109737333D01*
X151889667Y-109570667D01*
X151923000Y-109470667D01*
X152589667Y-109170666D02*
X151889667Y-109170666D01*
X151923000Y-108470667D02*
X151889667Y-108537333D01*
X151889667Y-108637333D01*
X151923000Y-108737333D01*
X151989667Y-108804000D01*
X152056333Y-108837333D01*
X152189667Y-108870667D01*
X152289667Y-108870667D01*
X152423000Y-108837333D01*
X152489667Y-108804000D01*
X152556333Y-108737333D01*
X152589667Y-108637333D01*
X152589667Y-108570667D01*
X152556333Y-108470667D01*
X152523000Y-108437333D01*
X152289667Y-108437333D01*
X152289667Y-108570667D01*
X152589667Y-108137333D02*
X151889667Y-108137333D01*
X152589667Y-107737333D01*
X151889667Y-107737333D01*
X152389667Y-107437334D02*
X152389667Y-107104000D01*
X152589667Y-107504000D02*
X151889667Y-107270667D01*
X152589667Y-107037334D01*
X152589667Y-106470667D02*
X152589667Y-106804000D01*
X151889667Y-106804000D01*
X151923000Y-114833333D02*
X151889667Y-114899999D01*
X151889667Y-114999999D01*
X151923000Y-115099999D01*
X151989667Y-115166666D01*
X152056333Y-115199999D01*
X152189667Y-115233333D01*
X152289667Y-115233333D01*
X152423000Y-115199999D01*
X152489667Y-115166666D01*
X152556333Y-115099999D01*
X152589667Y-114999999D01*
X152589667Y-114933333D01*
X152556333Y-114833333D01*
X152523000Y-114799999D01*
X152289667Y-114799999D01*
X152289667Y-114933333D01*
X152589667Y-114499999D02*
X151889667Y-114499999D01*
X152589667Y-114099999D01*
X151889667Y-114099999D01*
X152589667Y-113766666D02*
X151889667Y-113766666D01*
X151889667Y-113600000D01*
X151923000Y-113500000D01*
X151989667Y-113433333D01*
X152056333Y-113400000D01*
X152189667Y-113366666D01*
X152289667Y-113366666D01*
X152423000Y-113400000D01*
X152489667Y-113433333D01*
X152556333Y-113500000D01*
X152589667Y-113600000D01*
X152589667Y-113766666D01*
X151923000Y-103657333D02*
X151889667Y-103723999D01*
X151889667Y-103823999D01*
X151923000Y-103923999D01*
X151989667Y-103990666D01*
X152056333Y-104023999D01*
X152189667Y-104057333D01*
X152289667Y-104057333D01*
X152423000Y-104023999D01*
X152489667Y-103990666D01*
X152556333Y-103923999D01*
X152589667Y-103823999D01*
X152589667Y-103757333D01*
X152556333Y-103657333D01*
X152523000Y-103623999D01*
X152289667Y-103623999D01*
X152289667Y-103757333D01*
X152589667Y-103323999D02*
X151889667Y-103323999D01*
X152589667Y-102923999D01*
X151889667Y-102923999D01*
X152589667Y-102590666D02*
X151889667Y-102590666D01*
X151889667Y-102424000D01*
X151923000Y-102324000D01*
X151989667Y-102257333D01*
X152056333Y-102224000D01*
X152189667Y-102190666D01*
X152289667Y-102190666D01*
X152423000Y-102224000D01*
X152489667Y-102257333D01*
X152556333Y-102324000D01*
X152589667Y-102424000D01*
X152589667Y-102590666D01*
D11*
X133350000Y-122555000D02*
G75*
G03X133350000Y-122555000I-2286000J0D01*
G01*
X133477000Y-101854000D02*
G75*
G03X133477000Y-101854000I-2286000J0D01*
G01*
X108966000Y-122428000D02*
G75*
G03X108966000Y-122428000I-2286000J0D01*
G01*
X108966000Y-101600000D02*
G75*
G03X108966000Y-101600000I-2286000J0D01*
G01*
X135130540Y-117348000D02*
X135130540Y-118364000D01*
X135130540Y-112522000D02*
X135130540Y-111252000D01*
X136400540Y-112776000D02*
X133860540Y-112776000D01*
X136400540Y-113030000D02*
X133860540Y-113030000D01*
X136400540Y-113284000D02*
X133860540Y-113284000D01*
X136400540Y-112522000D02*
X133860540Y-112522000D01*
X136400540Y-113538000D02*
X133860540Y-112268000D01*
X136400540Y-112268000D02*
X133860540Y-113538000D01*
X136400540Y-113538000D02*
X133860540Y-113538000D01*
X136400540Y-112903000D02*
X133860540Y-112903000D01*
X133860540Y-112268000D02*
X136400540Y-112268000D01*
X136400540Y-112268000D02*
X136400540Y-117348000D01*
X136400540Y-117348000D02*
X133860540Y-117348000D01*
X133860540Y-117348000D02*
X133860540Y-112268000D01*
X145288000Y-110744000D02*
X145288000Y-100584000D01*
X144018000Y-110744000D02*
X151638000Y-110744000D01*
X151638000Y-110744000D02*
X151638000Y-100584000D01*
X151638000Y-100584000D02*
X144018000Y-100584000D01*
X144018000Y-100584000D02*
X144018000Y-110744000D01*
X145288000Y-121920000D02*
X145288000Y-111760000D01*
X144018000Y-121920000D02*
X151638000Y-121920000D01*
X151638000Y-121920000D02*
X151638000Y-111760000D01*
X151638000Y-111760000D02*
X144018000Y-111760000D01*
X144018000Y-111760000D02*
X144018000Y-121920000D01*
X137176000Y-102448000D02*
G75*
G03X135976000Y-103648000I1000000J-2200000D01*
G01*
X139175999Y-102448000D02*
G75*
G02X140376000Y-103648000I-999999J-2200000D01*
G01*
X135988305Y-105644990D02*
G75*
G03X136476000Y-106348000I2187695J996990D01*
G01*
X140363695Y-105644990D02*
G75*
G02X139876000Y-106348000I-2187695J996990D01*
G01*
X136476000Y-106348000D02*
X139876000Y-106348000D01*
X139446000Y-112268000D02*
X139446000Y-117348000D01*
X139446000Y-117348000D02*
X136906000Y-117348000D01*
X136906000Y-117348000D02*
X136906000Y-112268000D01*
X136906000Y-112268000D02*
X139446000Y-112268000D01*
X138176000Y-112268000D02*
X138176000Y-110998000D01*
X138176000Y-117348000D02*
X138176000Y-118618000D01*
X142494000Y-112268000D02*
X142494000Y-117348000D01*
X142494000Y-117348000D02*
X139954000Y-117348000D01*
X139954000Y-117348000D02*
X139954000Y-112268000D01*
X139954000Y-112268000D02*
X142494000Y-112268000D01*
X141224000Y-112268000D02*
X141224000Y-110998000D01*
X141224000Y-117348000D02*
X141224000Y-118618000D01*
X126936000Y-105879000D02*
X124436000Y-105879000D01*
X124436000Y-105879000D02*
X124436000Y-117879000D01*
X124436000Y-117879000D02*
X126936000Y-117879000D01*
X112936000Y-104379000D02*
X131936000Y-104379000D01*
X131936000Y-104379000D02*
X131936000Y-119379000D01*
X131936000Y-119379000D02*
X112936000Y-119379000D01*
X112936000Y-119379000D02*
X112936000Y-104379000D01*
X104267000Y-104267000D02*
X111887000Y-104267000D01*
X104267000Y-119507000D02*
X111887000Y-119507000D01*
X105537000Y-104267000D02*
X105537000Y-119507000D01*
X111887000Y-104267000D02*
X111887000Y-119507000D01*
X104267000Y-104267000D02*
X104267000Y-119507000D01*
X135580381Y-116054095D02*
X134580381Y-116054095D01*
X134580381Y-115816000D01*
X134628000Y-115673142D01*
X134723238Y-115577904D01*
X134818476Y-115530285D01*
X135008952Y-115482666D01*
X135151810Y-115482666D01*
X135342286Y-115530285D01*
X135437524Y-115577904D01*
X135532762Y-115673142D01*
X135580381Y-115816000D01*
X135580381Y-116054095D01*
X135580381Y-114530285D02*
X135580381Y-115101714D01*
X135580381Y-114816000D02*
X134580381Y-114816000D01*
X134723238Y-114911238D01*
X134818476Y-115006476D01*
X134866095Y-115101714D01*
X143921429Y-100347429D02*
X143921429Y-99747429D01*
X144150001Y-99747429D01*
X144207143Y-99776000D01*
X144235715Y-99804571D01*
X144264286Y-99861714D01*
X144264286Y-99947429D01*
X144235715Y-100004571D01*
X144207143Y-100033143D01*
X144150001Y-100061714D01*
X143921429Y-100061714D01*
X144835715Y-100347429D02*
X144492858Y-100347429D01*
X144664286Y-100347429D02*
X144664286Y-99747429D01*
X144607143Y-99833143D01*
X144550001Y-99890286D01*
X144492858Y-99918857D01*
X145092858Y-100290286D02*
X145121430Y-100318857D01*
X145092858Y-100347429D01*
X145064287Y-100318857D01*
X145092858Y-100290286D01*
X145092858Y-100347429D01*
X145092858Y-99976000D02*
X145121430Y-100004571D01*
X145092858Y-100033143D01*
X145064287Y-100004571D01*
X145092858Y-99976000D01*
X145092858Y-100033143D01*
X145350001Y-100318857D02*
X145435715Y-100347429D01*
X145578572Y-100347429D01*
X145635715Y-100318857D01*
X145664286Y-100290286D01*
X145692858Y-100233143D01*
X145692858Y-100176000D01*
X145664286Y-100118857D01*
X145635715Y-100090286D01*
X145578572Y-100061714D01*
X145464286Y-100033143D01*
X145407144Y-100004571D01*
X145378572Y-99976000D01*
X145350001Y-99918857D01*
X145350001Y-99861714D01*
X145378572Y-99804571D01*
X145407144Y-99776000D01*
X145464286Y-99747429D01*
X145607144Y-99747429D01*
X145692858Y-99776000D01*
X145950001Y-100347429D02*
X145950001Y-99747429D01*
X146550001Y-99776000D02*
X146492858Y-99747429D01*
X146407144Y-99747429D01*
X146321429Y-99776000D01*
X146264287Y-99833143D01*
X146235715Y-99890286D01*
X146207144Y-100004571D01*
X146207144Y-100090286D01*
X146235715Y-100204571D01*
X146264287Y-100261714D01*
X146321429Y-100318857D01*
X146407144Y-100347429D01*
X146464287Y-100347429D01*
X146550001Y-100318857D01*
X146578572Y-100290286D01*
X146578572Y-100090286D01*
X146464287Y-100090286D01*
X146835715Y-100347429D02*
X146835715Y-99747429D01*
X147178572Y-100347429D01*
X147178572Y-99747429D01*
X147435715Y-100176000D02*
X147721429Y-100176000D01*
X147378572Y-100347429D02*
X147578572Y-99747429D01*
X147778572Y-100347429D01*
X148264286Y-100347429D02*
X147978572Y-100347429D01*
X147978572Y-99747429D01*
X144053286Y-122826429D02*
X144053286Y-122226429D01*
X144281858Y-122226429D01*
X144339000Y-122255000D01*
X144367572Y-122283571D01*
X144396143Y-122340714D01*
X144396143Y-122426429D01*
X144367572Y-122483571D01*
X144339000Y-122512143D01*
X144281858Y-122540714D01*
X144053286Y-122540714D01*
X144624715Y-122283571D02*
X144653286Y-122255000D01*
X144710429Y-122226429D01*
X144853286Y-122226429D01*
X144910429Y-122255000D01*
X144939000Y-122283571D01*
X144967572Y-122340714D01*
X144967572Y-122397857D01*
X144939000Y-122483571D01*
X144596143Y-122826429D01*
X144967572Y-122826429D01*
X145224715Y-122769286D02*
X145253287Y-122797857D01*
X145224715Y-122826429D01*
X145196144Y-122797857D01*
X145224715Y-122769286D01*
X145224715Y-122826429D01*
X145224715Y-122455000D02*
X145253287Y-122483571D01*
X145224715Y-122512143D01*
X145196144Y-122483571D01*
X145224715Y-122455000D01*
X145224715Y-122512143D01*
X145796143Y-122226429D02*
X145510429Y-122226429D01*
X145481858Y-122512143D01*
X145510429Y-122483571D01*
X145567572Y-122455000D01*
X145710429Y-122455000D01*
X145767572Y-122483571D01*
X145796143Y-122512143D01*
X145824715Y-122569286D01*
X145824715Y-122712143D01*
X145796143Y-122769286D01*
X145767572Y-122797857D01*
X145710429Y-122826429D01*
X145567572Y-122826429D01*
X145510429Y-122797857D01*
X145481858Y-122769286D01*
X145996144Y-122226429D02*
X146196144Y-122826429D01*
X146396144Y-122226429D01*
X147053287Y-122826429D02*
X147053287Y-122226429D01*
X147281859Y-122226429D01*
X147339001Y-122255000D01*
X147367573Y-122283571D01*
X147396144Y-122340714D01*
X147396144Y-122426429D01*
X147367573Y-122483571D01*
X147339001Y-122512143D01*
X147281859Y-122540714D01*
X147053287Y-122540714D01*
X147767573Y-122226429D02*
X147881859Y-122226429D01*
X147939001Y-122255000D01*
X147996144Y-122312143D01*
X148024716Y-122426429D01*
X148024716Y-122626429D01*
X147996144Y-122740714D01*
X147939001Y-122797857D01*
X147881859Y-122826429D01*
X147767573Y-122826429D01*
X147710430Y-122797857D01*
X147653287Y-122740714D01*
X147624716Y-122626429D01*
X147624716Y-122426429D01*
X147653287Y-122312143D01*
X147710430Y-122255000D01*
X147767573Y-122226429D01*
X148224715Y-122226429D02*
X148367572Y-122826429D01*
X148481858Y-122397857D01*
X148596144Y-122826429D01*
X148739001Y-122226429D01*
X148967572Y-122512143D02*
X149167572Y-122512143D01*
X149253286Y-122826429D02*
X148967572Y-122826429D01*
X148967572Y-122226429D01*
X149253286Y-122226429D01*
X149853286Y-122826429D02*
X149653286Y-122540714D01*
X149510429Y-122826429D02*
X149510429Y-122226429D01*
X149739001Y-122226429D01*
X149796143Y-122255000D01*
X149824715Y-122283571D01*
X149853286Y-122340714D01*
X149853286Y-122426429D01*
X149824715Y-122483571D01*
X149796143Y-122512143D01*
X149739001Y-122540714D01*
X149510429Y-122540714D01*
X135540762Y-102401619D02*
X135445524Y-102354000D01*
X135350286Y-102258762D01*
X135207429Y-102115905D01*
X135112190Y-102068286D01*
X135016952Y-102068286D01*
X135064571Y-102306381D02*
X134969333Y-102258762D01*
X134874095Y-102163524D01*
X134826476Y-101973048D01*
X134826476Y-101639714D01*
X134874095Y-101449238D01*
X134969333Y-101354000D01*
X135064571Y-101306381D01*
X135255048Y-101306381D01*
X135350286Y-101354000D01*
X135445524Y-101449238D01*
X135493143Y-101639714D01*
X135493143Y-101973048D01*
X135445524Y-102163524D01*
X135350286Y-102258762D01*
X135255048Y-102306381D01*
X135064571Y-102306381D01*
X136445524Y-102306381D02*
X135874095Y-102306381D01*
X136159809Y-102306381D02*
X136159809Y-101306381D01*
X136064571Y-101449238D01*
X135969333Y-101544476D01*
X135874095Y-101592095D01*
X136547428Y-100058571D02*
X136575999Y-100030000D01*
X136633142Y-100001429D01*
X136775999Y-100001429D01*
X136833142Y-100030000D01*
X136861713Y-100058571D01*
X136890285Y-100115714D01*
X136890285Y-100172857D01*
X136861713Y-100258571D01*
X136518856Y-100601429D01*
X136890285Y-100601429D01*
X137147428Y-100601429D02*
X137147428Y-100001429D01*
X137490285Y-100601429D01*
X137490285Y-100001429D01*
X137747428Y-100058571D02*
X137775999Y-100030000D01*
X137833142Y-100001429D01*
X137975999Y-100001429D01*
X138033142Y-100030000D01*
X138061713Y-100058571D01*
X138090285Y-100115714D01*
X138090285Y-100172857D01*
X138061713Y-100258571D01*
X137718856Y-100601429D01*
X138090285Y-100601429D01*
X138318857Y-100058571D02*
X138347428Y-100030000D01*
X138404571Y-100001429D01*
X138547428Y-100001429D01*
X138604571Y-100030000D01*
X138633142Y-100058571D01*
X138661714Y-100115714D01*
X138661714Y-100172857D01*
X138633142Y-100258571D01*
X138290285Y-100601429D01*
X138661714Y-100601429D01*
X138890286Y-100058571D02*
X138918857Y-100030000D01*
X138976000Y-100001429D01*
X139118857Y-100001429D01*
X139176000Y-100030000D01*
X139204571Y-100058571D01*
X139233143Y-100115714D01*
X139233143Y-100172857D01*
X139204571Y-100258571D01*
X138861714Y-100601429D01*
X139233143Y-100601429D01*
X139461715Y-100058571D02*
X139490286Y-100030000D01*
X139547429Y-100001429D01*
X139690286Y-100001429D01*
X139747429Y-100030000D01*
X139776000Y-100058571D01*
X139804572Y-100115714D01*
X139804572Y-100172857D01*
X139776000Y-100258571D01*
X139433143Y-100601429D01*
X139804572Y-100601429D01*
X138628381Y-115482666D02*
X138152190Y-115816000D01*
X138628381Y-116054095D02*
X137628381Y-116054095D01*
X137628381Y-115673142D01*
X137676000Y-115577904D01*
X137723619Y-115530285D01*
X137818857Y-115482666D01*
X137961714Y-115482666D01*
X138056952Y-115530285D01*
X138104571Y-115577904D01*
X138152190Y-115673142D01*
X138152190Y-116054095D01*
X138628381Y-114530285D02*
X138628381Y-115101714D01*
X138628381Y-114816000D02*
X137628381Y-114816000D01*
X137771238Y-114911238D01*
X137866476Y-115006476D01*
X137914095Y-115101714D01*
X141676381Y-115736666D02*
X141200190Y-116070000D01*
X141676381Y-116308095D02*
X140676381Y-116308095D01*
X140676381Y-115927142D01*
X140724000Y-115831904D01*
X140771619Y-115784285D01*
X140866857Y-115736666D01*
X141009714Y-115736666D01*
X141104952Y-115784285D01*
X141152571Y-115831904D01*
X141200190Y-115927142D01*
X141200190Y-116308095D01*
X140771619Y-115355714D02*
X140724000Y-115308095D01*
X140676381Y-115212857D01*
X140676381Y-114974761D01*
X140724000Y-114879523D01*
X140771619Y-114831904D01*
X140866857Y-114784285D01*
X140962095Y-114784285D01*
X141104952Y-114831904D01*
X141676381Y-115403333D01*
X141676381Y-114784285D01*
X119594381Y-112521905D02*
X120403905Y-112521905D01*
X120499143Y-112474286D01*
X120546762Y-112426667D01*
X120594381Y-112331429D01*
X120594381Y-112140952D01*
X120546762Y-112045714D01*
X120499143Y-111998095D01*
X120403905Y-111950476D01*
X119594381Y-111950476D01*
X120594381Y-110950476D02*
X120594381Y-111521905D01*
X120594381Y-111236191D02*
X119594381Y-111236191D01*
X119737238Y-111331429D01*
X119832476Y-111426667D01*
X119880095Y-111521905D01*
X118514762Y-118772666D02*
X118562381Y-118839333D01*
X118562381Y-118972666D01*
X118514762Y-119039333D01*
X118467143Y-119072666D01*
X118371905Y-119106000D01*
X118086190Y-119106000D01*
X117990952Y-119072666D01*
X117943333Y-119039333D01*
X117895714Y-118972666D01*
X117895714Y-118839333D01*
X117943333Y-118772666D01*
X118562381Y-118372666D02*
X118514762Y-118439333D01*
X118419524Y-118472666D01*
X117562381Y-118472666D01*
X118562381Y-118005999D02*
X118514762Y-118072666D01*
X118467143Y-118105999D01*
X118371905Y-118139333D01*
X118086190Y-118139333D01*
X117990952Y-118105999D01*
X117943333Y-118072666D01*
X117895714Y-118005999D01*
X117895714Y-117905999D01*
X117943333Y-117839333D01*
X117990952Y-117805999D01*
X118086190Y-117772666D01*
X118371905Y-117772666D01*
X118467143Y-117805999D01*
X118514762Y-117839333D01*
X118562381Y-117905999D01*
X118562381Y-118005999D01*
X118514762Y-117506000D02*
X118562381Y-117439333D01*
X118562381Y-117306000D01*
X118514762Y-117239333D01*
X118419524Y-117206000D01*
X118371905Y-117206000D01*
X118276667Y-117239333D01*
X118229048Y-117306000D01*
X118229048Y-117406000D01*
X118181429Y-117472666D01*
X118086190Y-117506000D01*
X118038571Y-117506000D01*
X117943333Y-117472666D01*
X117895714Y-117406000D01*
X117895714Y-117306000D01*
X117943333Y-117239333D01*
X118514762Y-116639333D02*
X118562381Y-116705999D01*
X118562381Y-116839333D01*
X118514762Y-116905999D01*
X118419524Y-116939333D01*
X118038571Y-116939333D01*
X117943333Y-116905999D01*
X117895714Y-116839333D01*
X117895714Y-116705999D01*
X117943333Y-116639333D01*
X118038571Y-116605999D01*
X118133810Y-116605999D01*
X118229048Y-116939333D01*
X118308381Y-107155332D02*
X118260762Y-107221999D01*
X118213143Y-107255332D01*
X118117905Y-107288666D01*
X117832190Y-107288666D01*
X117736952Y-107255332D01*
X117689333Y-107221999D01*
X117641714Y-107155332D01*
X117641714Y-107055332D01*
X117689333Y-106988666D01*
X117736952Y-106955332D01*
X117832190Y-106921999D01*
X118117905Y-106921999D01*
X118213143Y-106955332D01*
X118260762Y-106988666D01*
X118308381Y-107055332D01*
X118308381Y-107155332D01*
X117641714Y-106621999D02*
X118641714Y-106621999D01*
X117689333Y-106621999D02*
X117641714Y-106555333D01*
X117641714Y-106421999D01*
X117689333Y-106355333D01*
X117736952Y-106321999D01*
X117832190Y-106288666D01*
X118117905Y-106288666D01*
X118213143Y-106321999D01*
X118260762Y-106355333D01*
X118308381Y-106421999D01*
X118308381Y-106555333D01*
X118260762Y-106621999D01*
X118260762Y-105722000D02*
X118308381Y-105788666D01*
X118308381Y-105922000D01*
X118260762Y-105988666D01*
X118165524Y-106022000D01*
X117784571Y-106022000D01*
X117689333Y-105988666D01*
X117641714Y-105922000D01*
X117641714Y-105788666D01*
X117689333Y-105722000D01*
X117784571Y-105688666D01*
X117879810Y-105688666D01*
X117975048Y-106022000D01*
X117641714Y-105388666D02*
X118308381Y-105388666D01*
X117736952Y-105388666D02*
X117689333Y-105355333D01*
X117641714Y-105288666D01*
X117641714Y-105188666D01*
X117689333Y-105122000D01*
X117784571Y-105088666D01*
X118308381Y-105088666D01*
X128840762Y-113595665D02*
X128888381Y-113662332D01*
X128888381Y-113795665D01*
X128840762Y-113862332D01*
X128793143Y-113895665D01*
X128697905Y-113928999D01*
X128412190Y-113928999D01*
X128316952Y-113895665D01*
X128269333Y-113862332D01*
X128221714Y-113795665D01*
X128221714Y-113662332D01*
X128269333Y-113595665D01*
X128888381Y-113195665D02*
X128840762Y-113262332D01*
X128793143Y-113295665D01*
X128697905Y-113328999D01*
X128412190Y-113328999D01*
X128316952Y-113295665D01*
X128269333Y-113262332D01*
X128221714Y-113195665D01*
X128221714Y-113095665D01*
X128269333Y-113028999D01*
X128316952Y-112995665D01*
X128412190Y-112962332D01*
X128697905Y-112962332D01*
X128793143Y-112995665D01*
X128840762Y-113028999D01*
X128888381Y-113095665D01*
X128888381Y-113195665D01*
X128888381Y-112662332D02*
X128221714Y-112662332D01*
X128316952Y-112662332D02*
X128269333Y-112628999D01*
X128221714Y-112562332D01*
X128221714Y-112462332D01*
X128269333Y-112395666D01*
X128364571Y-112362332D01*
X128888381Y-112362332D01*
X128364571Y-112362332D02*
X128269333Y-112328999D01*
X128221714Y-112262332D01*
X128221714Y-112162332D01*
X128269333Y-112095666D01*
X128364571Y-112062332D01*
X128888381Y-112062332D01*
X128888381Y-111728999D02*
X128221714Y-111728999D01*
X128316952Y-111728999D02*
X128269333Y-111695666D01*
X128221714Y-111628999D01*
X128221714Y-111528999D01*
X128269333Y-111462333D01*
X128364571Y-111428999D01*
X128888381Y-111428999D01*
X128364571Y-111428999D02*
X128269333Y-111395666D01*
X128221714Y-111328999D01*
X128221714Y-111228999D01*
X128269333Y-111162333D01*
X128364571Y-111128999D01*
X128888381Y-111128999D01*
X128888381Y-110695666D02*
X128840762Y-110762333D01*
X128793143Y-110795666D01*
X128697905Y-110829000D01*
X128412190Y-110829000D01*
X128316952Y-110795666D01*
X128269333Y-110762333D01*
X128221714Y-110695666D01*
X128221714Y-110595666D01*
X128269333Y-110529000D01*
X128316952Y-110495666D01*
X128412190Y-110462333D01*
X128697905Y-110462333D01*
X128793143Y-110495666D01*
X128840762Y-110529000D01*
X128888381Y-110595666D01*
X128888381Y-110695666D01*
X128221714Y-110162333D02*
X128888381Y-110162333D01*
X128316952Y-110162333D02*
X128269333Y-110129000D01*
X128221714Y-110062333D01*
X128221714Y-109962333D01*
X128269333Y-109895667D01*
X128364571Y-109862333D01*
X128888381Y-109862333D01*
X123840762Y-112378999D02*
X123888381Y-112445666D01*
X123888381Y-112578999D01*
X123840762Y-112645666D01*
X123793143Y-112678999D01*
X123697905Y-112712333D01*
X123412190Y-112712333D01*
X123316952Y-112678999D01*
X123269333Y-112645666D01*
X123221714Y-112578999D01*
X123221714Y-112445666D01*
X123269333Y-112378999D01*
X123888381Y-111978999D02*
X123840762Y-112045666D01*
X123793143Y-112078999D01*
X123697905Y-112112333D01*
X123412190Y-112112333D01*
X123316952Y-112078999D01*
X123269333Y-112045666D01*
X123221714Y-111978999D01*
X123221714Y-111878999D01*
X123269333Y-111812333D01*
X123316952Y-111778999D01*
X123412190Y-111745666D01*
X123697905Y-111745666D01*
X123793143Y-111778999D01*
X123840762Y-111812333D01*
X123888381Y-111878999D01*
X123888381Y-111978999D01*
X123888381Y-111445666D02*
X123221714Y-111445666D01*
X122888381Y-111445666D02*
X122936000Y-111479000D01*
X122983619Y-111445666D01*
X122936000Y-111412333D01*
X122888381Y-111445666D01*
X122983619Y-111445666D01*
X123888381Y-111012333D02*
X123840762Y-111079000D01*
X123745524Y-111112333D01*
X122888381Y-111112333D01*
X114006381Y-114482238D02*
X114006381Y-114958429D01*
X114482571Y-115006048D01*
X114434952Y-114958429D01*
X114387333Y-114863191D01*
X114387333Y-114625095D01*
X114434952Y-114529857D01*
X114482571Y-114482238D01*
X114577810Y-114434619D01*
X114815905Y-114434619D01*
X114911143Y-114482238D01*
X114958762Y-114529857D01*
X115006381Y-114625095D01*
X115006381Y-114863191D01*
X114958762Y-114958429D01*
X114911143Y-115006048D01*
X114006381Y-114148905D02*
X115006381Y-113815572D01*
X114006381Y-113482238D01*
X115006381Y-111815571D02*
X114530190Y-112148905D01*
X115006381Y-112387000D02*
X114006381Y-112387000D01*
X114006381Y-112006047D01*
X114054000Y-111910809D01*
X114101619Y-111863190D01*
X114196857Y-111815571D01*
X114339714Y-111815571D01*
X114434952Y-111863190D01*
X114482571Y-111910809D01*
X114530190Y-112006047D01*
X114530190Y-112387000D01*
X114958762Y-111006047D02*
X115006381Y-111101285D01*
X115006381Y-111291762D01*
X114958762Y-111387000D01*
X114863524Y-111434619D01*
X114482571Y-111434619D01*
X114387333Y-111387000D01*
X114339714Y-111291762D01*
X114339714Y-111101285D01*
X114387333Y-111006047D01*
X114482571Y-110958428D01*
X114577810Y-110958428D01*
X114673048Y-111434619D01*
X115006381Y-110387000D02*
X114958762Y-110482238D01*
X114863524Y-110529857D01*
X114006381Y-110529857D01*
X115006381Y-109577475D02*
X114482571Y-109577475D01*
X114387333Y-109625094D01*
X114339714Y-109720332D01*
X114339714Y-109910809D01*
X114387333Y-110006047D01*
X114958762Y-109577475D02*
X115006381Y-109672713D01*
X115006381Y-109910809D01*
X114958762Y-110006047D01*
X114863524Y-110053666D01*
X114768286Y-110053666D01*
X114673048Y-110006047D01*
X114625429Y-109910809D01*
X114625429Y-109672713D01*
X114577810Y-109577475D01*
X114339714Y-109196523D02*
X115006381Y-108958428D01*
X114339714Y-108720332D02*
X115006381Y-108958428D01*
X115244476Y-109053666D01*
X115292095Y-109101285D01*
X115339714Y-109196523D01*
M02*
