G04 #@! TF.FileFunction,Legend,Bot*
%FSLAX46Y46*%
G04 Gerber Fmt 4.6, Leading zero omitted, Abs format (unit mm)*
G04 Created by KiCad (PCBNEW 4.0.1-stable) date 15/06/2016 21:54:59*
%MOMM*%
G01*
G04 APERTURE LIST*
%ADD10C,0.100000*%
%ADD11C,0.300000*%
%ADD12C,0.150000*%
%ADD13C,0.010000*%
G04 APERTURE END LIST*
D10*
D11*
X128777142Y-115350857D02*
X129177142Y-114779429D01*
X129462857Y-115350857D02*
X129462857Y-114150857D01*
X129005714Y-114150857D01*
X128891428Y-114208000D01*
X128834285Y-114265143D01*
X128777142Y-114379429D01*
X128777142Y-114550857D01*
X128834285Y-114665143D01*
X128891428Y-114722286D01*
X129005714Y-114779429D01*
X129462857Y-114779429D01*
X127805714Y-115293714D02*
X127920000Y-115350857D01*
X128148571Y-115350857D01*
X128262857Y-115293714D01*
X128320000Y-115179429D01*
X128320000Y-114722286D01*
X128262857Y-114608000D01*
X128148571Y-114550857D01*
X127920000Y-114550857D01*
X127805714Y-114608000D01*
X127748571Y-114722286D01*
X127748571Y-114836571D01*
X128320000Y-114950857D01*
X127062857Y-115350857D02*
X127177143Y-115293714D01*
X127234286Y-115179429D01*
X127234286Y-114150857D01*
X126091429Y-115350857D02*
X126091429Y-114722286D01*
X126148572Y-114608000D01*
X126262858Y-114550857D01*
X126491429Y-114550857D01*
X126605715Y-114608000D01*
X126091429Y-115293714D02*
X126205715Y-115350857D01*
X126491429Y-115350857D01*
X126605715Y-115293714D01*
X126662858Y-115179429D01*
X126662858Y-115065143D01*
X126605715Y-114950857D01*
X126491429Y-114893714D01*
X126205715Y-114893714D01*
X126091429Y-114836571D01*
X125634286Y-114550857D02*
X125348572Y-115350857D01*
X125062858Y-114550857D02*
X125348572Y-115350857D01*
X125462858Y-115636571D01*
X125520001Y-115693714D01*
X125634286Y-115750857D01*
X123691429Y-115350857D02*
X123691429Y-114150857D01*
X123405714Y-114150857D01*
X123234286Y-114208000D01*
X123120000Y-114322286D01*
X123062857Y-114436571D01*
X123005714Y-114665143D01*
X123005714Y-114836571D01*
X123062857Y-115065143D01*
X123120000Y-115179429D01*
X123234286Y-115293714D01*
X123405714Y-115350857D01*
X123691429Y-115350857D01*
X122491429Y-115350857D02*
X122491429Y-114550857D01*
X122491429Y-114779429D02*
X122434286Y-114665143D01*
X122377143Y-114608000D01*
X122262857Y-114550857D01*
X122148572Y-114550857D01*
X121748572Y-115350857D02*
X121748572Y-114550857D01*
X121748572Y-114150857D02*
X121805715Y-114208000D01*
X121748572Y-114265143D01*
X121691429Y-114208000D01*
X121748572Y-114150857D01*
X121748572Y-114265143D01*
X121291428Y-114550857D02*
X121005714Y-115350857D01*
X120720000Y-114550857D01*
X119805714Y-115293714D02*
X119920000Y-115350857D01*
X120148571Y-115350857D01*
X120262857Y-115293714D01*
X120320000Y-115179429D01*
X120320000Y-114722286D01*
X120262857Y-114608000D01*
X120148571Y-114550857D01*
X119920000Y-114550857D01*
X119805714Y-114608000D01*
X119748571Y-114722286D01*
X119748571Y-114836571D01*
X120320000Y-114950857D01*
X119234286Y-115350857D02*
X119234286Y-114550857D01*
X119234286Y-114779429D02*
X119177143Y-114665143D01*
X119120000Y-114608000D01*
X119005714Y-114550857D01*
X118891429Y-114550857D01*
X117691428Y-114550857D02*
X117405714Y-115350857D01*
X117120000Y-114550857D01*
X116034285Y-115350857D02*
X116720000Y-115350857D01*
X116377142Y-115350857D02*
X116377142Y-114150857D01*
X116491428Y-114322286D01*
X116605714Y-114436571D01*
X116720000Y-114493714D01*
X115520000Y-115236571D02*
X115462857Y-115293714D01*
X115520000Y-115350857D01*
X115577143Y-115293714D01*
X115520000Y-115236571D01*
X115520000Y-115350857D01*
X114319999Y-115350857D02*
X115005714Y-115350857D01*
X114662856Y-115350857D02*
X114662856Y-114150857D01*
X114777142Y-114322286D01*
X114891428Y-114436571D01*
X115005714Y-114493714D01*
D12*
X119743220Y-111401860D02*
X119382540Y-112872520D01*
X119382540Y-112872520D02*
X119103140Y-111810800D01*
X119103140Y-111810800D02*
X118793260Y-112882680D01*
X118793260Y-112882680D02*
X118452900Y-111432340D01*
X121163080Y-112092740D02*
X120373140Y-112082580D01*
X120373140Y-112082580D02*
X120362980Y-112092740D01*
X120362980Y-112092740D02*
X120362980Y-112082580D01*
X120322340Y-111371380D02*
X120322340Y-112913160D01*
X121211340Y-111361220D02*
X121211340Y-112930940D01*
X121211340Y-112930940D02*
X121201180Y-112920780D01*
X121762520Y-111462820D02*
X122113040Y-111381540D01*
X122113040Y-111381540D02*
X122433080Y-111371380D01*
X122433080Y-111371380D02*
X122671840Y-111572040D01*
X122671840Y-111572040D02*
X122702320Y-111841280D01*
X122702320Y-111841280D02*
X122461020Y-112082580D01*
X122461020Y-112082580D02*
X122072400Y-112212120D01*
X122072400Y-112212120D02*
X121892060Y-112372140D01*
X121892060Y-112372140D02*
X121851420Y-112671860D01*
X121851420Y-112671860D02*
X122082560Y-112892840D01*
X122082560Y-112892840D02*
X122402600Y-112920780D01*
X122402600Y-112920780D02*
X122753120Y-112811560D01*
X123791980Y-111361220D02*
X124040900Y-111381540D01*
X124040900Y-111381540D02*
X124282200Y-111622840D01*
X124282200Y-111622840D02*
X124371100Y-112113060D01*
X124371100Y-112113060D02*
X124343160Y-112461040D01*
X124343160Y-112461040D02*
X124142500Y-112781080D01*
X124142500Y-112781080D02*
X123891040Y-112903000D01*
X123891040Y-112903000D02*
X123581160Y-112831880D01*
X123581160Y-112831880D02*
X123362720Y-112651540D01*
X123362720Y-112651540D02*
X123291600Y-112191800D01*
X123291600Y-112191800D02*
X123342400Y-111782860D01*
X123342400Y-111782860D02*
X123451620Y-111500920D01*
X123451620Y-111500920D02*
X123812300Y-111371380D01*
X123192540Y-109641640D02*
X123451620Y-110202980D01*
X123451620Y-110202980D02*
X122913140Y-110721140D01*
X122913140Y-110721140D02*
X122392440Y-110451900D01*
X122392440Y-110451900D02*
X122113040Y-110611920D01*
X120672860Y-110591600D02*
X120342660Y-110401100D01*
X120342660Y-110401100D02*
X119903240Y-110731300D01*
X119903240Y-110731300D02*
X119430800Y-110241080D01*
X119430800Y-110241080D02*
X119712740Y-109761020D01*
X119712740Y-109761020D02*
X119522240Y-109291120D01*
X119522240Y-109291120D02*
X118912640Y-109103160D01*
X118912640Y-109103160D02*
X118912640Y-108422440D01*
X118912640Y-108422440D02*
X119471440Y-108282740D01*
X119471440Y-108282740D02*
X119672100Y-107711240D01*
X119672100Y-107711240D02*
X119402860Y-107241340D01*
X119402860Y-107241340D02*
X119872760Y-106730800D01*
X119872760Y-106730800D02*
X120390920Y-106992420D01*
X120390920Y-106992420D02*
X120860820Y-106791760D01*
X120860820Y-106791760D02*
X121031000Y-106250740D01*
X121031000Y-106250740D02*
X121721880Y-106232960D01*
X121721880Y-106232960D02*
X121932700Y-106781600D01*
X121932700Y-106781600D02*
X122351800Y-106951780D01*
X122351800Y-106951780D02*
X122902980Y-106682540D01*
X122902980Y-106682540D02*
X123421140Y-107210860D01*
X123421140Y-107210860D02*
X123172220Y-107751880D01*
X123172220Y-107751880D02*
X123342400Y-108231940D01*
X123342400Y-108231940D02*
X123891040Y-108331000D01*
X123891040Y-108331000D02*
X123901200Y-109032040D01*
X123901200Y-109032040D02*
X123342400Y-109232700D01*
X123342400Y-109232700D02*
X123202700Y-109631480D01*
X121061480Y-109611160D02*
X120761760Y-109461300D01*
X120761760Y-109461300D02*
X120561100Y-109263180D01*
X120561100Y-109263180D02*
X120411240Y-108861860D01*
X120411240Y-108861860D02*
X120411240Y-108463080D01*
X120411240Y-108463080D02*
X120561100Y-108112560D01*
X120561100Y-108112560D02*
X121013220Y-107762040D01*
X121013220Y-107762040D02*
X121462800Y-107711240D01*
X121462800Y-107711240D02*
X121861580Y-107812840D01*
X121861580Y-107812840D02*
X122262900Y-108160820D01*
X122262900Y-108160820D02*
X122412760Y-108612940D01*
X122412760Y-108612940D02*
X122361960Y-109110780D01*
X122361960Y-109110780D02*
X122113040Y-109413040D01*
X122113040Y-109413040D02*
X121762520Y-109611160D01*
X121762520Y-109611160D02*
X122113040Y-110611920D01*
X121061480Y-109611160D02*
X120662700Y-110611920D01*
D13*
G36*
X121158431Y-103155625D02*
X121114467Y-103165064D01*
X121074529Y-103181332D01*
X121037527Y-103204858D01*
X121006813Y-103231626D01*
X120988689Y-103250496D01*
X120975199Y-103267450D01*
X120964029Y-103285658D01*
X120956513Y-103300508D01*
X120938016Y-103348825D01*
X120927870Y-103398463D01*
X120926078Y-103448652D01*
X120932639Y-103498624D01*
X120947558Y-103547609D01*
X120955966Y-103566969D01*
X120978218Y-103604424D01*
X121007226Y-103638297D01*
X121041365Y-103666959D01*
X121076658Y-103687686D01*
X121119985Y-103704257D01*
X121164745Y-103714030D01*
X121209835Y-103717200D01*
X121254152Y-103713965D01*
X121296592Y-103704519D01*
X121336052Y-103689059D01*
X121371429Y-103667782D01*
X121401619Y-103640882D01*
X121412436Y-103628022D01*
X121427068Y-103608976D01*
X121428191Y-103788386D01*
X121429315Y-103967796D01*
X121498102Y-103967796D01*
X121498102Y-103433671D01*
X121433474Y-103433671D01*
X121429364Y-103476300D01*
X121417656Y-103516012D01*
X121399074Y-103552087D01*
X121374347Y-103583808D01*
X121344199Y-103610453D01*
X121309358Y-103631306D01*
X121270548Y-103645647D01*
X121228497Y-103652757D01*
X121211519Y-103653414D01*
X121185455Y-103652421D01*
X121162084Y-103649543D01*
X121149095Y-103646587D01*
X121108792Y-103630491D01*
X121074083Y-103607929D01*
X121045251Y-103579216D01*
X121022581Y-103544665D01*
X121006357Y-103504589D01*
X121000861Y-103483097D01*
X120995927Y-103453160D01*
X120995071Y-103426250D01*
X120998295Y-103397995D01*
X121000911Y-103384457D01*
X121013813Y-103342443D01*
X121033387Y-103305517D01*
X121059028Y-103274172D01*
X121090127Y-103248902D01*
X121126077Y-103230198D01*
X121166270Y-103218552D01*
X121210100Y-103214459D01*
X121210573Y-103214458D01*
X121252490Y-103218419D01*
X121291957Y-103229908D01*
X121328174Y-103248139D01*
X121360340Y-103272323D01*
X121387653Y-103301672D01*
X121409313Y-103335400D01*
X121424519Y-103372717D01*
X121432470Y-103412837D01*
X121433474Y-103433671D01*
X121498102Y-103433671D01*
X121498102Y-103167051D01*
X121429220Y-103167051D01*
X121429220Y-103212254D01*
X121428903Y-103230810D01*
X121428045Y-103245674D01*
X121426788Y-103255069D01*
X121425643Y-103257457D01*
X121421271Y-103254067D01*
X121416061Y-103246239D01*
X121406367Y-103233052D01*
X121391150Y-103217887D01*
X121372606Y-103202582D01*
X121352930Y-103188971D01*
X121337030Y-103180142D01*
X121304841Y-103166739D01*
X121273330Y-103158127D01*
X121239387Y-103153645D01*
X121207509Y-103152586D01*
X121158431Y-103155625D01*
X121158431Y-103155625D01*
G37*
X121158431Y-103155625D02*
X121114467Y-103165064D01*
X121074529Y-103181332D01*
X121037527Y-103204858D01*
X121006813Y-103231626D01*
X120988689Y-103250496D01*
X120975199Y-103267450D01*
X120964029Y-103285658D01*
X120956513Y-103300508D01*
X120938016Y-103348825D01*
X120927870Y-103398463D01*
X120926078Y-103448652D01*
X120932639Y-103498624D01*
X120947558Y-103547609D01*
X120955966Y-103566969D01*
X120978218Y-103604424D01*
X121007226Y-103638297D01*
X121041365Y-103666959D01*
X121076658Y-103687686D01*
X121119985Y-103704257D01*
X121164745Y-103714030D01*
X121209835Y-103717200D01*
X121254152Y-103713965D01*
X121296592Y-103704519D01*
X121336052Y-103689059D01*
X121371429Y-103667782D01*
X121401619Y-103640882D01*
X121412436Y-103628022D01*
X121427068Y-103608976D01*
X121428191Y-103788386D01*
X121429315Y-103967796D01*
X121498102Y-103967796D01*
X121498102Y-103433671D01*
X121433474Y-103433671D01*
X121429364Y-103476300D01*
X121417656Y-103516012D01*
X121399074Y-103552087D01*
X121374347Y-103583808D01*
X121344199Y-103610453D01*
X121309358Y-103631306D01*
X121270548Y-103645647D01*
X121228497Y-103652757D01*
X121211519Y-103653414D01*
X121185455Y-103652421D01*
X121162084Y-103649543D01*
X121149095Y-103646587D01*
X121108792Y-103630491D01*
X121074083Y-103607929D01*
X121045251Y-103579216D01*
X121022581Y-103544665D01*
X121006357Y-103504589D01*
X121000861Y-103483097D01*
X120995927Y-103453160D01*
X120995071Y-103426250D01*
X120998295Y-103397995D01*
X121000911Y-103384457D01*
X121013813Y-103342443D01*
X121033387Y-103305517D01*
X121059028Y-103274172D01*
X121090127Y-103248902D01*
X121126077Y-103230198D01*
X121166270Y-103218552D01*
X121210100Y-103214459D01*
X121210573Y-103214458D01*
X121252490Y-103218419D01*
X121291957Y-103229908D01*
X121328174Y-103248139D01*
X121360340Y-103272323D01*
X121387653Y-103301672D01*
X121409313Y-103335400D01*
X121424519Y-103372717D01*
X121432470Y-103412837D01*
X121433474Y-103433671D01*
X121498102Y-103433671D01*
X121498102Y-103167051D01*
X121429220Y-103167051D01*
X121429220Y-103212254D01*
X121428903Y-103230810D01*
X121428045Y-103245674D01*
X121426788Y-103255069D01*
X121425643Y-103257457D01*
X121421271Y-103254067D01*
X121416061Y-103246239D01*
X121406367Y-103233052D01*
X121391150Y-103217887D01*
X121372606Y-103202582D01*
X121352930Y-103188971D01*
X121337030Y-103180142D01*
X121304841Y-103166739D01*
X121273330Y-103158127D01*
X121239387Y-103153645D01*
X121207509Y-103152586D01*
X121158431Y-103155625D01*
G36*
X122323684Y-103087406D02*
X122322525Y-103164898D01*
X122246110Y-103166074D01*
X122169695Y-103167249D01*
X122169695Y-103227322D01*
X122325016Y-103227322D01*
X122323771Y-103418588D01*
X122323463Y-103464177D01*
X122323160Y-103501950D01*
X122322822Y-103532703D01*
X122322409Y-103557228D01*
X122321881Y-103576320D01*
X122321197Y-103590774D01*
X122320319Y-103601385D01*
X122319206Y-103608945D01*
X122317817Y-103614251D01*
X122316114Y-103618095D01*
X122314055Y-103621273D01*
X122313519Y-103622003D01*
X122303587Y-103632853D01*
X122291435Y-103643035D01*
X122290281Y-103643839D01*
X122273465Y-103650837D01*
X122251171Y-103653562D01*
X122225413Y-103651983D01*
X122198209Y-103646066D01*
X122195909Y-103645366D01*
X122181686Y-103641141D01*
X122173775Y-103639615D01*
X122170339Y-103640712D01*
X122169540Y-103644290D01*
X122169035Y-103652351D01*
X122167902Y-103665558D01*
X122166907Y-103675832D01*
X122164430Y-103700291D01*
X122181054Y-103704697D01*
X122215765Y-103712821D01*
X122244866Y-103717030D01*
X122270358Y-103717436D01*
X122294242Y-103714151D01*
X122304539Y-103711626D01*
X122333956Y-103699361D01*
X122358223Y-103680577D01*
X122376519Y-103656137D01*
X122388025Y-103626904D01*
X122388988Y-103622754D01*
X122390164Y-103612727D01*
X122391186Y-103594665D01*
X122392042Y-103569143D01*
X122392719Y-103536735D01*
X122393206Y-103498016D01*
X122393488Y-103453561D01*
X122393559Y-103414381D01*
X122393559Y-103227322D01*
X122509797Y-103227322D01*
X122509797Y-103167051D01*
X122393559Y-103167051D01*
X122393559Y-103012723D01*
X122359201Y-103011319D01*
X122324844Y-103009915D01*
X122323684Y-103087406D01*
X122323684Y-103087406D01*
G37*
X122323684Y-103087406D02*
X122322525Y-103164898D01*
X122246110Y-103166074D01*
X122169695Y-103167249D01*
X122169695Y-103227322D01*
X122325016Y-103227322D01*
X122323771Y-103418588D01*
X122323463Y-103464177D01*
X122323160Y-103501950D01*
X122322822Y-103532703D01*
X122322409Y-103557228D01*
X122321881Y-103576320D01*
X122321197Y-103590774D01*
X122320319Y-103601385D01*
X122319206Y-103608945D01*
X122317817Y-103614251D01*
X122316114Y-103618095D01*
X122314055Y-103621273D01*
X122313519Y-103622003D01*
X122303587Y-103632853D01*
X122291435Y-103643035D01*
X122290281Y-103643839D01*
X122273465Y-103650837D01*
X122251171Y-103653562D01*
X122225413Y-103651983D01*
X122198209Y-103646066D01*
X122195909Y-103645366D01*
X122181686Y-103641141D01*
X122173775Y-103639615D01*
X122170339Y-103640712D01*
X122169540Y-103644290D01*
X122169035Y-103652351D01*
X122167902Y-103665558D01*
X122166907Y-103675832D01*
X122164430Y-103700291D01*
X122181054Y-103704697D01*
X122215765Y-103712821D01*
X122244866Y-103717030D01*
X122270358Y-103717436D01*
X122294242Y-103714151D01*
X122304539Y-103711626D01*
X122333956Y-103699361D01*
X122358223Y-103680577D01*
X122376519Y-103656137D01*
X122388025Y-103626904D01*
X122388988Y-103622754D01*
X122390164Y-103612727D01*
X122391186Y-103594665D01*
X122392042Y-103569143D01*
X122392719Y-103536735D01*
X122393206Y-103498016D01*
X122393488Y-103453561D01*
X122393559Y-103414381D01*
X122393559Y-103227322D01*
X122509797Y-103227322D01*
X122509797Y-103167051D01*
X122393559Y-103167051D01*
X122393559Y-103012723D01*
X122359201Y-103011319D01*
X122324844Y-103009915D01*
X122323684Y-103087406D01*
G36*
X120187471Y-103156234D02*
X120139942Y-103167405D01*
X120096742Y-103185595D01*
X120058334Y-103210449D01*
X120025183Y-103241617D01*
X119997753Y-103278747D01*
X119976508Y-103321485D01*
X119963882Y-103361054D01*
X119958971Y-103390190D01*
X119956918Y-103424091D01*
X119957692Y-103459412D01*
X119961259Y-103492809D01*
X119965371Y-103513139D01*
X119981044Y-103558043D01*
X120003495Y-103598291D01*
X120032000Y-103633457D01*
X120065837Y-103663113D01*
X120104283Y-103686832D01*
X120146615Y-103704187D01*
X120192109Y-103714749D01*
X120240042Y-103718093D01*
X120289693Y-103713790D01*
X120301288Y-103711672D01*
X120343711Y-103700480D01*
X120380474Y-103684602D01*
X120413773Y-103662874D01*
X120443594Y-103636364D01*
X120473386Y-103600608D01*
X120495994Y-103560165D01*
X120511366Y-103515175D01*
X120519447Y-103465779D01*
X120520773Y-103434816D01*
X120520151Y-103426138D01*
X120452512Y-103426138D01*
X120449860Y-103468715D01*
X120439571Y-103511254D01*
X120428008Y-103539894D01*
X120409266Y-103570381D01*
X120384018Y-103598178D01*
X120354158Y-103621747D01*
X120321582Y-103639549D01*
X120293976Y-103648809D01*
X120277498Y-103651253D01*
X120255679Y-103652585D01*
X120231718Y-103652801D01*
X120208814Y-103651897D01*
X120190163Y-103649867D01*
X120185532Y-103648959D01*
X120149912Y-103636476D01*
X120115509Y-103615952D01*
X120092184Y-103596630D01*
X120064490Y-103565023D01*
X120044116Y-103529011D01*
X120031215Y-103488964D01*
X120025941Y-103445251D01*
X120025814Y-103437407D01*
X120029088Y-103392259D01*
X120039223Y-103351985D01*
X120056465Y-103315943D01*
X120081061Y-103283493D01*
X120087944Y-103276310D01*
X120120709Y-103249010D01*
X120156640Y-103229673D01*
X120196028Y-103218178D01*
X120238864Y-103214406D01*
X120281975Y-103218229D01*
X120321339Y-103229775D01*
X120357248Y-103249165D01*
X120389785Y-103276310D01*
X120416165Y-103308610D01*
X120435514Y-103345042D01*
X120447680Y-103384566D01*
X120452512Y-103426138D01*
X120520151Y-103426138D01*
X120517052Y-103382978D01*
X120505981Y-103335251D01*
X120487996Y-103292072D01*
X120463534Y-103253879D01*
X120433031Y-103221109D01*
X120396925Y-103194200D01*
X120355651Y-103173588D01*
X120309646Y-103159711D01*
X120259347Y-103153007D01*
X120238864Y-103152431D01*
X120187471Y-103156234D01*
X120187471Y-103156234D01*
G37*
X120187471Y-103156234D02*
X120139942Y-103167405D01*
X120096742Y-103185595D01*
X120058334Y-103210449D01*
X120025183Y-103241617D01*
X119997753Y-103278747D01*
X119976508Y-103321485D01*
X119963882Y-103361054D01*
X119958971Y-103390190D01*
X119956918Y-103424091D01*
X119957692Y-103459412D01*
X119961259Y-103492809D01*
X119965371Y-103513139D01*
X119981044Y-103558043D01*
X120003495Y-103598291D01*
X120032000Y-103633457D01*
X120065837Y-103663113D01*
X120104283Y-103686832D01*
X120146615Y-103704187D01*
X120192109Y-103714749D01*
X120240042Y-103718093D01*
X120289693Y-103713790D01*
X120301288Y-103711672D01*
X120343711Y-103700480D01*
X120380474Y-103684602D01*
X120413773Y-103662874D01*
X120443594Y-103636364D01*
X120473386Y-103600608D01*
X120495994Y-103560165D01*
X120511366Y-103515175D01*
X120519447Y-103465779D01*
X120520773Y-103434816D01*
X120520151Y-103426138D01*
X120452512Y-103426138D01*
X120449860Y-103468715D01*
X120439571Y-103511254D01*
X120428008Y-103539894D01*
X120409266Y-103570381D01*
X120384018Y-103598178D01*
X120354158Y-103621747D01*
X120321582Y-103639549D01*
X120293976Y-103648809D01*
X120277498Y-103651253D01*
X120255679Y-103652585D01*
X120231718Y-103652801D01*
X120208814Y-103651897D01*
X120190163Y-103649867D01*
X120185532Y-103648959D01*
X120149912Y-103636476D01*
X120115509Y-103615952D01*
X120092184Y-103596630D01*
X120064490Y-103565023D01*
X120044116Y-103529011D01*
X120031215Y-103488964D01*
X120025941Y-103445251D01*
X120025814Y-103437407D01*
X120029088Y-103392259D01*
X120039223Y-103351985D01*
X120056465Y-103315943D01*
X120081061Y-103283493D01*
X120087944Y-103276310D01*
X120120709Y-103249010D01*
X120156640Y-103229673D01*
X120196028Y-103218178D01*
X120238864Y-103214406D01*
X120281975Y-103218229D01*
X120321339Y-103229775D01*
X120357248Y-103249165D01*
X120389785Y-103276310D01*
X120416165Y-103308610D01*
X120435514Y-103345042D01*
X120447680Y-103384566D01*
X120452512Y-103426138D01*
X120520151Y-103426138D01*
X120517052Y-103382978D01*
X120505981Y-103335251D01*
X120487996Y-103292072D01*
X120463534Y-103253879D01*
X120433031Y-103221109D01*
X120396925Y-103194200D01*
X120355651Y-103173588D01*
X120309646Y-103159711D01*
X120259347Y-103153007D01*
X120238864Y-103152431D01*
X120187471Y-103156234D01*
G36*
X119144514Y-103155102D02*
X119103860Y-103163646D01*
X119067417Y-103178640D01*
X119033992Y-103200546D01*
X119009453Y-103222520D01*
X118981589Y-103255533D01*
X118960711Y-103291993D01*
X118946513Y-103332685D01*
X118938692Y-103378395D01*
X118936915Y-103409392D01*
X118936072Y-103451186D01*
X119388610Y-103451186D01*
X119388610Y-103463197D01*
X119387521Y-103473969D01*
X119384714Y-103489110D01*
X119382018Y-103500516D01*
X119367960Y-103538910D01*
X119347149Y-103573883D01*
X119320642Y-103604104D01*
X119289498Y-103628240D01*
X119273764Y-103637001D01*
X119259950Y-103643379D01*
X119247804Y-103647585D01*
X119234625Y-103650189D01*
X119217710Y-103651762D01*
X119199570Y-103652664D01*
X119165978Y-103652726D01*
X119137570Y-103649432D01*
X119111365Y-103642153D01*
X119084379Y-103630263D01*
X119078486Y-103627202D01*
X119059110Y-103614962D01*
X119039331Y-103599221D01*
X119021988Y-103582440D01*
X119010851Y-103568551D01*
X119007560Y-103563965D01*
X119004228Y-103562000D01*
X118999495Y-103563303D01*
X118991998Y-103568519D01*
X118980378Y-103578295D01*
X118968561Y-103588638D01*
X118952955Y-103602340D01*
X118964776Y-103619397D01*
X118987707Y-103646735D01*
X119015781Y-103669441D01*
X119050094Y-103688271D01*
X119083937Y-103701442D01*
X119104717Y-103707884D01*
X119123074Y-103712096D01*
X119142397Y-103714642D01*
X119166074Y-103716091D01*
X119173172Y-103716351D01*
X119208730Y-103716448D01*
X119237048Y-103714162D01*
X119248695Y-103712042D01*
X119295939Y-103697386D01*
X119337196Y-103676580D01*
X119372635Y-103649495D01*
X119402421Y-103616002D01*
X119426722Y-103575972D01*
X119427354Y-103574698D01*
X119442999Y-103534533D01*
X119453167Y-103489817D01*
X119457600Y-103442843D01*
X119456045Y-103395907D01*
X119455277Y-103390915D01*
X119389568Y-103390915D01*
X119199530Y-103390915D01*
X119153493Y-103390884D01*
X119115341Y-103390775D01*
X119084347Y-103390563D01*
X119059788Y-103390225D01*
X119040938Y-103389736D01*
X119027072Y-103389072D01*
X119017464Y-103388210D01*
X119011389Y-103387124D01*
X119008122Y-103385792D01*
X119007034Y-103384507D01*
X119006437Y-103374915D01*
X119008907Y-103360035D01*
X119013787Y-103342342D01*
X119020419Y-103324311D01*
X119026428Y-103311523D01*
X119046053Y-103283117D01*
X119072255Y-103257927D01*
X119103201Y-103237315D01*
X119137060Y-103222642D01*
X119151341Y-103218663D01*
X119183635Y-103214516D01*
X119217951Y-103215897D01*
X119250999Y-103222459D01*
X119275323Y-103231698D01*
X119303415Y-103249336D01*
X119329740Y-103272952D01*
X119352841Y-103300676D01*
X119371262Y-103330638D01*
X119383545Y-103360968D01*
X119386776Y-103374771D01*
X119389568Y-103390915D01*
X119455277Y-103390915D01*
X119450968Y-103362932D01*
X119437336Y-103318238D01*
X119416480Y-103277019D01*
X119389192Y-103240171D01*
X119356265Y-103208586D01*
X119318490Y-103183160D01*
X119276658Y-103164788D01*
X119275203Y-103164307D01*
X119257066Y-103158876D01*
X119240731Y-103155407D01*
X119223140Y-103153476D01*
X119201236Y-103152657D01*
X119190576Y-103152546D01*
X119144514Y-103155102D01*
X119144514Y-103155102D01*
G37*
X119144514Y-103155102D02*
X119103860Y-103163646D01*
X119067417Y-103178640D01*
X119033992Y-103200546D01*
X119009453Y-103222520D01*
X118981589Y-103255533D01*
X118960711Y-103291993D01*
X118946513Y-103332685D01*
X118938692Y-103378395D01*
X118936915Y-103409392D01*
X118936072Y-103451186D01*
X119388610Y-103451186D01*
X119388610Y-103463197D01*
X119387521Y-103473969D01*
X119384714Y-103489110D01*
X119382018Y-103500516D01*
X119367960Y-103538910D01*
X119347149Y-103573883D01*
X119320642Y-103604104D01*
X119289498Y-103628240D01*
X119273764Y-103637001D01*
X119259950Y-103643379D01*
X119247804Y-103647585D01*
X119234625Y-103650189D01*
X119217710Y-103651762D01*
X119199570Y-103652664D01*
X119165978Y-103652726D01*
X119137570Y-103649432D01*
X119111365Y-103642153D01*
X119084379Y-103630263D01*
X119078486Y-103627202D01*
X119059110Y-103614962D01*
X119039331Y-103599221D01*
X119021988Y-103582440D01*
X119010851Y-103568551D01*
X119007560Y-103563965D01*
X119004228Y-103562000D01*
X118999495Y-103563303D01*
X118991998Y-103568519D01*
X118980378Y-103578295D01*
X118968561Y-103588638D01*
X118952955Y-103602340D01*
X118964776Y-103619397D01*
X118987707Y-103646735D01*
X119015781Y-103669441D01*
X119050094Y-103688271D01*
X119083937Y-103701442D01*
X119104717Y-103707884D01*
X119123074Y-103712096D01*
X119142397Y-103714642D01*
X119166074Y-103716091D01*
X119173172Y-103716351D01*
X119208730Y-103716448D01*
X119237048Y-103714162D01*
X119248695Y-103712042D01*
X119295939Y-103697386D01*
X119337196Y-103676580D01*
X119372635Y-103649495D01*
X119402421Y-103616002D01*
X119426722Y-103575972D01*
X119427354Y-103574698D01*
X119442999Y-103534533D01*
X119453167Y-103489817D01*
X119457600Y-103442843D01*
X119456045Y-103395907D01*
X119455277Y-103390915D01*
X119389568Y-103390915D01*
X119199530Y-103390915D01*
X119153493Y-103390884D01*
X119115341Y-103390775D01*
X119084347Y-103390563D01*
X119059788Y-103390225D01*
X119040938Y-103389736D01*
X119027072Y-103389072D01*
X119017464Y-103388210D01*
X119011389Y-103387124D01*
X119008122Y-103385792D01*
X119007034Y-103384507D01*
X119006437Y-103374915D01*
X119008907Y-103360035D01*
X119013787Y-103342342D01*
X119020419Y-103324311D01*
X119026428Y-103311523D01*
X119046053Y-103283117D01*
X119072255Y-103257927D01*
X119103201Y-103237315D01*
X119137060Y-103222642D01*
X119151341Y-103218663D01*
X119183635Y-103214516D01*
X119217951Y-103215897D01*
X119250999Y-103222459D01*
X119275323Y-103231698D01*
X119303415Y-103249336D01*
X119329740Y-103272952D01*
X119352841Y-103300676D01*
X119371262Y-103330638D01*
X119383545Y-103360968D01*
X119386776Y-103374771D01*
X119389568Y-103390915D01*
X119455277Y-103390915D01*
X119450968Y-103362932D01*
X119437336Y-103318238D01*
X119416480Y-103277019D01*
X119389192Y-103240171D01*
X119356265Y-103208586D01*
X119318490Y-103183160D01*
X119276658Y-103164788D01*
X119275203Y-103164307D01*
X119257066Y-103158876D01*
X119240731Y-103155407D01*
X119223140Y-103153476D01*
X119201236Y-103152657D01*
X119190576Y-103152546D01*
X119144514Y-103155102D01*
G36*
X118191605Y-103153814D02*
X118161763Y-103158614D01*
X118133285Y-103167656D01*
X118102747Y-103181770D01*
X118100575Y-103182901D01*
X118087682Y-103190536D01*
X118072975Y-103200605D01*
X118057927Y-103211905D01*
X118044011Y-103223233D01*
X118032701Y-103233388D01*
X118025470Y-103241166D01*
X118023792Y-103245366D01*
X118023898Y-103245476D01*
X118028147Y-103248800D01*
X118037399Y-103255883D01*
X118049786Y-103265296D01*
X118051899Y-103266897D01*
X118077747Y-103286467D01*
X118101407Y-103265237D01*
X118134936Y-103240465D01*
X118170927Y-103223836D01*
X118208847Y-103215420D01*
X118248160Y-103215290D01*
X118288330Y-103223515D01*
X118320562Y-103236083D01*
X118347711Y-103252616D01*
X118373885Y-103275223D01*
X118396682Y-103301482D01*
X118413698Y-103328978D01*
X118414496Y-103330644D01*
X118429410Y-103371407D01*
X118436813Y-103413338D01*
X118436900Y-103455256D01*
X118429864Y-103495981D01*
X118415898Y-103534335D01*
X118395195Y-103569137D01*
X118370953Y-103596455D01*
X118339134Y-103621955D01*
X118306063Y-103639556D01*
X118270310Y-103649776D01*
X118230446Y-103653138D01*
X118216218Y-103652834D01*
X118179573Y-103647517D01*
X118145793Y-103634652D01*
X118113872Y-103613801D01*
X118101216Y-103602962D01*
X118077365Y-103581125D01*
X118053860Y-103600569D01*
X118041996Y-103610970D01*
X118033127Y-103619847D01*
X118029103Y-103625342D01*
X118029067Y-103625472D01*
X118031499Y-103631695D01*
X118039767Y-103641177D01*
X118052364Y-103652677D01*
X118067785Y-103664954D01*
X118084524Y-103676767D01*
X118101078Y-103686874D01*
X118107848Y-103690429D01*
X118150845Y-103706938D01*
X118196884Y-103715861D01*
X118244653Y-103717043D01*
X118286509Y-103711672D01*
X118328931Y-103700480D01*
X118365694Y-103684602D01*
X118398993Y-103662874D01*
X118428814Y-103636364D01*
X118458606Y-103600608D01*
X118481215Y-103560165D01*
X118496586Y-103515175D01*
X118504667Y-103465779D01*
X118505993Y-103434816D01*
X118502268Y-103383179D01*
X118491195Y-103335558D01*
X118473226Y-103292409D01*
X118448815Y-103254187D01*
X118418412Y-103221352D01*
X118382472Y-103194358D01*
X118341446Y-103173662D01*
X118295787Y-103159723D01*
X118245948Y-103152995D01*
X118226237Y-103152425D01*
X118191605Y-103153814D01*
X118191605Y-103153814D01*
G37*
X118191605Y-103153814D02*
X118161763Y-103158614D01*
X118133285Y-103167656D01*
X118102747Y-103181770D01*
X118100575Y-103182901D01*
X118087682Y-103190536D01*
X118072975Y-103200605D01*
X118057927Y-103211905D01*
X118044011Y-103223233D01*
X118032701Y-103233388D01*
X118025470Y-103241166D01*
X118023792Y-103245366D01*
X118023898Y-103245476D01*
X118028147Y-103248800D01*
X118037399Y-103255883D01*
X118049786Y-103265296D01*
X118051899Y-103266897D01*
X118077747Y-103286467D01*
X118101407Y-103265237D01*
X118134936Y-103240465D01*
X118170927Y-103223836D01*
X118208847Y-103215420D01*
X118248160Y-103215290D01*
X118288330Y-103223515D01*
X118320562Y-103236083D01*
X118347711Y-103252616D01*
X118373885Y-103275223D01*
X118396682Y-103301482D01*
X118413698Y-103328978D01*
X118414496Y-103330644D01*
X118429410Y-103371407D01*
X118436813Y-103413338D01*
X118436900Y-103455256D01*
X118429864Y-103495981D01*
X118415898Y-103534335D01*
X118395195Y-103569137D01*
X118370953Y-103596455D01*
X118339134Y-103621955D01*
X118306063Y-103639556D01*
X118270310Y-103649776D01*
X118230446Y-103653138D01*
X118216218Y-103652834D01*
X118179573Y-103647517D01*
X118145793Y-103634652D01*
X118113872Y-103613801D01*
X118101216Y-103602962D01*
X118077365Y-103581125D01*
X118053860Y-103600569D01*
X118041996Y-103610970D01*
X118033127Y-103619847D01*
X118029103Y-103625342D01*
X118029067Y-103625472D01*
X118031499Y-103631695D01*
X118039767Y-103641177D01*
X118052364Y-103652677D01*
X118067785Y-103664954D01*
X118084524Y-103676767D01*
X118101078Y-103686874D01*
X118107848Y-103690429D01*
X118150845Y-103706938D01*
X118196884Y-103715861D01*
X118244653Y-103717043D01*
X118286509Y-103711672D01*
X118328931Y-103700480D01*
X118365694Y-103684602D01*
X118398993Y-103662874D01*
X118428814Y-103636364D01*
X118458606Y-103600608D01*
X118481215Y-103560165D01*
X118496586Y-103515175D01*
X118504667Y-103465779D01*
X118505993Y-103434816D01*
X118502268Y-103383179D01*
X118491195Y-103335558D01*
X118473226Y-103292409D01*
X118448815Y-103254187D01*
X118418412Y-103221352D01*
X118382472Y-103194358D01*
X118341446Y-103173662D01*
X118295787Y-103159723D01*
X118245948Y-103152995D01*
X118226237Y-103152425D01*
X118191605Y-103153814D01*
G36*
X117613030Y-103156234D02*
X117565501Y-103167405D01*
X117522301Y-103185595D01*
X117483893Y-103210449D01*
X117450742Y-103241617D01*
X117423312Y-103278747D01*
X117402067Y-103321485D01*
X117389441Y-103361054D01*
X117384530Y-103390190D01*
X117382478Y-103424091D01*
X117383251Y-103459412D01*
X117386818Y-103492809D01*
X117390930Y-103513139D01*
X117406604Y-103558043D01*
X117429054Y-103598291D01*
X117457560Y-103633457D01*
X117491397Y-103663113D01*
X117529843Y-103686832D01*
X117572174Y-103704187D01*
X117617668Y-103714749D01*
X117665602Y-103718093D01*
X117715252Y-103713790D01*
X117726848Y-103711672D01*
X117769270Y-103700480D01*
X117806033Y-103684602D01*
X117839332Y-103662874D01*
X117869153Y-103636364D01*
X117898945Y-103600608D01*
X117921554Y-103560165D01*
X117936925Y-103515175D01*
X117945006Y-103465779D01*
X117946332Y-103434816D01*
X117945710Y-103426138D01*
X117878072Y-103426138D01*
X117875419Y-103468715D01*
X117865130Y-103511254D01*
X117853568Y-103539894D01*
X117834825Y-103570381D01*
X117809577Y-103598178D01*
X117779718Y-103621747D01*
X117747142Y-103639549D01*
X117719535Y-103648809D01*
X117703057Y-103651253D01*
X117681238Y-103652585D01*
X117657278Y-103652801D01*
X117634373Y-103651897D01*
X117615723Y-103649867D01*
X117611091Y-103648959D01*
X117575471Y-103636476D01*
X117541068Y-103615952D01*
X117517743Y-103596630D01*
X117490049Y-103565023D01*
X117469675Y-103529011D01*
X117456774Y-103488964D01*
X117451500Y-103445251D01*
X117451373Y-103437407D01*
X117454647Y-103392259D01*
X117464782Y-103351985D01*
X117482024Y-103315943D01*
X117506621Y-103283493D01*
X117513503Y-103276310D01*
X117546269Y-103249010D01*
X117582200Y-103229673D01*
X117621587Y-103218178D01*
X117664424Y-103214406D01*
X117707534Y-103218229D01*
X117746898Y-103229775D01*
X117782807Y-103249165D01*
X117815345Y-103276310D01*
X117841724Y-103308610D01*
X117861073Y-103345042D01*
X117873239Y-103384566D01*
X117878072Y-103426138D01*
X117945710Y-103426138D01*
X117942612Y-103382978D01*
X117931541Y-103335251D01*
X117913556Y-103292072D01*
X117889093Y-103253879D01*
X117858591Y-103221109D01*
X117822484Y-103194200D01*
X117781210Y-103173588D01*
X117735205Y-103159711D01*
X117684907Y-103153007D01*
X117664424Y-103152431D01*
X117613030Y-103156234D01*
X117613030Y-103156234D01*
G37*
X117613030Y-103156234D02*
X117565501Y-103167405D01*
X117522301Y-103185595D01*
X117483893Y-103210449D01*
X117450742Y-103241617D01*
X117423312Y-103278747D01*
X117402067Y-103321485D01*
X117389441Y-103361054D01*
X117384530Y-103390190D01*
X117382478Y-103424091D01*
X117383251Y-103459412D01*
X117386818Y-103492809D01*
X117390930Y-103513139D01*
X117406604Y-103558043D01*
X117429054Y-103598291D01*
X117457560Y-103633457D01*
X117491397Y-103663113D01*
X117529843Y-103686832D01*
X117572174Y-103704187D01*
X117617668Y-103714749D01*
X117665602Y-103718093D01*
X117715252Y-103713790D01*
X117726848Y-103711672D01*
X117769270Y-103700480D01*
X117806033Y-103684602D01*
X117839332Y-103662874D01*
X117869153Y-103636364D01*
X117898945Y-103600608D01*
X117921554Y-103560165D01*
X117936925Y-103515175D01*
X117945006Y-103465779D01*
X117946332Y-103434816D01*
X117945710Y-103426138D01*
X117878072Y-103426138D01*
X117875419Y-103468715D01*
X117865130Y-103511254D01*
X117853568Y-103539894D01*
X117834825Y-103570381D01*
X117809577Y-103598178D01*
X117779718Y-103621747D01*
X117747142Y-103639549D01*
X117719535Y-103648809D01*
X117703057Y-103651253D01*
X117681238Y-103652585D01*
X117657278Y-103652801D01*
X117634373Y-103651897D01*
X117615723Y-103649867D01*
X117611091Y-103648959D01*
X117575471Y-103636476D01*
X117541068Y-103615952D01*
X117517743Y-103596630D01*
X117490049Y-103565023D01*
X117469675Y-103529011D01*
X117456774Y-103488964D01*
X117451500Y-103445251D01*
X117451373Y-103437407D01*
X117454647Y-103392259D01*
X117464782Y-103351985D01*
X117482024Y-103315943D01*
X117506621Y-103283493D01*
X117513503Y-103276310D01*
X117546269Y-103249010D01*
X117582200Y-103229673D01*
X117621587Y-103218178D01*
X117664424Y-103214406D01*
X117707534Y-103218229D01*
X117746898Y-103229775D01*
X117782807Y-103249165D01*
X117815345Y-103276310D01*
X117841724Y-103308610D01*
X117861073Y-103345042D01*
X117873239Y-103384566D01*
X117878072Y-103426138D01*
X117945710Y-103426138D01*
X117942612Y-103382978D01*
X117931541Y-103335251D01*
X117913556Y-103292072D01*
X117889093Y-103253879D01*
X117858591Y-103221109D01*
X117822484Y-103194200D01*
X117781210Y-103173588D01*
X117735205Y-103159711D01*
X117684907Y-103153007D01*
X117664424Y-103152431D01*
X117613030Y-103156234D01*
G36*
X118710406Y-103600495D02*
X118701905Y-103603758D01*
X118686675Y-103614433D01*
X118675820Y-103630494D01*
X118670161Y-103649484D01*
X118670519Y-103668947D01*
X118675485Y-103682844D01*
X118687958Y-103697146D01*
X118705144Y-103706250D01*
X118724581Y-103709698D01*
X118743808Y-103707035D01*
X118759656Y-103698414D01*
X118772790Y-103682469D01*
X118779098Y-103663909D01*
X118778791Y-103644698D01*
X118772077Y-103626804D01*
X118759168Y-103612192D01*
X118749842Y-103606429D01*
X118734524Y-103599942D01*
X118722625Y-103598033D01*
X118710406Y-103600495D01*
X118710406Y-103600495D01*
G37*
X118710406Y-103600495D02*
X118701905Y-103603758D01*
X118686675Y-103614433D01*
X118675820Y-103630494D01*
X118670161Y-103649484D01*
X118670519Y-103668947D01*
X118675485Y-103682844D01*
X118687958Y-103697146D01*
X118705144Y-103706250D01*
X118724581Y-103709698D01*
X118743808Y-103707035D01*
X118759656Y-103698414D01*
X118772790Y-103682469D01*
X118779098Y-103663909D01*
X118778791Y-103644698D01*
X118772077Y-103626804D01*
X118759168Y-103612192D01*
X118749842Y-103606429D01*
X118734524Y-103599942D01*
X118722625Y-103598033D01*
X118710406Y-103600495D01*
G36*
X121647698Y-103193957D02*
X121669113Y-103221294D01*
X121691116Y-103249632D01*
X121713072Y-103278130D01*
X121734348Y-103305949D01*
X121754309Y-103332247D01*
X121772320Y-103356186D01*
X121787747Y-103376923D01*
X121799956Y-103393619D01*
X121808312Y-103405434D01*
X121812180Y-103411527D01*
X121812373Y-103412083D01*
X121809799Y-103416180D01*
X121802502Y-103426195D01*
X121791122Y-103441311D01*
X121776297Y-103460707D01*
X121758665Y-103483566D01*
X121738865Y-103509068D01*
X121717536Y-103536395D01*
X121695316Y-103564728D01*
X121672844Y-103593248D01*
X121650758Y-103621136D01*
X121629698Y-103647574D01*
X121610302Y-103671742D01*
X121598041Y-103686890D01*
X121583166Y-103705186D01*
X121629964Y-103705036D01*
X121676763Y-103704885D01*
X121769172Y-103584443D01*
X121790704Y-103556536D01*
X121810652Y-103530980D01*
X121828402Y-103508540D01*
X121843340Y-103489981D01*
X121854850Y-103476066D01*
X121862317Y-103467562D01*
X121865068Y-103465164D01*
X121868395Y-103468756D01*
X121876272Y-103478437D01*
X121888079Y-103493412D01*
X121903198Y-103512882D01*
X121921008Y-103536053D01*
X121940892Y-103562127D01*
X121957980Y-103584680D01*
X122047405Y-103703034D01*
X122089177Y-103704266D01*
X122106949Y-103704574D01*
X122120961Y-103704405D01*
X122129365Y-103703806D01*
X122130949Y-103703236D01*
X122128410Y-103699448D01*
X122121160Y-103689571D01*
X122109748Y-103674331D01*
X122094725Y-103654455D01*
X122076641Y-103630670D01*
X122056045Y-103603703D01*
X122033489Y-103574279D01*
X122023082Y-103560739D01*
X121999731Y-103530315D01*
X121978015Y-103501895D01*
X121958500Y-103476229D01*
X121941751Y-103454066D01*
X121928333Y-103436153D01*
X121918810Y-103423241D01*
X121913748Y-103416077D01*
X121913088Y-103414960D01*
X121915154Y-103410389D01*
X121921981Y-103399882D01*
X121932981Y-103384248D01*
X121947562Y-103364296D01*
X121965135Y-103340835D01*
X121985110Y-103314674D01*
X122003735Y-103290665D01*
X122025343Y-103262938D01*
X122045168Y-103237371D01*
X122062607Y-103214750D01*
X122077058Y-103195862D01*
X122087919Y-103181494D01*
X122094587Y-103172433D01*
X122096509Y-103169481D01*
X122092504Y-103168485D01*
X122081690Y-103167714D01*
X122065867Y-103167262D01*
X122052381Y-103167187D01*
X122008254Y-103167324D01*
X121937054Y-103265128D01*
X121918472Y-103290453D01*
X121901405Y-103313328D01*
X121886537Y-103332870D01*
X121874547Y-103348196D01*
X121866118Y-103358424D01*
X121861931Y-103362671D01*
X121861715Y-103362738D01*
X121858211Y-103359333D01*
X121850377Y-103349814D01*
X121838895Y-103335073D01*
X121824445Y-103315998D01*
X121807708Y-103293478D01*
X121789366Y-103268404D01*
X121786750Y-103264797D01*
X121715923Y-103167051D01*
X121626513Y-103167051D01*
X121647698Y-103193957D01*
X121647698Y-103193957D01*
G37*
X121647698Y-103193957D02*
X121669113Y-103221294D01*
X121691116Y-103249632D01*
X121713072Y-103278130D01*
X121734348Y-103305949D01*
X121754309Y-103332247D01*
X121772320Y-103356186D01*
X121787747Y-103376923D01*
X121799956Y-103393619D01*
X121808312Y-103405434D01*
X121812180Y-103411527D01*
X121812373Y-103412083D01*
X121809799Y-103416180D01*
X121802502Y-103426195D01*
X121791122Y-103441311D01*
X121776297Y-103460707D01*
X121758665Y-103483566D01*
X121738865Y-103509068D01*
X121717536Y-103536395D01*
X121695316Y-103564728D01*
X121672844Y-103593248D01*
X121650758Y-103621136D01*
X121629698Y-103647574D01*
X121610302Y-103671742D01*
X121598041Y-103686890D01*
X121583166Y-103705186D01*
X121629964Y-103705036D01*
X121676763Y-103704885D01*
X121769172Y-103584443D01*
X121790704Y-103556536D01*
X121810652Y-103530980D01*
X121828402Y-103508540D01*
X121843340Y-103489981D01*
X121854850Y-103476066D01*
X121862317Y-103467562D01*
X121865068Y-103465164D01*
X121868395Y-103468756D01*
X121876272Y-103478437D01*
X121888079Y-103493412D01*
X121903198Y-103512882D01*
X121921008Y-103536053D01*
X121940892Y-103562127D01*
X121957980Y-103584680D01*
X122047405Y-103703034D01*
X122089177Y-103704266D01*
X122106949Y-103704574D01*
X122120961Y-103704405D01*
X122129365Y-103703806D01*
X122130949Y-103703236D01*
X122128410Y-103699448D01*
X122121160Y-103689571D01*
X122109748Y-103674331D01*
X122094725Y-103654455D01*
X122076641Y-103630670D01*
X122056045Y-103603703D01*
X122033489Y-103574279D01*
X122023082Y-103560739D01*
X121999731Y-103530315D01*
X121978015Y-103501895D01*
X121958500Y-103476229D01*
X121941751Y-103454066D01*
X121928333Y-103436153D01*
X121918810Y-103423241D01*
X121913748Y-103416077D01*
X121913088Y-103414960D01*
X121915154Y-103410389D01*
X121921981Y-103399882D01*
X121932981Y-103384248D01*
X121947562Y-103364296D01*
X121965135Y-103340835D01*
X121985110Y-103314674D01*
X122003735Y-103290665D01*
X122025343Y-103262938D01*
X122045168Y-103237371D01*
X122062607Y-103214750D01*
X122077058Y-103195862D01*
X122087919Y-103181494D01*
X122094587Y-103172433D01*
X122096509Y-103169481D01*
X122092504Y-103168485D01*
X122081690Y-103167714D01*
X122065867Y-103167262D01*
X122052381Y-103167187D01*
X122008254Y-103167324D01*
X121937054Y-103265128D01*
X121918472Y-103290453D01*
X121901405Y-103313328D01*
X121886537Y-103332870D01*
X121874547Y-103348196D01*
X121866118Y-103358424D01*
X121861931Y-103362671D01*
X121861715Y-103362738D01*
X121858211Y-103359333D01*
X121850377Y-103349814D01*
X121838895Y-103335073D01*
X121824445Y-103315998D01*
X121807708Y-103293478D01*
X121789366Y-103268404D01*
X121786750Y-103264797D01*
X121715923Y-103167051D01*
X121626513Y-103167051D01*
X121647698Y-103193957D01*
G36*
X120724242Y-102822644D02*
X120688705Y-102822644D01*
X120689802Y-103262839D01*
X120690898Y-103703034D01*
X120724223Y-103704290D01*
X120757547Y-103705547D01*
X120758663Y-103264095D01*
X120759780Y-102822643D01*
X120724242Y-102822644D01*
X120724242Y-102822644D01*
G37*
X120724242Y-102822644D02*
X120688705Y-102822644D01*
X120689802Y-103262839D01*
X120690898Y-103703034D01*
X120724223Y-103704290D01*
X120757547Y-103705547D01*
X120758663Y-103264095D01*
X120759780Y-102822643D01*
X120724242Y-102822644D01*
G36*
X119540641Y-103152269D02*
X119516949Y-103155229D01*
X119519726Y-103175131D01*
X119521980Y-103190604D01*
X119524217Y-103204924D01*
X119524782Y-103208308D01*
X119527062Y-103221582D01*
X119557929Y-103221586D01*
X119596810Y-103225488D01*
X119631802Y-103236894D01*
X119662350Y-103255368D01*
X119687897Y-103280474D01*
X119707886Y-103311777D01*
X119721763Y-103348842D01*
X119722113Y-103350167D01*
X119723879Y-103358410D01*
X119725315Y-103368817D01*
X119726451Y-103382271D01*
X119727318Y-103399654D01*
X119727947Y-103421850D01*
X119728367Y-103449742D01*
X119728610Y-103484211D01*
X119728707Y-103526142D01*
X119728712Y-103540345D01*
X119728712Y-103705186D01*
X119797593Y-103705186D01*
X119797593Y-103514300D01*
X119797661Y-103470949D01*
X119797855Y-103427230D01*
X119798159Y-103384553D01*
X119798559Y-103344325D01*
X119799041Y-103307953D01*
X119799589Y-103276846D01*
X119800189Y-103252412D01*
X119800425Y-103245232D01*
X119803257Y-103167051D01*
X119768137Y-103167051D01*
X119752051Y-103167414D01*
X119739974Y-103168382D01*
X119733886Y-103169770D01*
X119733527Y-103170279D01*
X119734088Y-103178878D01*
X119734115Y-103192272D01*
X119733710Y-103208226D01*
X119732973Y-103224506D01*
X119732006Y-103238876D01*
X119730910Y-103249100D01*
X119729788Y-103252946D01*
X119725850Y-103249591D01*
X119718592Y-103240981D01*
X119709568Y-103228961D01*
X119709339Y-103228641D01*
X119691398Y-103207464D01*
X119669724Y-103187859D01*
X119647142Y-103172190D01*
X119633775Y-103165426D01*
X119610780Y-103158193D01*
X119583942Y-103153331D01*
X119557453Y-103151431D01*
X119540641Y-103152269D01*
X119540641Y-103152269D01*
G37*
X119540641Y-103152269D02*
X119516949Y-103155229D01*
X119519726Y-103175131D01*
X119521980Y-103190604D01*
X119524217Y-103204924D01*
X119524782Y-103208308D01*
X119527062Y-103221582D01*
X119557929Y-103221586D01*
X119596810Y-103225488D01*
X119631802Y-103236894D01*
X119662350Y-103255368D01*
X119687897Y-103280474D01*
X119707886Y-103311777D01*
X119721763Y-103348842D01*
X119722113Y-103350167D01*
X119723879Y-103358410D01*
X119725315Y-103368817D01*
X119726451Y-103382271D01*
X119727318Y-103399654D01*
X119727947Y-103421850D01*
X119728367Y-103449742D01*
X119728610Y-103484211D01*
X119728707Y-103526142D01*
X119728712Y-103540345D01*
X119728712Y-103705186D01*
X119797593Y-103705186D01*
X119797593Y-103514300D01*
X119797661Y-103470949D01*
X119797855Y-103427230D01*
X119798159Y-103384553D01*
X119798559Y-103344325D01*
X119799041Y-103307953D01*
X119799589Y-103276846D01*
X119800189Y-103252412D01*
X119800425Y-103245232D01*
X119803257Y-103167051D01*
X119768137Y-103167051D01*
X119752051Y-103167414D01*
X119739974Y-103168382D01*
X119733886Y-103169770D01*
X119733527Y-103170279D01*
X119734088Y-103178878D01*
X119734115Y-103192272D01*
X119733710Y-103208226D01*
X119732973Y-103224506D01*
X119732006Y-103238876D01*
X119730910Y-103249100D01*
X119729788Y-103252946D01*
X119725850Y-103249591D01*
X119718592Y-103240981D01*
X119709568Y-103228961D01*
X119709339Y-103228641D01*
X119691398Y-103207464D01*
X119669724Y-103187859D01*
X119647142Y-103172190D01*
X119633775Y-103165426D01*
X119610780Y-103158193D01*
X119583942Y-103153331D01*
X119557453Y-103151431D01*
X119540641Y-103152269D01*
G36*
X116945283Y-103152834D02*
X116908156Y-103161611D01*
X116875425Y-103176378D01*
X116848001Y-103196506D01*
X116826797Y-103221364D01*
X116815679Y-103242357D01*
X116810607Y-103253591D01*
X116806577Y-103260591D01*
X116805280Y-103261746D01*
X116802067Y-103258267D01*
X116797095Y-103249598D01*
X116795643Y-103246652D01*
X116784913Y-103229534D01*
X116769306Y-103211112D01*
X116751501Y-103194217D01*
X116734429Y-103181834D01*
X116696891Y-103164660D01*
X116655843Y-103154526D01*
X116612888Y-103151546D01*
X116569629Y-103155833D01*
X116528337Y-103167250D01*
X116502219Y-103180920D01*
X116477475Y-103201023D01*
X116456388Y-103225426D01*
X116444007Y-103245955D01*
X116438160Y-103258504D01*
X116433256Y-103270886D01*
X116429214Y-103283972D01*
X116425951Y-103298633D01*
X116423387Y-103315740D01*
X116421440Y-103336165D01*
X116420028Y-103360779D01*
X116419070Y-103390453D01*
X116418484Y-103426058D01*
X116418189Y-103468465D01*
X116418102Y-103518545D01*
X116418102Y-103705186D01*
X116486983Y-103705186D01*
X116487047Y-103527601D01*
X116487123Y-103480895D01*
X116487334Y-103441974D01*
X116487705Y-103410013D01*
X116488262Y-103384190D01*
X116489031Y-103363679D01*
X116490038Y-103347657D01*
X116491309Y-103335298D01*
X116492869Y-103325780D01*
X116493474Y-103323027D01*
X116504780Y-103287472D01*
X116520382Y-103259303D01*
X116540630Y-103238254D01*
X116565872Y-103224061D01*
X116596459Y-103216457D01*
X116632740Y-103215177D01*
X116635115Y-103215296D01*
X116663941Y-103218597D01*
X116686894Y-103224846D01*
X116690078Y-103226179D01*
X116717395Y-103242850D01*
X116741424Y-103266328D01*
X116761009Y-103295077D01*
X116774993Y-103327562D01*
X116779582Y-103345002D01*
X116780830Y-103355401D01*
X116781974Y-103373627D01*
X116782992Y-103398900D01*
X116783859Y-103430436D01*
X116784553Y-103467455D01*
X116785051Y-103509174D01*
X116785241Y-103535370D01*
X116786186Y-103703034D01*
X116819551Y-103704291D01*
X116852915Y-103705548D01*
X116853032Y-103549308D01*
X116853165Y-103511518D01*
X116853490Y-103474794D01*
X116853981Y-103440435D01*
X116854612Y-103409740D01*
X116855358Y-103384011D01*
X116856193Y-103364547D01*
X116856910Y-103354322D01*
X116863312Y-103313962D01*
X116873952Y-103280062D01*
X116888645Y-103253003D01*
X116907202Y-103233165D01*
X116920678Y-103224604D01*
X116938193Y-103219130D01*
X116961091Y-103216506D01*
X116986649Y-103216681D01*
X117012143Y-103219604D01*
X117034851Y-103225223D01*
X117039259Y-103226838D01*
X117065735Y-103241104D01*
X117091066Y-103261710D01*
X117112933Y-103286469D01*
X117127626Y-103310269D01*
X117134119Y-103323942D01*
X117139462Y-103336762D01*
X117143765Y-103349735D01*
X117147141Y-103363866D01*
X117149702Y-103380158D01*
X117151559Y-103399618D01*
X117152825Y-103423250D01*
X117153610Y-103452059D01*
X117154028Y-103487049D01*
X117154189Y-103529227D01*
X117154208Y-103549127D01*
X117154271Y-103705186D01*
X117223153Y-103705186D01*
X117223153Y-103514300D01*
X117223220Y-103470949D01*
X117223414Y-103427230D01*
X117223718Y-103384553D01*
X117224119Y-103344325D01*
X117224600Y-103307953D01*
X117225149Y-103276846D01*
X117225748Y-103252412D01*
X117225985Y-103245232D01*
X117228816Y-103167051D01*
X117193696Y-103167051D01*
X117177610Y-103167414D01*
X117165534Y-103168382D01*
X117159445Y-103169770D01*
X117159086Y-103170279D01*
X117159644Y-103178817D01*
X117159691Y-103192289D01*
X117159323Y-103208512D01*
X117158632Y-103225300D01*
X117157713Y-103240469D01*
X117156659Y-103251836D01*
X117155564Y-103257215D01*
X117155348Y-103257380D01*
X117151449Y-103254017D01*
X117144647Y-103245377D01*
X117138197Y-103236010D01*
X117115565Y-103208889D01*
X117086787Y-103186154D01*
X117053498Y-103168511D01*
X117017335Y-103156664D01*
X116979936Y-103151321D01*
X116945283Y-103152834D01*
X116945283Y-103152834D01*
G37*
X116945283Y-103152834D02*
X116908156Y-103161611D01*
X116875425Y-103176378D01*
X116848001Y-103196506D01*
X116826797Y-103221364D01*
X116815679Y-103242357D01*
X116810607Y-103253591D01*
X116806577Y-103260591D01*
X116805280Y-103261746D01*
X116802067Y-103258267D01*
X116797095Y-103249598D01*
X116795643Y-103246652D01*
X116784913Y-103229534D01*
X116769306Y-103211112D01*
X116751501Y-103194217D01*
X116734429Y-103181834D01*
X116696891Y-103164660D01*
X116655843Y-103154526D01*
X116612888Y-103151546D01*
X116569629Y-103155833D01*
X116528337Y-103167250D01*
X116502219Y-103180920D01*
X116477475Y-103201023D01*
X116456388Y-103225426D01*
X116444007Y-103245955D01*
X116438160Y-103258504D01*
X116433256Y-103270886D01*
X116429214Y-103283972D01*
X116425951Y-103298633D01*
X116423387Y-103315740D01*
X116421440Y-103336165D01*
X116420028Y-103360779D01*
X116419070Y-103390453D01*
X116418484Y-103426058D01*
X116418189Y-103468465D01*
X116418102Y-103518545D01*
X116418102Y-103705186D01*
X116486983Y-103705186D01*
X116487047Y-103527601D01*
X116487123Y-103480895D01*
X116487334Y-103441974D01*
X116487705Y-103410013D01*
X116488262Y-103384190D01*
X116489031Y-103363679D01*
X116490038Y-103347657D01*
X116491309Y-103335298D01*
X116492869Y-103325780D01*
X116493474Y-103323027D01*
X116504780Y-103287472D01*
X116520382Y-103259303D01*
X116540630Y-103238254D01*
X116565872Y-103224061D01*
X116596459Y-103216457D01*
X116632740Y-103215177D01*
X116635115Y-103215296D01*
X116663941Y-103218597D01*
X116686894Y-103224846D01*
X116690078Y-103226179D01*
X116717395Y-103242850D01*
X116741424Y-103266328D01*
X116761009Y-103295077D01*
X116774993Y-103327562D01*
X116779582Y-103345002D01*
X116780830Y-103355401D01*
X116781974Y-103373627D01*
X116782992Y-103398900D01*
X116783859Y-103430436D01*
X116784553Y-103467455D01*
X116785051Y-103509174D01*
X116785241Y-103535370D01*
X116786186Y-103703034D01*
X116819551Y-103704291D01*
X116852915Y-103705548D01*
X116853032Y-103549308D01*
X116853165Y-103511518D01*
X116853490Y-103474794D01*
X116853981Y-103440435D01*
X116854612Y-103409740D01*
X116855358Y-103384011D01*
X116856193Y-103364547D01*
X116856910Y-103354322D01*
X116863312Y-103313962D01*
X116873952Y-103280062D01*
X116888645Y-103253003D01*
X116907202Y-103233165D01*
X116920678Y-103224604D01*
X116938193Y-103219130D01*
X116961091Y-103216506D01*
X116986649Y-103216681D01*
X117012143Y-103219604D01*
X117034851Y-103225223D01*
X117039259Y-103226838D01*
X117065735Y-103241104D01*
X117091066Y-103261710D01*
X117112933Y-103286469D01*
X117127626Y-103310269D01*
X117134119Y-103323942D01*
X117139462Y-103336762D01*
X117143765Y-103349735D01*
X117147141Y-103363866D01*
X117149702Y-103380158D01*
X117151559Y-103399618D01*
X117152825Y-103423250D01*
X117153610Y-103452059D01*
X117154028Y-103487049D01*
X117154189Y-103529227D01*
X117154208Y-103549127D01*
X117154271Y-103705186D01*
X117223153Y-103705186D01*
X117223153Y-103514300D01*
X117223220Y-103470949D01*
X117223414Y-103427230D01*
X117223718Y-103384553D01*
X117224119Y-103344325D01*
X117224600Y-103307953D01*
X117225149Y-103276846D01*
X117225748Y-103252412D01*
X117225985Y-103245232D01*
X117228816Y-103167051D01*
X117193696Y-103167051D01*
X117177610Y-103167414D01*
X117165534Y-103168382D01*
X117159445Y-103169770D01*
X117159086Y-103170279D01*
X117159644Y-103178817D01*
X117159691Y-103192289D01*
X117159323Y-103208512D01*
X117158632Y-103225300D01*
X117157713Y-103240469D01*
X117156659Y-103251836D01*
X117155564Y-103257215D01*
X117155348Y-103257380D01*
X117151449Y-103254017D01*
X117144647Y-103245377D01*
X117138197Y-103236010D01*
X117115565Y-103208889D01*
X117086787Y-103186154D01*
X117053498Y-103168511D01*
X117017335Y-103156664D01*
X116979936Y-103151321D01*
X116945283Y-103152834D01*
G36*
X123539861Y-101442839D02*
X123485290Y-101450632D01*
X123434452Y-101465572D01*
X123386532Y-101487866D01*
X123363458Y-101501805D01*
X123318434Y-101536228D01*
X123279028Y-101577078D01*
X123245308Y-101624200D01*
X123217339Y-101677441D01*
X123195188Y-101736647D01*
X123178921Y-101801664D01*
X123168603Y-101872338D01*
X123164302Y-101948516D01*
X123164170Y-101965097D01*
X123165314Y-102021023D01*
X123168943Y-102070603D01*
X123175346Y-102115815D01*
X123184814Y-102158640D01*
X123197638Y-102201057D01*
X123199697Y-102207017D01*
X123225365Y-102269358D01*
X123256329Y-102325081D01*
X123292510Y-102374095D01*
X123333834Y-102416308D01*
X123380223Y-102451628D01*
X123424627Y-102476671D01*
X123478531Y-102498010D01*
X123534904Y-102511189D01*
X123593238Y-102516124D01*
X123650644Y-102513028D01*
X123703689Y-102504134D01*
X123750886Y-102490585D01*
X123794027Y-102471695D01*
X123834907Y-102446777D01*
X123847602Y-102437570D01*
X123878814Y-102414088D01*
X123878814Y-102887220D01*
X124059627Y-102887220D01*
X124059627Y-101757918D01*
X123878814Y-101757918D01*
X123878814Y-102248757D01*
X123854059Y-102272241D01*
X123828116Y-102295066D01*
X123801994Y-102313887D01*
X123772171Y-102331145D01*
X123760424Y-102337160D01*
X123712605Y-102357068D01*
X123664412Y-102369487D01*
X123616932Y-102374229D01*
X123571254Y-102371111D01*
X123566409Y-102370284D01*
X123525668Y-102358705D01*
X123488778Y-102339546D01*
X123455880Y-102312995D01*
X123427111Y-102279241D01*
X123402608Y-102238472D01*
X123382511Y-102190875D01*
X123366956Y-102136640D01*
X123357437Y-102085643D01*
X123354849Y-102061028D01*
X123353154Y-102030154D01*
X123352335Y-101995235D01*
X123352370Y-101958487D01*
X123353240Y-101922124D01*
X123354926Y-101888361D01*
X123357407Y-101859414D01*
X123359601Y-101843237D01*
X123366693Y-101809011D01*
X123376384Y-101773850D01*
X123387832Y-101740272D01*
X123400198Y-101710794D01*
X123409992Y-101692181D01*
X123435417Y-101657470D01*
X123466394Y-101628243D01*
X123501699Y-101605413D01*
X123540111Y-101589891D01*
X123551089Y-101587017D01*
X123577452Y-101583505D01*
X123608364Y-101583460D01*
X123640602Y-101586645D01*
X123670943Y-101592822D01*
X123684060Y-101596840D01*
X123722752Y-101614068D01*
X123761927Y-101638371D01*
X123799948Y-101668478D01*
X123835179Y-101703121D01*
X123860707Y-101733849D01*
X123878814Y-101757918D01*
X124059627Y-101757918D01*
X124059627Y-101466542D01*
X123878814Y-101466542D01*
X123878814Y-101584307D01*
X123843297Y-101549873D01*
X123818231Y-101526539D01*
X123795981Y-101508280D01*
X123774105Y-101493352D01*
X123750164Y-101480011D01*
X123735644Y-101472912D01*
X123707400Y-101460791D01*
X123680608Y-101452210D01*
X123652476Y-101446538D01*
X123620210Y-101443141D01*
X123598983Y-101441985D01*
X123539861Y-101442839D01*
X123539861Y-101442839D01*
G37*
X123539861Y-101442839D02*
X123485290Y-101450632D01*
X123434452Y-101465572D01*
X123386532Y-101487866D01*
X123363458Y-101501805D01*
X123318434Y-101536228D01*
X123279028Y-101577078D01*
X123245308Y-101624200D01*
X123217339Y-101677441D01*
X123195188Y-101736647D01*
X123178921Y-101801664D01*
X123168603Y-101872338D01*
X123164302Y-101948516D01*
X123164170Y-101965097D01*
X123165314Y-102021023D01*
X123168943Y-102070603D01*
X123175346Y-102115815D01*
X123184814Y-102158640D01*
X123197638Y-102201057D01*
X123199697Y-102207017D01*
X123225365Y-102269358D01*
X123256329Y-102325081D01*
X123292510Y-102374095D01*
X123333834Y-102416308D01*
X123380223Y-102451628D01*
X123424627Y-102476671D01*
X123478531Y-102498010D01*
X123534904Y-102511189D01*
X123593238Y-102516124D01*
X123650644Y-102513028D01*
X123703689Y-102504134D01*
X123750886Y-102490585D01*
X123794027Y-102471695D01*
X123834907Y-102446777D01*
X123847602Y-102437570D01*
X123878814Y-102414088D01*
X123878814Y-102887220D01*
X124059627Y-102887220D01*
X124059627Y-101757918D01*
X123878814Y-101757918D01*
X123878814Y-102248757D01*
X123854059Y-102272241D01*
X123828116Y-102295066D01*
X123801994Y-102313887D01*
X123772171Y-102331145D01*
X123760424Y-102337160D01*
X123712605Y-102357068D01*
X123664412Y-102369487D01*
X123616932Y-102374229D01*
X123571254Y-102371111D01*
X123566409Y-102370284D01*
X123525668Y-102358705D01*
X123488778Y-102339546D01*
X123455880Y-102312995D01*
X123427111Y-102279241D01*
X123402608Y-102238472D01*
X123382511Y-102190875D01*
X123366956Y-102136640D01*
X123357437Y-102085643D01*
X123354849Y-102061028D01*
X123353154Y-102030154D01*
X123352335Y-101995235D01*
X123352370Y-101958487D01*
X123353240Y-101922124D01*
X123354926Y-101888361D01*
X123357407Y-101859414D01*
X123359601Y-101843237D01*
X123366693Y-101809011D01*
X123376384Y-101773850D01*
X123387832Y-101740272D01*
X123400198Y-101710794D01*
X123409992Y-101692181D01*
X123435417Y-101657470D01*
X123466394Y-101628243D01*
X123501699Y-101605413D01*
X123540111Y-101589891D01*
X123551089Y-101587017D01*
X123577452Y-101583505D01*
X123608364Y-101583460D01*
X123640602Y-101586645D01*
X123670943Y-101592822D01*
X123684060Y-101596840D01*
X123722752Y-101614068D01*
X123761927Y-101638371D01*
X123799948Y-101668478D01*
X123835179Y-101703121D01*
X123860707Y-101733849D01*
X123878814Y-101757918D01*
X124059627Y-101757918D01*
X124059627Y-101466542D01*
X123878814Y-101466542D01*
X123878814Y-101584307D01*
X123843297Y-101549873D01*
X123818231Y-101526539D01*
X123795981Y-101508280D01*
X123774105Y-101493352D01*
X123750164Y-101480011D01*
X123735644Y-101472912D01*
X123707400Y-101460791D01*
X123680608Y-101452210D01*
X123652476Y-101446538D01*
X123620210Y-101443141D01*
X123598983Y-101441985D01*
X123539861Y-101442839D01*
G36*
X127415024Y-99530095D02*
X127397335Y-99532353D01*
X127375888Y-99535629D01*
X127353012Y-99539525D01*
X127331037Y-99543642D01*
X127312291Y-99547581D01*
X127299104Y-99550944D01*
X127298194Y-99551229D01*
X127287020Y-99556222D01*
X127278006Y-99563873D01*
X127270864Y-99575105D01*
X127265307Y-99590844D01*
X127261044Y-99612013D01*
X127257789Y-99639537D01*
X127255253Y-99674341D01*
X127254304Y-99691930D01*
X127252279Y-99724037D01*
X127249501Y-99749267D01*
X127245509Y-99769347D01*
X127239846Y-99786007D01*
X127232053Y-99800975D01*
X127221671Y-99815977D01*
X127221207Y-99816587D01*
X127204029Y-99833861D01*
X127180880Y-99849914D01*
X127154397Y-99863447D01*
X127127219Y-99873163D01*
X127101982Y-99877766D01*
X127096383Y-99877966D01*
X127088928Y-99877258D01*
X127079462Y-99874855D01*
X127066984Y-99870342D01*
X127050494Y-99863302D01*
X127028991Y-99853317D01*
X127001475Y-99839971D01*
X126981780Y-99830235D01*
X126949386Y-99814070D01*
X126923571Y-99801498D01*
X126903057Y-99792593D01*
X126886563Y-99787428D01*
X126872812Y-99786079D01*
X126860523Y-99788618D01*
X126848418Y-99795120D01*
X126835217Y-99805659D01*
X126819641Y-99820310D01*
X126800412Y-99839146D01*
X126798667Y-99840846D01*
X126780597Y-99858772D01*
X126764377Y-99875500D01*
X126751182Y-99889768D01*
X126742189Y-99900316D01*
X126738920Y-99905000D01*
X126737192Y-99908767D01*
X126736451Y-99912666D01*
X126737155Y-99917595D01*
X126739763Y-99924454D01*
X126744734Y-99934139D01*
X126752525Y-99947550D01*
X126763596Y-99965586D01*
X126778404Y-99989144D01*
X126796059Y-100017000D01*
X126812960Y-100043797D01*
X126828486Y-100068728D01*
X126841984Y-100090721D01*
X126852804Y-100108704D01*
X126860293Y-100121606D01*
X126863799Y-100128356D01*
X126863826Y-100128426D01*
X126865081Y-100133707D01*
X126864646Y-100140173D01*
X126862058Y-100149148D01*
X126856851Y-100161955D01*
X126848563Y-100179917D01*
X126838310Y-100201121D01*
X126827470Y-100222545D01*
X126817200Y-100241467D01*
X126808362Y-100256395D01*
X126801821Y-100265834D01*
X126799513Y-100268148D01*
X126792919Y-100270279D01*
X126778874Y-100273258D01*
X126758474Y-100276899D01*
X126732816Y-100281019D01*
X126702998Y-100285432D01*
X126670115Y-100289955D01*
X126669183Y-100290078D01*
X126547765Y-100306149D01*
X126543969Y-100321303D01*
X126541609Y-100334093D01*
X126538811Y-100355309D01*
X126535593Y-100384781D01*
X126531975Y-100422336D01*
X126528713Y-100459152D01*
X126527963Y-100474368D01*
X126528378Y-100486419D01*
X126529702Y-100492263D01*
X126534857Y-100495903D01*
X126546458Y-100502075D01*
X126562966Y-100510090D01*
X126582840Y-100519261D01*
X126604541Y-100528900D01*
X126626528Y-100538321D01*
X126647263Y-100546835D01*
X126665205Y-100553754D01*
X126675392Y-100557318D01*
X126709170Y-100570370D01*
X126735330Y-100585489D01*
X126754801Y-100603720D01*
X126768515Y-100626107D01*
X126777400Y-100653693D01*
X126781163Y-100675982D01*
X126784535Y-100703727D01*
X126786830Y-100724336D01*
X126788143Y-100739206D01*
X126788565Y-100749731D01*
X126788191Y-100757307D01*
X126787115Y-100763328D01*
X126787035Y-100763650D01*
X126783127Y-100770186D01*
X126773668Y-100781990D01*
X126759297Y-100798347D01*
X126740653Y-100818541D01*
X126718376Y-100841855D01*
X126704812Y-100855743D01*
X126679459Y-100881702D01*
X126659744Y-100902357D01*
X126645095Y-100918372D01*
X126634939Y-100930407D01*
X126628706Y-100939125D01*
X126625823Y-100945187D01*
X126625458Y-100947560D01*
X126627490Y-100956458D01*
X126632993Y-100970930D01*
X126641078Y-100989124D01*
X126650856Y-101009189D01*
X126661437Y-101029274D01*
X126671932Y-101047528D01*
X126678304Y-101057559D01*
X126693249Y-101078469D01*
X126705873Y-101092571D01*
X126717416Y-101100898D01*
X126729115Y-101104483D01*
X126735006Y-101104824D01*
X126749463Y-101103459D01*
X126771623Y-101099542D01*
X126801001Y-101093179D01*
X126837109Y-101084473D01*
X126874935Y-101074728D01*
X126910007Y-101068131D01*
X126941371Y-101068246D01*
X126970858Y-101075190D01*
X126987085Y-101082035D01*
X127009441Y-101096108D01*
X127032158Y-101115950D01*
X127052910Y-101139148D01*
X127069373Y-101163292D01*
X127074030Y-101172233D01*
X127086458Y-101198653D01*
X127041605Y-101266945D01*
X127007309Y-101320854D01*
X126971467Y-101380327D01*
X126934598Y-101444321D01*
X126897220Y-101511797D01*
X126859850Y-101581713D01*
X126823008Y-101653028D01*
X126787210Y-101724701D01*
X126752975Y-101795690D01*
X126720821Y-101864955D01*
X126691267Y-101931454D01*
X126664829Y-101994147D01*
X126642026Y-102051993D01*
X126623377Y-102103949D01*
X126619892Y-102114457D01*
X126602610Y-102170891D01*
X126587415Y-102227405D01*
X126574753Y-102282071D01*
X126565070Y-102332961D01*
X126558809Y-102378149D01*
X126558686Y-102379326D01*
X126558351Y-102413435D01*
X126563803Y-102447326D01*
X126574480Y-102477495D01*
X126574542Y-102477624D01*
X126591838Y-102503909D01*
X126615303Y-102525801D01*
X126643323Y-102542584D01*
X126674283Y-102553547D01*
X126706569Y-102557974D01*
X126738566Y-102555152D01*
X126745858Y-102553363D01*
X126763933Y-102546870D01*
X126782552Y-102537983D01*
X126789676Y-102533802D01*
X126810639Y-102517753D01*
X126834702Y-102494813D01*
X126861209Y-102465837D01*
X126889505Y-102431684D01*
X126918935Y-102393208D01*
X126948843Y-102351268D01*
X126978573Y-102306719D01*
X127007471Y-102260418D01*
X127034740Y-102213474D01*
X127047805Y-102189755D01*
X127060343Y-102166211D01*
X127072580Y-102142287D01*
X127084742Y-102117427D01*
X127097055Y-102091077D01*
X127109745Y-102062681D01*
X127123038Y-102031684D01*
X127137161Y-101997531D01*
X127152338Y-101959667D01*
X127168797Y-101917537D01*
X127186764Y-101870585D01*
X127206464Y-101818256D01*
X127228123Y-101759995D01*
X127251968Y-101695247D01*
X127278224Y-101623457D01*
X127305567Y-101548339D01*
X127319771Y-101509401D01*
X127333263Y-101472713D01*
X127345724Y-101439117D01*
X127356838Y-101409456D01*
X127366286Y-101384571D01*
X127373753Y-101365305D01*
X127378919Y-101352502D01*
X127381402Y-101347098D01*
X127392714Y-101336605D01*
X127410498Y-101328498D01*
X127432844Y-101323181D01*
X127457845Y-101321060D01*
X127483593Y-101322538D01*
X127491421Y-101323788D01*
X127527892Y-101334564D01*
X127559308Y-101352304D01*
X127585587Y-101376945D01*
X127606647Y-101408423D01*
X127611003Y-101417175D01*
X127629324Y-101455710D01*
X127644868Y-101486976D01*
X127658121Y-101511671D01*
X127669572Y-101530493D01*
X127679706Y-101544142D01*
X127689009Y-101553315D01*
X127697969Y-101558712D01*
X127707073Y-101561029D01*
X127711397Y-101561254D01*
X127726288Y-101560282D01*
X127746574Y-101557663D01*
X127769913Y-101553841D01*
X127793962Y-101549262D01*
X127816379Y-101544369D01*
X127834822Y-101539607D01*
X127846567Y-101535594D01*
X127861814Y-101526492D01*
X127870742Y-101514766D01*
X127871582Y-101512884D01*
X127875297Y-101500053D01*
X127878866Y-101480700D01*
X127882048Y-101456915D01*
X127884599Y-101430786D01*
X127886279Y-101404401D01*
X127886847Y-101381064D01*
X127890006Y-101341479D01*
X127899647Y-101307413D01*
X127916017Y-101278446D01*
X127939365Y-101254158D01*
X127969939Y-101234128D01*
X127975055Y-101231518D01*
X127999754Y-101220922D01*
X128022198Y-101215166D01*
X128034616Y-101213670D01*
X128062609Y-101211423D01*
X128160612Y-101261827D01*
X128191637Y-101277677D01*
X128216028Y-101289849D01*
X128234730Y-101298751D01*
X128248689Y-101304790D01*
X128258852Y-101308373D01*
X128266162Y-101309906D01*
X128271567Y-101309797D01*
X128271906Y-101309737D01*
X128279118Y-101306745D01*
X128289284Y-101299609D01*
X128303106Y-101287733D01*
X128321285Y-101270517D01*
X128341710Y-101250206D01*
X128359959Y-101231544D01*
X128376294Y-101214380D01*
X128389649Y-101199869D01*
X128398960Y-101189169D01*
X128403083Y-101183596D01*
X128404487Y-101179186D01*
X128403934Y-101173733D01*
X128400825Y-101166010D01*
X128394561Y-101154789D01*
X128384542Y-101138843D01*
X128371543Y-101119020D01*
X128356911Y-101097017D01*
X128342090Y-101074914D01*
X128328581Y-101054937D01*
X128317882Y-101039310D01*
X128315606Y-101036034D01*
X128297030Y-101005128D01*
X128286058Y-100976149D01*
X128282262Y-100947932D01*
X128282256Y-100945533D01*
X128284942Y-100925226D01*
X128291788Y-100903569D01*
X128301404Y-100884294D01*
X128308637Y-100874647D01*
X128315956Y-100863602D01*
X128319671Y-100854083D01*
X128324660Y-100842848D01*
X128332929Y-100831191D01*
X128334000Y-100830006D01*
X128337420Y-100826441D01*
X128340955Y-100823460D01*
X128345496Y-100820883D01*
X128351933Y-100818529D01*
X128361157Y-100816217D01*
X128374059Y-100813766D01*
X128391529Y-100810998D01*
X128414459Y-100807730D01*
X128443738Y-100803782D01*
X128480257Y-100798974D01*
X128499528Y-100796450D01*
X128530405Y-100792299D01*
X128553757Y-100788864D01*
X128570619Y-100785931D01*
X128582027Y-100783288D01*
X128589015Y-100780720D01*
X128592618Y-100778015D01*
X128593203Y-100777127D01*
X128594913Y-100770573D01*
X128597176Y-100757154D01*
X128599794Y-100738584D01*
X128602565Y-100716574D01*
X128605291Y-100692837D01*
X128607769Y-100669085D01*
X128609800Y-100647032D01*
X128611185Y-100628390D01*
X128611617Y-100619672D01*
X128610353Y-100604739D01*
X128605822Y-100595243D01*
X128605797Y-100595218D01*
X128599826Y-100591516D01*
X128587303Y-100585174D01*
X128569642Y-100576820D01*
X128548258Y-100567083D01*
X128527188Y-100557751D01*
X128058191Y-100557751D01*
X128054824Y-100605042D01*
X128047751Y-100649175D01*
X128044502Y-100662943D01*
X128024358Y-100723900D01*
X127996693Y-100781316D01*
X127962062Y-100834505D01*
X127921022Y-100882776D01*
X127874128Y-100925441D01*
X127821936Y-100961811D01*
X127788408Y-100980276D01*
X127732718Y-101003722D01*
X127674097Y-101020201D01*
X127614170Y-101029441D01*
X127554561Y-101031165D01*
X127510153Y-101027236D01*
X127446385Y-101013987D01*
X127385905Y-100993273D01*
X127329279Y-100965578D01*
X127277073Y-100931383D01*
X127229851Y-100891174D01*
X127188181Y-100845432D01*
X127152626Y-100794641D01*
X127123753Y-100739284D01*
X127102126Y-100679844D01*
X127101660Y-100678230D01*
X127087992Y-100615951D01*
X127082511Y-100554351D01*
X127084797Y-100493957D01*
X127094428Y-100435296D01*
X127110985Y-100378895D01*
X127134044Y-100325283D01*
X127163186Y-100274987D01*
X127197990Y-100228533D01*
X127238034Y-100186450D01*
X127282897Y-100149265D01*
X127332159Y-100117505D01*
X127385398Y-100091699D01*
X127442192Y-100072373D01*
X127502122Y-100060055D01*
X127564766Y-100055272D01*
X127598407Y-100055945D01*
X127662010Y-100063448D01*
X127722789Y-100078774D01*
X127780221Y-100101451D01*
X127833783Y-100131004D01*
X127882952Y-100166959D01*
X127927206Y-100208844D01*
X127966021Y-100256185D01*
X127998874Y-100308508D01*
X128025242Y-100365340D01*
X128044603Y-100426207D01*
X128053184Y-100467725D01*
X128057696Y-100510809D01*
X128058191Y-100557751D01*
X128527188Y-100557751D01*
X128524566Y-100556590D01*
X128499979Y-100545969D01*
X128475912Y-100535848D01*
X128453780Y-100526854D01*
X128437898Y-100520698D01*
X128416168Y-100511079D01*
X128399226Y-100499647D01*
X128385831Y-100484874D01*
X128374737Y-100465236D01*
X128364701Y-100439205D01*
X128360366Y-100425551D01*
X128353064Y-100389741D01*
X128353135Y-100355614D01*
X128360531Y-100324433D01*
X128364606Y-100314932D01*
X128372899Y-100301794D01*
X128387664Y-100283316D01*
X128408945Y-100259442D01*
X128436791Y-100230118D01*
X128440590Y-100226216D01*
X128464332Y-100201646D01*
X128482488Y-100182035D01*
X128495649Y-100166343D01*
X128504406Y-100153531D01*
X128509353Y-100142561D01*
X128511082Y-100132394D01*
X128510183Y-100121992D01*
X128507250Y-100110315D01*
X128507043Y-100109621D01*
X128500990Y-100094351D01*
X128491396Y-100075751D01*
X128479364Y-100055446D01*
X128465997Y-100035058D01*
X128452401Y-100016213D01*
X128439677Y-100000533D01*
X128428931Y-99989643D01*
X128422708Y-99985546D01*
X128416467Y-99984752D01*
X128405279Y-99985498D01*
X128388408Y-99987898D01*
X128365118Y-99992068D01*
X128334672Y-99998124D01*
X128311354Y-100002987D01*
X128282555Y-100008993D01*
X128256186Y-100014347D01*
X128233537Y-100018796D01*
X128215901Y-100022091D01*
X128204568Y-100023982D01*
X128201227Y-100024339D01*
X128187717Y-100021360D01*
X128169752Y-100013068D01*
X128148770Y-100000429D01*
X128126207Y-99984407D01*
X128103500Y-99965971D01*
X128082085Y-99946084D01*
X128076825Y-99940709D01*
X128063964Y-99927095D01*
X128056083Y-99917723D01*
X128052172Y-99910650D01*
X128051220Y-99903934D01*
X128052217Y-99895631D01*
X128052505Y-99893938D01*
X128053904Y-99884693D01*
X128056188Y-99868307D01*
X128059170Y-99846183D01*
X128062663Y-99819725D01*
X128066478Y-99790335D01*
X128069410Y-99767445D01*
X128083205Y-99659076D01*
X128001170Y-99620060D01*
X127919136Y-99581043D01*
X127835186Y-99666438D01*
X127807790Y-99694205D01*
X127785402Y-99716396D01*
X127767025Y-99733607D01*
X127751664Y-99746433D01*
X127738322Y-99755470D01*
X127726003Y-99761313D01*
X127713710Y-99764558D01*
X127700447Y-99765800D01*
X127685218Y-99765634D01*
X127670513Y-99764863D01*
X127649732Y-99762921D01*
X127629378Y-99759811D01*
X127612987Y-99756107D01*
X127609206Y-99754907D01*
X127586801Y-99743116D01*
X127565386Y-99724884D01*
X127547017Y-99702315D01*
X127533855Y-99677779D01*
X127525554Y-99658847D01*
X127514875Y-99637072D01*
X127502750Y-99614097D01*
X127490114Y-99591560D01*
X127477899Y-99571103D01*
X127467039Y-99554367D01*
X127458466Y-99542993D01*
X127455438Y-99539919D01*
X127438629Y-99530827D01*
X127426626Y-99529254D01*
X127415024Y-99530095D01*
X127415024Y-99530095D01*
G37*
X127415024Y-99530095D02*
X127397335Y-99532353D01*
X127375888Y-99535629D01*
X127353012Y-99539525D01*
X127331037Y-99543642D01*
X127312291Y-99547581D01*
X127299104Y-99550944D01*
X127298194Y-99551229D01*
X127287020Y-99556222D01*
X127278006Y-99563873D01*
X127270864Y-99575105D01*
X127265307Y-99590844D01*
X127261044Y-99612013D01*
X127257789Y-99639537D01*
X127255253Y-99674341D01*
X127254304Y-99691930D01*
X127252279Y-99724037D01*
X127249501Y-99749267D01*
X127245509Y-99769347D01*
X127239846Y-99786007D01*
X127232053Y-99800975D01*
X127221671Y-99815977D01*
X127221207Y-99816587D01*
X127204029Y-99833861D01*
X127180880Y-99849914D01*
X127154397Y-99863447D01*
X127127219Y-99873163D01*
X127101982Y-99877766D01*
X127096383Y-99877966D01*
X127088928Y-99877258D01*
X127079462Y-99874855D01*
X127066984Y-99870342D01*
X127050494Y-99863302D01*
X127028991Y-99853317D01*
X127001475Y-99839971D01*
X126981780Y-99830235D01*
X126949386Y-99814070D01*
X126923571Y-99801498D01*
X126903057Y-99792593D01*
X126886563Y-99787428D01*
X126872812Y-99786079D01*
X126860523Y-99788618D01*
X126848418Y-99795120D01*
X126835217Y-99805659D01*
X126819641Y-99820310D01*
X126800412Y-99839146D01*
X126798667Y-99840846D01*
X126780597Y-99858772D01*
X126764377Y-99875500D01*
X126751182Y-99889768D01*
X126742189Y-99900316D01*
X126738920Y-99905000D01*
X126737192Y-99908767D01*
X126736451Y-99912666D01*
X126737155Y-99917595D01*
X126739763Y-99924454D01*
X126744734Y-99934139D01*
X126752525Y-99947550D01*
X126763596Y-99965586D01*
X126778404Y-99989144D01*
X126796059Y-100017000D01*
X126812960Y-100043797D01*
X126828486Y-100068728D01*
X126841984Y-100090721D01*
X126852804Y-100108704D01*
X126860293Y-100121606D01*
X126863799Y-100128356D01*
X126863826Y-100128426D01*
X126865081Y-100133707D01*
X126864646Y-100140173D01*
X126862058Y-100149148D01*
X126856851Y-100161955D01*
X126848563Y-100179917D01*
X126838310Y-100201121D01*
X126827470Y-100222545D01*
X126817200Y-100241467D01*
X126808362Y-100256395D01*
X126801821Y-100265834D01*
X126799513Y-100268148D01*
X126792919Y-100270279D01*
X126778874Y-100273258D01*
X126758474Y-100276899D01*
X126732816Y-100281019D01*
X126702998Y-100285432D01*
X126670115Y-100289955D01*
X126669183Y-100290078D01*
X126547765Y-100306149D01*
X126543969Y-100321303D01*
X126541609Y-100334093D01*
X126538811Y-100355309D01*
X126535593Y-100384781D01*
X126531975Y-100422336D01*
X126528713Y-100459152D01*
X126527963Y-100474368D01*
X126528378Y-100486419D01*
X126529702Y-100492263D01*
X126534857Y-100495903D01*
X126546458Y-100502075D01*
X126562966Y-100510090D01*
X126582840Y-100519261D01*
X126604541Y-100528900D01*
X126626528Y-100538321D01*
X126647263Y-100546835D01*
X126665205Y-100553754D01*
X126675392Y-100557318D01*
X126709170Y-100570370D01*
X126735330Y-100585489D01*
X126754801Y-100603720D01*
X126768515Y-100626107D01*
X126777400Y-100653693D01*
X126781163Y-100675982D01*
X126784535Y-100703727D01*
X126786830Y-100724336D01*
X126788143Y-100739206D01*
X126788565Y-100749731D01*
X126788191Y-100757307D01*
X126787115Y-100763328D01*
X126787035Y-100763650D01*
X126783127Y-100770186D01*
X126773668Y-100781990D01*
X126759297Y-100798347D01*
X126740653Y-100818541D01*
X126718376Y-100841855D01*
X126704812Y-100855743D01*
X126679459Y-100881702D01*
X126659744Y-100902357D01*
X126645095Y-100918372D01*
X126634939Y-100930407D01*
X126628706Y-100939125D01*
X126625823Y-100945187D01*
X126625458Y-100947560D01*
X126627490Y-100956458D01*
X126632993Y-100970930D01*
X126641078Y-100989124D01*
X126650856Y-101009189D01*
X126661437Y-101029274D01*
X126671932Y-101047528D01*
X126678304Y-101057559D01*
X126693249Y-101078469D01*
X126705873Y-101092571D01*
X126717416Y-101100898D01*
X126729115Y-101104483D01*
X126735006Y-101104824D01*
X126749463Y-101103459D01*
X126771623Y-101099542D01*
X126801001Y-101093179D01*
X126837109Y-101084473D01*
X126874935Y-101074728D01*
X126910007Y-101068131D01*
X126941371Y-101068246D01*
X126970858Y-101075190D01*
X126987085Y-101082035D01*
X127009441Y-101096108D01*
X127032158Y-101115950D01*
X127052910Y-101139148D01*
X127069373Y-101163292D01*
X127074030Y-101172233D01*
X127086458Y-101198653D01*
X127041605Y-101266945D01*
X127007309Y-101320854D01*
X126971467Y-101380327D01*
X126934598Y-101444321D01*
X126897220Y-101511797D01*
X126859850Y-101581713D01*
X126823008Y-101653028D01*
X126787210Y-101724701D01*
X126752975Y-101795690D01*
X126720821Y-101864955D01*
X126691267Y-101931454D01*
X126664829Y-101994147D01*
X126642026Y-102051993D01*
X126623377Y-102103949D01*
X126619892Y-102114457D01*
X126602610Y-102170891D01*
X126587415Y-102227405D01*
X126574753Y-102282071D01*
X126565070Y-102332961D01*
X126558809Y-102378149D01*
X126558686Y-102379326D01*
X126558351Y-102413435D01*
X126563803Y-102447326D01*
X126574480Y-102477495D01*
X126574542Y-102477624D01*
X126591838Y-102503909D01*
X126615303Y-102525801D01*
X126643323Y-102542584D01*
X126674283Y-102553547D01*
X126706569Y-102557974D01*
X126738566Y-102555152D01*
X126745858Y-102553363D01*
X126763933Y-102546870D01*
X126782552Y-102537983D01*
X126789676Y-102533802D01*
X126810639Y-102517753D01*
X126834702Y-102494813D01*
X126861209Y-102465837D01*
X126889505Y-102431684D01*
X126918935Y-102393208D01*
X126948843Y-102351268D01*
X126978573Y-102306719D01*
X127007471Y-102260418D01*
X127034740Y-102213474D01*
X127047805Y-102189755D01*
X127060343Y-102166211D01*
X127072580Y-102142287D01*
X127084742Y-102117427D01*
X127097055Y-102091077D01*
X127109745Y-102062681D01*
X127123038Y-102031684D01*
X127137161Y-101997531D01*
X127152338Y-101959667D01*
X127168797Y-101917537D01*
X127186764Y-101870585D01*
X127206464Y-101818256D01*
X127228123Y-101759995D01*
X127251968Y-101695247D01*
X127278224Y-101623457D01*
X127305567Y-101548339D01*
X127319771Y-101509401D01*
X127333263Y-101472713D01*
X127345724Y-101439117D01*
X127356838Y-101409456D01*
X127366286Y-101384571D01*
X127373753Y-101365305D01*
X127378919Y-101352502D01*
X127381402Y-101347098D01*
X127392714Y-101336605D01*
X127410498Y-101328498D01*
X127432844Y-101323181D01*
X127457845Y-101321060D01*
X127483593Y-101322538D01*
X127491421Y-101323788D01*
X127527892Y-101334564D01*
X127559308Y-101352304D01*
X127585587Y-101376945D01*
X127606647Y-101408423D01*
X127611003Y-101417175D01*
X127629324Y-101455710D01*
X127644868Y-101486976D01*
X127658121Y-101511671D01*
X127669572Y-101530493D01*
X127679706Y-101544142D01*
X127689009Y-101553315D01*
X127697969Y-101558712D01*
X127707073Y-101561029D01*
X127711397Y-101561254D01*
X127726288Y-101560282D01*
X127746574Y-101557663D01*
X127769913Y-101553841D01*
X127793962Y-101549262D01*
X127816379Y-101544369D01*
X127834822Y-101539607D01*
X127846567Y-101535594D01*
X127861814Y-101526492D01*
X127870742Y-101514766D01*
X127871582Y-101512884D01*
X127875297Y-101500053D01*
X127878866Y-101480700D01*
X127882048Y-101456915D01*
X127884599Y-101430786D01*
X127886279Y-101404401D01*
X127886847Y-101381064D01*
X127890006Y-101341479D01*
X127899647Y-101307413D01*
X127916017Y-101278446D01*
X127939365Y-101254158D01*
X127969939Y-101234128D01*
X127975055Y-101231518D01*
X127999754Y-101220922D01*
X128022198Y-101215166D01*
X128034616Y-101213670D01*
X128062609Y-101211423D01*
X128160612Y-101261827D01*
X128191637Y-101277677D01*
X128216028Y-101289849D01*
X128234730Y-101298751D01*
X128248689Y-101304790D01*
X128258852Y-101308373D01*
X128266162Y-101309906D01*
X128271567Y-101309797D01*
X128271906Y-101309737D01*
X128279118Y-101306745D01*
X128289284Y-101299609D01*
X128303106Y-101287733D01*
X128321285Y-101270517D01*
X128341710Y-101250206D01*
X128359959Y-101231544D01*
X128376294Y-101214380D01*
X128389649Y-101199869D01*
X128398960Y-101189169D01*
X128403083Y-101183596D01*
X128404487Y-101179186D01*
X128403934Y-101173733D01*
X128400825Y-101166010D01*
X128394561Y-101154789D01*
X128384542Y-101138843D01*
X128371543Y-101119020D01*
X128356911Y-101097017D01*
X128342090Y-101074914D01*
X128328581Y-101054937D01*
X128317882Y-101039310D01*
X128315606Y-101036034D01*
X128297030Y-101005128D01*
X128286058Y-100976149D01*
X128282262Y-100947932D01*
X128282256Y-100945533D01*
X128284942Y-100925226D01*
X128291788Y-100903569D01*
X128301404Y-100884294D01*
X128308637Y-100874647D01*
X128315956Y-100863602D01*
X128319671Y-100854083D01*
X128324660Y-100842848D01*
X128332929Y-100831191D01*
X128334000Y-100830006D01*
X128337420Y-100826441D01*
X128340955Y-100823460D01*
X128345496Y-100820883D01*
X128351933Y-100818529D01*
X128361157Y-100816217D01*
X128374059Y-100813766D01*
X128391529Y-100810998D01*
X128414459Y-100807730D01*
X128443738Y-100803782D01*
X128480257Y-100798974D01*
X128499528Y-100796450D01*
X128530405Y-100792299D01*
X128553757Y-100788864D01*
X128570619Y-100785931D01*
X128582027Y-100783288D01*
X128589015Y-100780720D01*
X128592618Y-100778015D01*
X128593203Y-100777127D01*
X128594913Y-100770573D01*
X128597176Y-100757154D01*
X128599794Y-100738584D01*
X128602565Y-100716574D01*
X128605291Y-100692837D01*
X128607769Y-100669085D01*
X128609800Y-100647032D01*
X128611185Y-100628390D01*
X128611617Y-100619672D01*
X128610353Y-100604739D01*
X128605822Y-100595243D01*
X128605797Y-100595218D01*
X128599826Y-100591516D01*
X128587303Y-100585174D01*
X128569642Y-100576820D01*
X128548258Y-100567083D01*
X128527188Y-100557751D01*
X128058191Y-100557751D01*
X128054824Y-100605042D01*
X128047751Y-100649175D01*
X128044502Y-100662943D01*
X128024358Y-100723900D01*
X127996693Y-100781316D01*
X127962062Y-100834505D01*
X127921022Y-100882776D01*
X127874128Y-100925441D01*
X127821936Y-100961811D01*
X127788408Y-100980276D01*
X127732718Y-101003722D01*
X127674097Y-101020201D01*
X127614170Y-101029441D01*
X127554561Y-101031165D01*
X127510153Y-101027236D01*
X127446385Y-101013987D01*
X127385905Y-100993273D01*
X127329279Y-100965578D01*
X127277073Y-100931383D01*
X127229851Y-100891174D01*
X127188181Y-100845432D01*
X127152626Y-100794641D01*
X127123753Y-100739284D01*
X127102126Y-100679844D01*
X127101660Y-100678230D01*
X127087992Y-100615951D01*
X127082511Y-100554351D01*
X127084797Y-100493957D01*
X127094428Y-100435296D01*
X127110985Y-100378895D01*
X127134044Y-100325283D01*
X127163186Y-100274987D01*
X127197990Y-100228533D01*
X127238034Y-100186450D01*
X127282897Y-100149265D01*
X127332159Y-100117505D01*
X127385398Y-100091699D01*
X127442192Y-100072373D01*
X127502122Y-100060055D01*
X127564766Y-100055272D01*
X127598407Y-100055945D01*
X127662010Y-100063448D01*
X127722789Y-100078774D01*
X127780221Y-100101451D01*
X127833783Y-100131004D01*
X127882952Y-100166959D01*
X127927206Y-100208844D01*
X127966021Y-100256185D01*
X127998874Y-100308508D01*
X128025242Y-100365340D01*
X128044603Y-100426207D01*
X128053184Y-100467725D01*
X128057696Y-100510809D01*
X128058191Y-100557751D01*
X128527188Y-100557751D01*
X128524566Y-100556590D01*
X128499979Y-100545969D01*
X128475912Y-100535848D01*
X128453780Y-100526854D01*
X128437898Y-100520698D01*
X128416168Y-100511079D01*
X128399226Y-100499647D01*
X128385831Y-100484874D01*
X128374737Y-100465236D01*
X128364701Y-100439205D01*
X128360366Y-100425551D01*
X128353064Y-100389741D01*
X128353135Y-100355614D01*
X128360531Y-100324433D01*
X128364606Y-100314932D01*
X128372899Y-100301794D01*
X128387664Y-100283316D01*
X128408945Y-100259442D01*
X128436791Y-100230118D01*
X128440590Y-100226216D01*
X128464332Y-100201646D01*
X128482488Y-100182035D01*
X128495649Y-100166343D01*
X128504406Y-100153531D01*
X128509353Y-100142561D01*
X128511082Y-100132394D01*
X128510183Y-100121992D01*
X128507250Y-100110315D01*
X128507043Y-100109621D01*
X128500990Y-100094351D01*
X128491396Y-100075751D01*
X128479364Y-100055446D01*
X128465997Y-100035058D01*
X128452401Y-100016213D01*
X128439677Y-100000533D01*
X128428931Y-99989643D01*
X128422708Y-99985546D01*
X128416467Y-99984752D01*
X128405279Y-99985498D01*
X128388408Y-99987898D01*
X128365118Y-99992068D01*
X128334672Y-99998124D01*
X128311354Y-100002987D01*
X128282555Y-100008993D01*
X128256186Y-100014347D01*
X128233537Y-100018796D01*
X128215901Y-100022091D01*
X128204568Y-100023982D01*
X128201227Y-100024339D01*
X128187717Y-100021360D01*
X128169752Y-100013068D01*
X128148770Y-100000429D01*
X128126207Y-99984407D01*
X128103500Y-99965971D01*
X128082085Y-99946084D01*
X128076825Y-99940709D01*
X128063964Y-99927095D01*
X128056083Y-99917723D01*
X128052172Y-99910650D01*
X128051220Y-99903934D01*
X128052217Y-99895631D01*
X128052505Y-99893938D01*
X128053904Y-99884693D01*
X128056188Y-99868307D01*
X128059170Y-99846183D01*
X128062663Y-99819725D01*
X128066478Y-99790335D01*
X128069410Y-99767445D01*
X128083205Y-99659076D01*
X128001170Y-99620060D01*
X127919136Y-99581043D01*
X127835186Y-99666438D01*
X127807790Y-99694205D01*
X127785402Y-99716396D01*
X127767025Y-99733607D01*
X127751664Y-99746433D01*
X127738322Y-99755470D01*
X127726003Y-99761313D01*
X127713710Y-99764558D01*
X127700447Y-99765800D01*
X127685218Y-99765634D01*
X127670513Y-99764863D01*
X127649732Y-99762921D01*
X127629378Y-99759811D01*
X127612987Y-99756107D01*
X127609206Y-99754907D01*
X127586801Y-99743116D01*
X127565386Y-99724884D01*
X127547017Y-99702315D01*
X127533855Y-99677779D01*
X127525554Y-99658847D01*
X127514875Y-99637072D01*
X127502750Y-99614097D01*
X127490114Y-99591560D01*
X127477899Y-99571103D01*
X127467039Y-99554367D01*
X127458466Y-99542993D01*
X127455438Y-99539919D01*
X127438629Y-99530827D01*
X127426626Y-99529254D01*
X127415024Y-99530095D01*
G36*
X122144245Y-101446554D02*
X122087012Y-101457921D01*
X122033449Y-101474948D01*
X121985042Y-101497492D01*
X121982186Y-101499101D01*
X121931714Y-101532662D01*
X121887227Y-101572349D01*
X121848790Y-101618038D01*
X121816470Y-101669601D01*
X121790331Y-101726912D01*
X121770439Y-101789845D01*
X121756861Y-101858275D01*
X121749661Y-101932074D01*
X121749006Y-101947084D01*
X121749523Y-102024040D01*
X121756550Y-102096305D01*
X121769917Y-102163650D01*
X121789458Y-102225846D01*
X121815004Y-102282664D01*
X121846388Y-102333875D01*
X121883442Y-102379250D01*
X121925999Y-102418560D01*
X121973891Y-102451577D01*
X122026950Y-102478072D01*
X122085008Y-102497815D01*
X122147898Y-102510578D01*
X122163237Y-102512526D01*
X122192497Y-102514973D01*
X122223638Y-102516126D01*
X122253282Y-102515936D01*
X122278048Y-102514355D01*
X122279475Y-102514195D01*
X122328528Y-102507167D01*
X122371354Y-102497930D01*
X122410191Y-102485857D01*
X122447276Y-102470320D01*
X122462441Y-102462830D01*
X122513687Y-102431769D01*
X122559305Y-102394222D01*
X122599248Y-102350259D01*
X122633467Y-102299950D01*
X122661918Y-102243364D01*
X122684551Y-102180570D01*
X122701322Y-102111640D01*
X122702412Y-102105847D01*
X122705803Y-102080749D01*
X122708175Y-102049234D01*
X122709535Y-102013436D01*
X122709885Y-101975488D01*
X122709849Y-101973391D01*
X122522561Y-101973391D01*
X122522040Y-102008689D01*
X122520556Y-102042105D01*
X122518134Y-102071077D01*
X122516217Y-102085409D01*
X122503519Y-102143961D01*
X122485540Y-102196344D01*
X122462495Y-102242353D01*
X122434599Y-102281783D01*
X122402067Y-102314430D01*
X122365115Y-102340089D01*
X122323956Y-102358555D01*
X122278807Y-102369623D01*
X122229883Y-102373089D01*
X122214462Y-102372614D01*
X122193458Y-102370835D01*
X122172539Y-102367969D01*
X122155465Y-102364558D01*
X122152046Y-102363626D01*
X122107236Y-102346089D01*
X122067513Y-102321610D01*
X122032892Y-102290204D01*
X122003387Y-102251887D01*
X121979013Y-102206676D01*
X121962821Y-102164327D01*
X121951016Y-102121287D01*
X121943021Y-102076156D01*
X121938559Y-102026880D01*
X121937331Y-101976695D01*
X121938610Y-101924560D01*
X121942596Y-101878832D01*
X121949663Y-101837630D01*
X121960189Y-101799071D01*
X121974549Y-101761274D01*
X121984909Y-101738700D01*
X122010369Y-101694959D01*
X122040812Y-101658148D01*
X122075972Y-101628437D01*
X122115584Y-101605993D01*
X122159383Y-101590986D01*
X122207103Y-101583584D01*
X122229966Y-101582779D01*
X122279058Y-101586667D01*
X122324389Y-101598164D01*
X122365724Y-101617026D01*
X122402825Y-101643007D01*
X122435454Y-101675859D01*
X122463375Y-101715338D01*
X122486350Y-101761196D01*
X122504143Y-101813189D01*
X122516517Y-101871070D01*
X122518115Y-101881840D01*
X122520623Y-101907404D01*
X122522097Y-101938775D01*
X122522561Y-101973391D01*
X122709849Y-101973391D01*
X122709233Y-101937523D01*
X122707582Y-101901673D01*
X122704938Y-101870072D01*
X122701806Y-101847542D01*
X122686008Y-101779466D01*
X122664093Y-101717024D01*
X122636219Y-101660406D01*
X122602541Y-101609799D01*
X122563215Y-101565391D01*
X122518399Y-101527371D01*
X122468247Y-101495925D01*
X122412916Y-101471241D01*
X122380162Y-101460567D01*
X122323107Y-101447854D01*
X122263778Y-101441377D01*
X122203663Y-101440992D01*
X122144245Y-101446554D01*
X122144245Y-101446554D01*
G37*
X122144245Y-101446554D02*
X122087012Y-101457921D01*
X122033449Y-101474948D01*
X121985042Y-101497492D01*
X121982186Y-101499101D01*
X121931714Y-101532662D01*
X121887227Y-101572349D01*
X121848790Y-101618038D01*
X121816470Y-101669601D01*
X121790331Y-101726912D01*
X121770439Y-101789845D01*
X121756861Y-101858275D01*
X121749661Y-101932074D01*
X121749006Y-101947084D01*
X121749523Y-102024040D01*
X121756550Y-102096305D01*
X121769917Y-102163650D01*
X121789458Y-102225846D01*
X121815004Y-102282664D01*
X121846388Y-102333875D01*
X121883442Y-102379250D01*
X121925999Y-102418560D01*
X121973891Y-102451577D01*
X122026950Y-102478072D01*
X122085008Y-102497815D01*
X122147898Y-102510578D01*
X122163237Y-102512526D01*
X122192497Y-102514973D01*
X122223638Y-102516126D01*
X122253282Y-102515936D01*
X122278048Y-102514355D01*
X122279475Y-102514195D01*
X122328528Y-102507167D01*
X122371354Y-102497930D01*
X122410191Y-102485857D01*
X122447276Y-102470320D01*
X122462441Y-102462830D01*
X122513687Y-102431769D01*
X122559305Y-102394222D01*
X122599248Y-102350259D01*
X122633467Y-102299950D01*
X122661918Y-102243364D01*
X122684551Y-102180570D01*
X122701322Y-102111640D01*
X122702412Y-102105847D01*
X122705803Y-102080749D01*
X122708175Y-102049234D01*
X122709535Y-102013436D01*
X122709885Y-101975488D01*
X122709849Y-101973391D01*
X122522561Y-101973391D01*
X122522040Y-102008689D01*
X122520556Y-102042105D01*
X122518134Y-102071077D01*
X122516217Y-102085409D01*
X122503519Y-102143961D01*
X122485540Y-102196344D01*
X122462495Y-102242353D01*
X122434599Y-102281783D01*
X122402067Y-102314430D01*
X122365115Y-102340089D01*
X122323956Y-102358555D01*
X122278807Y-102369623D01*
X122229883Y-102373089D01*
X122214462Y-102372614D01*
X122193458Y-102370835D01*
X122172539Y-102367969D01*
X122155465Y-102364558D01*
X122152046Y-102363626D01*
X122107236Y-102346089D01*
X122067513Y-102321610D01*
X122032892Y-102290204D01*
X122003387Y-102251887D01*
X121979013Y-102206676D01*
X121962821Y-102164327D01*
X121951016Y-102121287D01*
X121943021Y-102076156D01*
X121938559Y-102026880D01*
X121937331Y-101976695D01*
X121938610Y-101924560D01*
X121942596Y-101878832D01*
X121949663Y-101837630D01*
X121960189Y-101799071D01*
X121974549Y-101761274D01*
X121984909Y-101738700D01*
X122010369Y-101694959D01*
X122040812Y-101658148D01*
X122075972Y-101628437D01*
X122115584Y-101605993D01*
X122159383Y-101590986D01*
X122207103Y-101583584D01*
X122229966Y-101582779D01*
X122279058Y-101586667D01*
X122324389Y-101598164D01*
X122365724Y-101617026D01*
X122402825Y-101643007D01*
X122435454Y-101675859D01*
X122463375Y-101715338D01*
X122486350Y-101761196D01*
X122504143Y-101813189D01*
X122516517Y-101871070D01*
X122518115Y-101881840D01*
X122520623Y-101907404D01*
X122522097Y-101938775D01*
X122522561Y-101973391D01*
X122709849Y-101973391D01*
X122709233Y-101937523D01*
X122707582Y-101901673D01*
X122704938Y-101870072D01*
X122701806Y-101847542D01*
X122686008Y-101779466D01*
X122664093Y-101717024D01*
X122636219Y-101660406D01*
X122602541Y-101609799D01*
X122563215Y-101565391D01*
X122518399Y-101527371D01*
X122468247Y-101495925D01*
X122412916Y-101471241D01*
X122380162Y-101460567D01*
X122323107Y-101447854D01*
X122263778Y-101441377D01*
X122203663Y-101440992D01*
X122144245Y-101446554D01*
G36*
X120572509Y-101442125D02*
X120515014Y-101445317D01*
X120464860Y-101451061D01*
X120421070Y-101459677D01*
X120382668Y-101471484D01*
X120348680Y-101486801D01*
X120318128Y-101505948D01*
X120290038Y-101529244D01*
X120281740Y-101537295D01*
X120252158Y-101572673D01*
X120228422Y-101613692D01*
X120210394Y-101660667D01*
X120197940Y-101713912D01*
X120194128Y-101739915D01*
X120193125Y-101752856D01*
X120192236Y-101774283D01*
X120191465Y-101804072D01*
X120190811Y-101842101D01*
X120190278Y-101888246D01*
X120189865Y-101942384D01*
X120189576Y-102004391D01*
X120189410Y-102074144D01*
X120189368Y-102134906D01*
X120189356Y-102491152D01*
X120370170Y-102491152D01*
X120370170Y-102387318D01*
X120390619Y-102404561D01*
X120428414Y-102432266D01*
X120472323Y-102457363D01*
X120519970Y-102478700D01*
X120568983Y-102495127D01*
X120586683Y-102499659D01*
X120619836Y-102506224D01*
X120655765Y-102511318D01*
X120692131Y-102514757D01*
X120726594Y-102516361D01*
X120756815Y-102515948D01*
X120774848Y-102514269D01*
X120807532Y-102509179D01*
X120834008Y-102504032D01*
X120856666Y-102498292D01*
X120877892Y-102491423D01*
X120879807Y-102490734D01*
X120925708Y-102469974D01*
X120967255Y-102442929D01*
X121003639Y-102410430D01*
X121034050Y-102373307D01*
X121057677Y-102332392D01*
X121072442Y-102293118D01*
X121075507Y-102276431D01*
X121077390Y-102253616D01*
X121078116Y-102227070D01*
X121077825Y-102206921D01*
X120893237Y-102206921D01*
X120892936Y-102229082D01*
X120891776Y-102245190D01*
X120889378Y-102257792D01*
X120885360Y-102269432D01*
X120883088Y-102274666D01*
X120867473Y-102299725D01*
X120844969Y-102322686D01*
X120817259Y-102342240D01*
X120786029Y-102357080D01*
X120770470Y-102362094D01*
X120730025Y-102369930D01*
X120685321Y-102373016D01*
X120639310Y-102371312D01*
X120594940Y-102364775D01*
X120593929Y-102364560D01*
X120541956Y-102349362D01*
X120491974Y-102326815D01*
X120445704Y-102297863D01*
X120404867Y-102263450D01*
X120399229Y-102257785D01*
X120370170Y-102227872D01*
X120370170Y-101990471D01*
X120485331Y-101993055D01*
X120541520Y-101994829D01*
X120590248Y-101997571D01*
X120632631Y-102001469D01*
X120669782Y-102006711D01*
X120702816Y-102013487D01*
X120732847Y-102021983D01*
X120760990Y-102032389D01*
X120786438Y-102043942D01*
X120822290Y-102065389D01*
X120850977Y-102091097D01*
X120873127Y-102121670D01*
X120878950Y-102132606D01*
X120885431Y-102146343D01*
X120889587Y-102157594D01*
X120891931Y-102169026D01*
X120892976Y-102183308D01*
X120893235Y-102203108D01*
X120893237Y-102206921D01*
X121077825Y-102206921D01*
X121077713Y-102199190D01*
X121076208Y-102172374D01*
X121073628Y-102149019D01*
X121070650Y-102133830D01*
X121054086Y-102087486D01*
X121030038Y-102045304D01*
X120998602Y-102007366D01*
X120959877Y-101973753D01*
X120913959Y-101944549D01*
X120860947Y-101919835D01*
X120800937Y-101899694D01*
X120788827Y-101896410D01*
X120754424Y-101887928D01*
X120721550Y-101881038D01*
X120688650Y-101875566D01*
X120654164Y-101871338D01*
X120616538Y-101868177D01*
X120574213Y-101865910D01*
X120525633Y-101864362D01*
X120498246Y-101863798D01*
X120370170Y-101861537D01*
X120370302Y-101813641D01*
X120372049Y-101764415D01*
X120377281Y-101722614D01*
X120386435Y-101687615D01*
X120399942Y-101658791D01*
X120418237Y-101635519D01*
X120441754Y-101617173D01*
X120470927Y-101603128D01*
X120506189Y-101592760D01*
X120526431Y-101588725D01*
X120550872Y-101585708D01*
X120580378Y-101583989D01*
X120612691Y-101583517D01*
X120645553Y-101584242D01*
X120676704Y-101586112D01*
X120703886Y-101589077D01*
X120724840Y-101593085D01*
X120725339Y-101593218D01*
X120757022Y-101603970D01*
X120786637Y-101618146D01*
X120811598Y-101634404D01*
X120822048Y-101643398D01*
X120839267Y-101664540D01*
X120853853Y-101690784D01*
X120864109Y-101718675D01*
X120867667Y-101736204D01*
X120870551Y-101759288D01*
X121050373Y-101759288D01*
X121050373Y-101744039D01*
X121048050Y-101718223D01*
X121041570Y-101688041D01*
X121031667Y-101656210D01*
X121019075Y-101625451D01*
X121017441Y-101622009D01*
X120993296Y-101581183D01*
X120962763Y-101545645D01*
X120925768Y-101515366D01*
X120882239Y-101490314D01*
X120832099Y-101470461D01*
X120775276Y-101455777D01*
X120711695Y-101446231D01*
X120641281Y-101441793D01*
X120572509Y-101442125D01*
X120572509Y-101442125D01*
G37*
X120572509Y-101442125D02*
X120515014Y-101445317D01*
X120464860Y-101451061D01*
X120421070Y-101459677D01*
X120382668Y-101471484D01*
X120348680Y-101486801D01*
X120318128Y-101505948D01*
X120290038Y-101529244D01*
X120281740Y-101537295D01*
X120252158Y-101572673D01*
X120228422Y-101613692D01*
X120210394Y-101660667D01*
X120197940Y-101713912D01*
X120194128Y-101739915D01*
X120193125Y-101752856D01*
X120192236Y-101774283D01*
X120191465Y-101804072D01*
X120190811Y-101842101D01*
X120190278Y-101888246D01*
X120189865Y-101942384D01*
X120189576Y-102004391D01*
X120189410Y-102074144D01*
X120189368Y-102134906D01*
X120189356Y-102491152D01*
X120370170Y-102491152D01*
X120370170Y-102387318D01*
X120390619Y-102404561D01*
X120428414Y-102432266D01*
X120472323Y-102457363D01*
X120519970Y-102478700D01*
X120568983Y-102495127D01*
X120586683Y-102499659D01*
X120619836Y-102506224D01*
X120655765Y-102511318D01*
X120692131Y-102514757D01*
X120726594Y-102516361D01*
X120756815Y-102515948D01*
X120774848Y-102514269D01*
X120807532Y-102509179D01*
X120834008Y-102504032D01*
X120856666Y-102498292D01*
X120877892Y-102491423D01*
X120879807Y-102490734D01*
X120925708Y-102469974D01*
X120967255Y-102442929D01*
X121003639Y-102410430D01*
X121034050Y-102373307D01*
X121057677Y-102332392D01*
X121072442Y-102293118D01*
X121075507Y-102276431D01*
X121077390Y-102253616D01*
X121078116Y-102227070D01*
X121077825Y-102206921D01*
X120893237Y-102206921D01*
X120892936Y-102229082D01*
X120891776Y-102245190D01*
X120889378Y-102257792D01*
X120885360Y-102269432D01*
X120883088Y-102274666D01*
X120867473Y-102299725D01*
X120844969Y-102322686D01*
X120817259Y-102342240D01*
X120786029Y-102357080D01*
X120770470Y-102362094D01*
X120730025Y-102369930D01*
X120685321Y-102373016D01*
X120639310Y-102371312D01*
X120594940Y-102364775D01*
X120593929Y-102364560D01*
X120541956Y-102349362D01*
X120491974Y-102326815D01*
X120445704Y-102297863D01*
X120404867Y-102263450D01*
X120399229Y-102257785D01*
X120370170Y-102227872D01*
X120370170Y-101990471D01*
X120485331Y-101993055D01*
X120541520Y-101994829D01*
X120590248Y-101997571D01*
X120632631Y-102001469D01*
X120669782Y-102006711D01*
X120702816Y-102013487D01*
X120732847Y-102021983D01*
X120760990Y-102032389D01*
X120786438Y-102043942D01*
X120822290Y-102065389D01*
X120850977Y-102091097D01*
X120873127Y-102121670D01*
X120878950Y-102132606D01*
X120885431Y-102146343D01*
X120889587Y-102157594D01*
X120891931Y-102169026D01*
X120892976Y-102183308D01*
X120893235Y-102203108D01*
X120893237Y-102206921D01*
X121077825Y-102206921D01*
X121077713Y-102199190D01*
X121076208Y-102172374D01*
X121073628Y-102149019D01*
X121070650Y-102133830D01*
X121054086Y-102087486D01*
X121030038Y-102045304D01*
X120998602Y-102007366D01*
X120959877Y-101973753D01*
X120913959Y-101944549D01*
X120860947Y-101919835D01*
X120800937Y-101899694D01*
X120788827Y-101896410D01*
X120754424Y-101887928D01*
X120721550Y-101881038D01*
X120688650Y-101875566D01*
X120654164Y-101871338D01*
X120616538Y-101868177D01*
X120574213Y-101865910D01*
X120525633Y-101864362D01*
X120498246Y-101863798D01*
X120370170Y-101861537D01*
X120370302Y-101813641D01*
X120372049Y-101764415D01*
X120377281Y-101722614D01*
X120386435Y-101687615D01*
X120399942Y-101658791D01*
X120418237Y-101635519D01*
X120441754Y-101617173D01*
X120470927Y-101603128D01*
X120506189Y-101592760D01*
X120526431Y-101588725D01*
X120550872Y-101585708D01*
X120580378Y-101583989D01*
X120612691Y-101583517D01*
X120645553Y-101584242D01*
X120676704Y-101586112D01*
X120703886Y-101589077D01*
X120724840Y-101593085D01*
X120725339Y-101593218D01*
X120757022Y-101603970D01*
X120786637Y-101618146D01*
X120811598Y-101634404D01*
X120822048Y-101643398D01*
X120839267Y-101664540D01*
X120853853Y-101690784D01*
X120864109Y-101718675D01*
X120867667Y-101736204D01*
X120870551Y-101759288D01*
X121050373Y-101759288D01*
X121050373Y-101744039D01*
X121048050Y-101718223D01*
X121041570Y-101688041D01*
X121031667Y-101656210D01*
X121019075Y-101625451D01*
X121017441Y-101622009D01*
X120993296Y-101581183D01*
X120962763Y-101545645D01*
X120925768Y-101515366D01*
X120882239Y-101490314D01*
X120832099Y-101470461D01*
X120775276Y-101455777D01*
X120711695Y-101446231D01*
X120641281Y-101441793D01*
X120572509Y-101442125D01*
G36*
X118683281Y-101442163D02*
X118646735Y-101444408D01*
X118612995Y-101447975D01*
X118584811Y-101452745D01*
X118582724Y-101453210D01*
X118523718Y-101470912D01*
X118469036Y-101495889D01*
X118419051Y-101527769D01*
X118374136Y-101566178D01*
X118334664Y-101610743D01*
X118301007Y-101661089D01*
X118273537Y-101716843D01*
X118252629Y-101777632D01*
X118250265Y-101786451D01*
X118242647Y-101817846D01*
X118236988Y-101846532D01*
X118233035Y-101874773D01*
X118230539Y-101904835D01*
X118229247Y-101938980D01*
X118228907Y-101978847D01*
X118230332Y-102037794D01*
X118234722Y-102090284D01*
X118242436Y-102138066D01*
X118253834Y-102182888D01*
X118269273Y-102226500D01*
X118288517Y-102269440D01*
X118319568Y-102323685D01*
X118356301Y-102371484D01*
X118398528Y-102412695D01*
X118446064Y-102447172D01*
X118498722Y-102474772D01*
X118556315Y-102495352D01*
X118592357Y-102504106D01*
X118613619Y-102507630D01*
X118639525Y-102510697D01*
X118667822Y-102513163D01*
X118696257Y-102514888D01*
X118722574Y-102515731D01*
X118744522Y-102515548D01*
X118757915Y-102514503D01*
X118798988Y-102508259D01*
X118833380Y-102501765D01*
X118863015Y-102494489D01*
X118889817Y-102485902D01*
X118915711Y-102475475D01*
X118938309Y-102464835D01*
X118989397Y-102434744D01*
X119035352Y-102397901D01*
X119075866Y-102354687D01*
X119110629Y-102305483D01*
X119139333Y-102250668D01*
X119161670Y-102190624D01*
X119162187Y-102188917D01*
X119170490Y-102159923D01*
X119176873Y-102133721D01*
X119181574Y-102108405D01*
X119184828Y-102082073D01*
X119186872Y-102052818D01*
X119187943Y-102018738D01*
X119188276Y-101978847D01*
X119188248Y-101963978D01*
X119002509Y-101963978D01*
X119002289Y-102002522D01*
X119000747Y-102039460D01*
X118997883Y-102072263D01*
X118995205Y-102090779D01*
X118988031Y-102123926D01*
X118978371Y-102158206D01*
X118967078Y-102191099D01*
X118955005Y-102220084D01*
X118944754Y-102239791D01*
X118916092Y-102280071D01*
X118882482Y-102313470D01*
X118844447Y-102339758D01*
X118802508Y-102358701D01*
X118757187Y-102370069D01*
X118709008Y-102373629D01*
X118658493Y-102369151D01*
X118654598Y-102368480D01*
X118609741Y-102356377D01*
X118569119Y-102336984D01*
X118532901Y-102310601D01*
X118501255Y-102277527D01*
X118474350Y-102238062D01*
X118452354Y-102192506D01*
X118435436Y-102141159D01*
X118423765Y-102084319D01*
X118417509Y-102022287D01*
X118416837Y-101955362D01*
X118417158Y-101946559D01*
X118419494Y-101906269D01*
X118423115Y-101872027D01*
X118428448Y-101841317D01*
X118435920Y-101811618D01*
X118444834Y-101783659D01*
X118463068Y-101738996D01*
X118485116Y-101700663D01*
X118512092Y-101666813D01*
X118520784Y-101657784D01*
X118556170Y-101627861D01*
X118594846Y-101605689D01*
X118637167Y-101591136D01*
X118683488Y-101584072D01*
X118722893Y-101583689D01*
X118772260Y-101589749D01*
X118817197Y-101603151D01*
X118857612Y-101623804D01*
X118893415Y-101651612D01*
X118924515Y-101686482D01*
X118950821Y-101728320D01*
X118972242Y-101777033D01*
X118988686Y-101832527D01*
X118995233Y-101863993D01*
X118998981Y-101892185D01*
X119001407Y-101926356D01*
X119002509Y-101963978D01*
X119188248Y-101963978D01*
X119188212Y-101945358D01*
X119187848Y-101918745D01*
X119187070Y-101897277D01*
X119185762Y-101879222D01*
X119183808Y-101862849D01*
X119181094Y-101846426D01*
X119178583Y-101833495D01*
X119163509Y-101771936D01*
X119144330Y-101717049D01*
X119120466Y-101667655D01*
X119091338Y-101622571D01*
X119056368Y-101580617D01*
X119052821Y-101576857D01*
X119009052Y-101536586D01*
X118961170Y-101503511D01*
X118908766Y-101477431D01*
X118851434Y-101458146D01*
X118788765Y-101445459D01*
X118782266Y-101444556D01*
X118753796Y-101442118D01*
X118719885Y-101441360D01*
X118683281Y-101442163D01*
X118683281Y-101442163D01*
G37*
X118683281Y-101442163D02*
X118646735Y-101444408D01*
X118612995Y-101447975D01*
X118584811Y-101452745D01*
X118582724Y-101453210D01*
X118523718Y-101470912D01*
X118469036Y-101495889D01*
X118419051Y-101527769D01*
X118374136Y-101566178D01*
X118334664Y-101610743D01*
X118301007Y-101661089D01*
X118273537Y-101716843D01*
X118252629Y-101777632D01*
X118250265Y-101786451D01*
X118242647Y-101817846D01*
X118236988Y-101846532D01*
X118233035Y-101874773D01*
X118230539Y-101904835D01*
X118229247Y-101938980D01*
X118228907Y-101978847D01*
X118230332Y-102037794D01*
X118234722Y-102090284D01*
X118242436Y-102138066D01*
X118253834Y-102182888D01*
X118269273Y-102226500D01*
X118288517Y-102269440D01*
X118319568Y-102323685D01*
X118356301Y-102371484D01*
X118398528Y-102412695D01*
X118446064Y-102447172D01*
X118498722Y-102474772D01*
X118556315Y-102495352D01*
X118592357Y-102504106D01*
X118613619Y-102507630D01*
X118639525Y-102510697D01*
X118667822Y-102513163D01*
X118696257Y-102514888D01*
X118722574Y-102515731D01*
X118744522Y-102515548D01*
X118757915Y-102514503D01*
X118798988Y-102508259D01*
X118833380Y-102501765D01*
X118863015Y-102494489D01*
X118889817Y-102485902D01*
X118915711Y-102475475D01*
X118938309Y-102464835D01*
X118989397Y-102434744D01*
X119035352Y-102397901D01*
X119075866Y-102354687D01*
X119110629Y-102305483D01*
X119139333Y-102250668D01*
X119161670Y-102190624D01*
X119162187Y-102188917D01*
X119170490Y-102159923D01*
X119176873Y-102133721D01*
X119181574Y-102108405D01*
X119184828Y-102082073D01*
X119186872Y-102052818D01*
X119187943Y-102018738D01*
X119188276Y-101978847D01*
X119188248Y-101963978D01*
X119002509Y-101963978D01*
X119002289Y-102002522D01*
X119000747Y-102039460D01*
X118997883Y-102072263D01*
X118995205Y-102090779D01*
X118988031Y-102123926D01*
X118978371Y-102158206D01*
X118967078Y-102191099D01*
X118955005Y-102220084D01*
X118944754Y-102239791D01*
X118916092Y-102280071D01*
X118882482Y-102313470D01*
X118844447Y-102339758D01*
X118802508Y-102358701D01*
X118757187Y-102370069D01*
X118709008Y-102373629D01*
X118658493Y-102369151D01*
X118654598Y-102368480D01*
X118609741Y-102356377D01*
X118569119Y-102336984D01*
X118532901Y-102310601D01*
X118501255Y-102277527D01*
X118474350Y-102238062D01*
X118452354Y-102192506D01*
X118435436Y-102141159D01*
X118423765Y-102084319D01*
X118417509Y-102022287D01*
X118416837Y-101955362D01*
X118417158Y-101946559D01*
X118419494Y-101906269D01*
X118423115Y-101872027D01*
X118428448Y-101841317D01*
X118435920Y-101811618D01*
X118444834Y-101783659D01*
X118463068Y-101738996D01*
X118485116Y-101700663D01*
X118512092Y-101666813D01*
X118520784Y-101657784D01*
X118556170Y-101627861D01*
X118594846Y-101605689D01*
X118637167Y-101591136D01*
X118683488Y-101584072D01*
X118722893Y-101583689D01*
X118772260Y-101589749D01*
X118817197Y-101603151D01*
X118857612Y-101623804D01*
X118893415Y-101651612D01*
X118924515Y-101686482D01*
X118950821Y-101728320D01*
X118972242Y-101777033D01*
X118988686Y-101832527D01*
X118995233Y-101863993D01*
X118998981Y-101892185D01*
X119001407Y-101926356D01*
X119002509Y-101963978D01*
X119188248Y-101963978D01*
X119188212Y-101945358D01*
X119187848Y-101918745D01*
X119187070Y-101897277D01*
X119185762Y-101879222D01*
X119183808Y-101862849D01*
X119181094Y-101846426D01*
X119178583Y-101833495D01*
X119163509Y-101771936D01*
X119144330Y-101717049D01*
X119120466Y-101667655D01*
X119091338Y-101622571D01*
X119056368Y-101580617D01*
X119052821Y-101576857D01*
X119009052Y-101536586D01*
X118961170Y-101503511D01*
X118908766Y-101477431D01*
X118851434Y-101458146D01*
X118788765Y-101445459D01*
X118782266Y-101444556D01*
X118753796Y-101442118D01*
X118719885Y-101441360D01*
X118683281Y-101442163D01*
G36*
X116677349Y-101442079D02*
X116642293Y-101443844D01*
X116613500Y-101446699D01*
X116552515Y-101457477D01*
X116498750Y-101472861D01*
X116452091Y-101492948D01*
X116412424Y-101517835D01*
X116379634Y-101547619D01*
X116353607Y-101582397D01*
X116334229Y-101622264D01*
X116321386Y-101667318D01*
X116316650Y-101697940D01*
X116313668Y-101724847D01*
X116495593Y-101724847D01*
X116495593Y-101714131D01*
X116498033Y-101699205D01*
X116504478Y-101680638D01*
X116513613Y-101661558D01*
X116524125Y-101645098D01*
X116525071Y-101643881D01*
X116540740Y-101628939D01*
X116563002Y-101614441D01*
X116589868Y-101601529D01*
X116613983Y-101592909D01*
X116626766Y-101589648D01*
X116641274Y-101587374D01*
X116659282Y-101585939D01*
X116682562Y-101585195D01*
X116708695Y-101584993D01*
X116736061Y-101585114D01*
X116756800Y-101585664D01*
X116772891Y-101586839D01*
X116786314Y-101588837D01*
X116799049Y-101591854D01*
X116809812Y-101595053D01*
X116845328Y-101608079D01*
X116873251Y-101622738D01*
X116894547Y-101639740D01*
X116910184Y-101659794D01*
X116917391Y-101673906D01*
X116922482Y-101687651D01*
X116925136Y-101701055D01*
X116925822Y-101717469D01*
X116925439Y-101731252D01*
X116924284Y-101749862D01*
X116922241Y-101762588D01*
X116918587Y-101772157D01*
X116912601Y-101781294D01*
X116911959Y-101782141D01*
X116904155Y-101790850D01*
X116894062Y-101799091D01*
X116880991Y-101807115D01*
X116864257Y-101815175D01*
X116843174Y-101823523D01*
X116817053Y-101832411D01*
X116785209Y-101842091D01*
X116746955Y-101852814D01*
X116701604Y-101864834D01*
X116652348Y-101877423D01*
X116596646Y-101891858D01*
X116548591Y-101905217D01*
X116507337Y-101917851D01*
X116472040Y-101930116D01*
X116441855Y-101942365D01*
X116415938Y-101954952D01*
X116393444Y-101968230D01*
X116373529Y-101982553D01*
X116355349Y-101998275D01*
X116348874Y-102004536D01*
X116326427Y-102029058D01*
X116309455Y-102053312D01*
X116297190Y-102079172D01*
X116288865Y-102108510D01*
X116283712Y-102143199D01*
X116281767Y-102168348D01*
X116281961Y-102216200D01*
X116288670Y-102260270D01*
X116302338Y-102302888D01*
X116311366Y-102323230D01*
X116329373Y-102353579D01*
X116353716Y-102384320D01*
X116382448Y-102413490D01*
X116413623Y-102439123D01*
X116445296Y-102459254D01*
X116446929Y-102460118D01*
X116503697Y-102485455D01*
X116562580Y-102502894D01*
X116579068Y-102506334D01*
X116602372Y-102509701D01*
X116631801Y-102512326D01*
X116664896Y-102514127D01*
X116699200Y-102515027D01*
X116732253Y-102514945D01*
X116761596Y-102513802D01*
X116775424Y-102512676D01*
X116841233Y-102502987D01*
X116900196Y-102488108D01*
X116952383Y-102467982D01*
X116997865Y-102442547D01*
X117036710Y-102411745D01*
X117068988Y-102375517D01*
X117094770Y-102333803D01*
X117114125Y-102286543D01*
X117127122Y-102233678D01*
X117130652Y-102210191D01*
X117133738Y-102185491D01*
X116953194Y-102185491D01*
X116948128Y-102216169D01*
X116938129Y-102254209D01*
X116921526Y-102286898D01*
X116898219Y-102314330D01*
X116868111Y-102336600D01*
X116831103Y-102353801D01*
X116792493Y-102364877D01*
X116768582Y-102368706D01*
X116739322Y-102371170D01*
X116707183Y-102372268D01*
X116674641Y-102371999D01*
X116644166Y-102370364D01*
X116618233Y-102367362D01*
X116605861Y-102364899D01*
X116565995Y-102351659D01*
X116531783Y-102333392D01*
X116503730Y-102310638D01*
X116482339Y-102283939D01*
X116468118Y-102253835D01*
X116461570Y-102220865D01*
X116461177Y-102210084D01*
X116461982Y-102189253D01*
X116464772Y-102171006D01*
X116470166Y-102154935D01*
X116478785Y-102140628D01*
X116491248Y-102127675D01*
X116508177Y-102115666D01*
X116530190Y-102104192D01*
X116557908Y-102092840D01*
X116591952Y-102081202D01*
X116632941Y-102068867D01*
X116681495Y-102055425D01*
X116704031Y-102049420D01*
X116761743Y-102034013D01*
X116811790Y-102020257D01*
X116854898Y-102007866D01*
X116891793Y-101996555D01*
X116923198Y-101986038D01*
X116949838Y-101976028D01*
X116972440Y-101966240D01*
X116991728Y-101956388D01*
X117008428Y-101946186D01*
X117023263Y-101935348D01*
X117036960Y-101923589D01*
X117046529Y-101914386D01*
X117069709Y-101886686D01*
X117086989Y-101855423D01*
X117098705Y-101819627D01*
X117105190Y-101778329D01*
X117106841Y-101739743D01*
X117103626Y-101691753D01*
X117093555Y-101648498D01*
X117076249Y-101609042D01*
X117051329Y-101572449D01*
X117029456Y-101548339D01*
X116989210Y-101514109D01*
X116943501Y-101486300D01*
X116892114Y-101464798D01*
X116844305Y-101451506D01*
X116819288Y-101447339D01*
X116787905Y-101444267D01*
X116752335Y-101442336D01*
X116714756Y-101441592D01*
X116677349Y-101442079D01*
X116677349Y-101442079D01*
G37*
X116677349Y-101442079D02*
X116642293Y-101443844D01*
X116613500Y-101446699D01*
X116552515Y-101457477D01*
X116498750Y-101472861D01*
X116452091Y-101492948D01*
X116412424Y-101517835D01*
X116379634Y-101547619D01*
X116353607Y-101582397D01*
X116334229Y-101622264D01*
X116321386Y-101667318D01*
X116316650Y-101697940D01*
X116313668Y-101724847D01*
X116495593Y-101724847D01*
X116495593Y-101714131D01*
X116498033Y-101699205D01*
X116504478Y-101680638D01*
X116513613Y-101661558D01*
X116524125Y-101645098D01*
X116525071Y-101643881D01*
X116540740Y-101628939D01*
X116563002Y-101614441D01*
X116589868Y-101601529D01*
X116613983Y-101592909D01*
X116626766Y-101589648D01*
X116641274Y-101587374D01*
X116659282Y-101585939D01*
X116682562Y-101585195D01*
X116708695Y-101584993D01*
X116736061Y-101585114D01*
X116756800Y-101585664D01*
X116772891Y-101586839D01*
X116786314Y-101588837D01*
X116799049Y-101591854D01*
X116809812Y-101595053D01*
X116845328Y-101608079D01*
X116873251Y-101622738D01*
X116894547Y-101639740D01*
X116910184Y-101659794D01*
X116917391Y-101673906D01*
X116922482Y-101687651D01*
X116925136Y-101701055D01*
X116925822Y-101717469D01*
X116925439Y-101731252D01*
X116924284Y-101749862D01*
X116922241Y-101762588D01*
X116918587Y-101772157D01*
X116912601Y-101781294D01*
X116911959Y-101782141D01*
X116904155Y-101790850D01*
X116894062Y-101799091D01*
X116880991Y-101807115D01*
X116864257Y-101815175D01*
X116843174Y-101823523D01*
X116817053Y-101832411D01*
X116785209Y-101842091D01*
X116746955Y-101852814D01*
X116701604Y-101864834D01*
X116652348Y-101877423D01*
X116596646Y-101891858D01*
X116548591Y-101905217D01*
X116507337Y-101917851D01*
X116472040Y-101930116D01*
X116441855Y-101942365D01*
X116415938Y-101954952D01*
X116393444Y-101968230D01*
X116373529Y-101982553D01*
X116355349Y-101998275D01*
X116348874Y-102004536D01*
X116326427Y-102029058D01*
X116309455Y-102053312D01*
X116297190Y-102079172D01*
X116288865Y-102108510D01*
X116283712Y-102143199D01*
X116281767Y-102168348D01*
X116281961Y-102216200D01*
X116288670Y-102260270D01*
X116302338Y-102302888D01*
X116311366Y-102323230D01*
X116329373Y-102353579D01*
X116353716Y-102384320D01*
X116382448Y-102413490D01*
X116413623Y-102439123D01*
X116445296Y-102459254D01*
X116446929Y-102460118D01*
X116503697Y-102485455D01*
X116562580Y-102502894D01*
X116579068Y-102506334D01*
X116602372Y-102509701D01*
X116631801Y-102512326D01*
X116664896Y-102514127D01*
X116699200Y-102515027D01*
X116732253Y-102514945D01*
X116761596Y-102513802D01*
X116775424Y-102512676D01*
X116841233Y-102502987D01*
X116900196Y-102488108D01*
X116952383Y-102467982D01*
X116997865Y-102442547D01*
X117036710Y-102411745D01*
X117068988Y-102375517D01*
X117094770Y-102333803D01*
X117114125Y-102286543D01*
X117127122Y-102233678D01*
X117130652Y-102210191D01*
X117133738Y-102185491D01*
X116953194Y-102185491D01*
X116948128Y-102216169D01*
X116938129Y-102254209D01*
X116921526Y-102286898D01*
X116898219Y-102314330D01*
X116868111Y-102336600D01*
X116831103Y-102353801D01*
X116792493Y-102364877D01*
X116768582Y-102368706D01*
X116739322Y-102371170D01*
X116707183Y-102372268D01*
X116674641Y-102371999D01*
X116644166Y-102370364D01*
X116618233Y-102367362D01*
X116605861Y-102364899D01*
X116565995Y-102351659D01*
X116531783Y-102333392D01*
X116503730Y-102310638D01*
X116482339Y-102283939D01*
X116468118Y-102253835D01*
X116461570Y-102220865D01*
X116461177Y-102210084D01*
X116461982Y-102189253D01*
X116464772Y-102171006D01*
X116470166Y-102154935D01*
X116478785Y-102140628D01*
X116491248Y-102127675D01*
X116508177Y-102115666D01*
X116530190Y-102104192D01*
X116557908Y-102092840D01*
X116591952Y-102081202D01*
X116632941Y-102068867D01*
X116681495Y-102055425D01*
X116704031Y-102049420D01*
X116761743Y-102034013D01*
X116811790Y-102020257D01*
X116854898Y-102007866D01*
X116891793Y-101996555D01*
X116923198Y-101986038D01*
X116949838Y-101976028D01*
X116972440Y-101966240D01*
X116991728Y-101956388D01*
X117008428Y-101946186D01*
X117023263Y-101935348D01*
X117036960Y-101923589D01*
X117046529Y-101914386D01*
X117069709Y-101886686D01*
X117086989Y-101855423D01*
X117098705Y-101819627D01*
X117105190Y-101778329D01*
X117106841Y-101739743D01*
X117103626Y-101691753D01*
X117093555Y-101648498D01*
X117076249Y-101609042D01*
X117051329Y-101572449D01*
X117029456Y-101548339D01*
X116989210Y-101514109D01*
X116943501Y-101486300D01*
X116892114Y-101464798D01*
X116844305Y-101451506D01*
X116819288Y-101447339D01*
X116787905Y-101444267D01*
X116752335Y-101442336D01*
X116714756Y-101441592D01*
X116677349Y-101442079D01*
G36*
X119780373Y-101466542D02*
X119612475Y-101466542D01*
X119612475Y-101604305D01*
X119780373Y-101604305D01*
X119780373Y-101931279D01*
X119780361Y-101994756D01*
X119780306Y-102050234D01*
X119780175Y-102098327D01*
X119779939Y-102139647D01*
X119779565Y-102174805D01*
X119779023Y-102204415D01*
X119778282Y-102229088D01*
X119777310Y-102249436D01*
X119776077Y-102266072D01*
X119774552Y-102279609D01*
X119772703Y-102290658D01*
X119770499Y-102299831D01*
X119767909Y-102307742D01*
X119764903Y-102315001D01*
X119761449Y-102322222D01*
X119760427Y-102324262D01*
X119750089Y-102340416D01*
X119737042Y-102351696D01*
X119719816Y-102358764D01*
X119696938Y-102362277D01*
X119674097Y-102362975D01*
X119653280Y-102362576D01*
X119632867Y-102361632D01*
X119616402Y-102360323D01*
X119612590Y-102359863D01*
X119590949Y-102356887D01*
X119590949Y-102494405D01*
X119624314Y-102499091D01*
X119669243Y-102503867D01*
X119714725Y-102505909D01*
X119757144Y-102505096D01*
X119771763Y-102504008D01*
X119816373Y-102496868D01*
X119854415Y-102484279D01*
X119886081Y-102466127D01*
X119911562Y-102442296D01*
X119931051Y-102412672D01*
X119934040Y-102406492D01*
X119938199Y-102397378D01*
X119941856Y-102388874D01*
X119945047Y-102380386D01*
X119947809Y-102371321D01*
X119950178Y-102361082D01*
X119952191Y-102349077D01*
X119953882Y-102334710D01*
X119955290Y-102317387D01*
X119956450Y-102296514D01*
X119957397Y-102271497D01*
X119958169Y-102241740D01*
X119958802Y-102206650D01*
X119959332Y-102165633D01*
X119959795Y-102118093D01*
X119960228Y-102063436D01*
X119960666Y-102001069D01*
X119960904Y-101965932D01*
X119963339Y-101606457D01*
X120090339Y-101604075D01*
X120090339Y-101466772D01*
X119963339Y-101464390D01*
X119962199Y-101336313D01*
X119961058Y-101208237D01*
X119780373Y-101208237D01*
X119780373Y-101466542D01*
X119780373Y-101466542D01*
G37*
X119780373Y-101466542D02*
X119612475Y-101466542D01*
X119612475Y-101604305D01*
X119780373Y-101604305D01*
X119780373Y-101931279D01*
X119780361Y-101994756D01*
X119780306Y-102050234D01*
X119780175Y-102098327D01*
X119779939Y-102139647D01*
X119779565Y-102174805D01*
X119779023Y-102204415D01*
X119778282Y-102229088D01*
X119777310Y-102249436D01*
X119776077Y-102266072D01*
X119774552Y-102279609D01*
X119772703Y-102290658D01*
X119770499Y-102299831D01*
X119767909Y-102307742D01*
X119764903Y-102315001D01*
X119761449Y-102322222D01*
X119760427Y-102324262D01*
X119750089Y-102340416D01*
X119737042Y-102351696D01*
X119719816Y-102358764D01*
X119696938Y-102362277D01*
X119674097Y-102362975D01*
X119653280Y-102362576D01*
X119632867Y-102361632D01*
X119616402Y-102360323D01*
X119612590Y-102359863D01*
X119590949Y-102356887D01*
X119590949Y-102494405D01*
X119624314Y-102499091D01*
X119669243Y-102503867D01*
X119714725Y-102505909D01*
X119757144Y-102505096D01*
X119771763Y-102504008D01*
X119816373Y-102496868D01*
X119854415Y-102484279D01*
X119886081Y-102466127D01*
X119911562Y-102442296D01*
X119931051Y-102412672D01*
X119934040Y-102406492D01*
X119938199Y-102397378D01*
X119941856Y-102388874D01*
X119945047Y-102380386D01*
X119947809Y-102371321D01*
X119950178Y-102361082D01*
X119952191Y-102349077D01*
X119953882Y-102334710D01*
X119955290Y-102317387D01*
X119956450Y-102296514D01*
X119957397Y-102271497D01*
X119958169Y-102241740D01*
X119958802Y-102206650D01*
X119959332Y-102165633D01*
X119959795Y-102118093D01*
X119960228Y-102063436D01*
X119960666Y-102001069D01*
X119960904Y-101965932D01*
X119963339Y-101606457D01*
X120090339Y-101604075D01*
X120090339Y-101466772D01*
X119963339Y-101464390D01*
X119962199Y-101336313D01*
X119961058Y-101208237D01*
X119780373Y-101208237D01*
X119780373Y-101466542D01*
G36*
X125187559Y-101238373D02*
X126027051Y-101238373D01*
X126027051Y-101673186D01*
X125243525Y-101673186D01*
X125243525Y-101841084D01*
X126027051Y-101841084D01*
X126027051Y-102323254D01*
X125157424Y-102323254D01*
X125157424Y-102491152D01*
X126212170Y-102491152D01*
X126212170Y-101074779D01*
X125187559Y-101074779D01*
X125187559Y-101238373D01*
X125187559Y-101238373D01*
G37*
X125187559Y-101238373D02*
X126027051Y-101238373D01*
X126027051Y-101673186D01*
X125243525Y-101673186D01*
X125243525Y-101841084D01*
X126027051Y-101841084D01*
X126027051Y-102323254D01*
X125157424Y-102323254D01*
X125157424Y-102491152D01*
X126212170Y-102491152D01*
X126212170Y-101074779D01*
X125187559Y-101074779D01*
X125187559Y-101238373D01*
G36*
X124737416Y-101643051D02*
X124715241Y-101678162D01*
X124694418Y-101710949D01*
X124675402Y-101740710D01*
X124658647Y-101766742D01*
X124644608Y-101788343D01*
X124633739Y-101804811D01*
X124626493Y-101815442D01*
X124623326Y-101819535D01*
X124623262Y-101819559D01*
X124620452Y-101816023D01*
X124613539Y-101805885D01*
X124602977Y-101789848D01*
X124589219Y-101768615D01*
X124572718Y-101742891D01*
X124553927Y-101713379D01*
X124533299Y-101680782D01*
X124511288Y-101645804D01*
X124509561Y-101643051D01*
X124398834Y-101466542D01*
X124287349Y-101466542D01*
X124257384Y-101466637D01*
X124230464Y-101466906D01*
X124207723Y-101467322D01*
X124190293Y-101467858D01*
X124179307Y-101468489D01*
X124175864Y-101469125D01*
X124178293Y-101472979D01*
X124185312Y-101483276D01*
X124196518Y-101499443D01*
X124211510Y-101520909D01*
X124229886Y-101547101D01*
X124251244Y-101577447D01*
X124275181Y-101611374D01*
X124301296Y-101648310D01*
X124329186Y-101687683D01*
X124348295Y-101714619D01*
X124520727Y-101957529D01*
X124383954Y-102150078D01*
X124356202Y-102189147D01*
X124328272Y-102228465D01*
X124300878Y-102267027D01*
X124274734Y-102303828D01*
X124250555Y-102337861D01*
X124229055Y-102368121D01*
X124210949Y-102393603D01*
X124196951Y-102413301D01*
X124194400Y-102416890D01*
X124141618Y-102491152D01*
X124254530Y-102491098D01*
X124367441Y-102491044D01*
X124494441Y-102290966D01*
X124518216Y-102253573D01*
X124540619Y-102218460D01*
X124561226Y-102186283D01*
X124579613Y-102157698D01*
X124595356Y-102133361D01*
X124608031Y-102113929D01*
X124617214Y-102100057D01*
X124622481Y-102092402D01*
X124623593Y-102091066D01*
X124626229Y-102094634D01*
X124633024Y-102104829D01*
X124643555Y-102120991D01*
X124657398Y-102142456D01*
X124674129Y-102168566D01*
X124693323Y-102198657D01*
X124714556Y-102232070D01*
X124737404Y-102268143D01*
X124751292Y-102290122D01*
X124876838Y-102489000D01*
X125101970Y-102491296D01*
X125089314Y-102472928D01*
X125084738Y-102466382D01*
X125075621Y-102453428D01*
X125062401Y-102434682D01*
X125045514Y-102410763D01*
X125025395Y-102382288D01*
X125002482Y-102349875D01*
X124977211Y-102314140D01*
X124950017Y-102275702D01*
X124921338Y-102235178D01*
X124901621Y-102207324D01*
X124872602Y-102166213D01*
X124845148Y-102127078D01*
X124819653Y-102090497D01*
X124796510Y-102057044D01*
X124776113Y-102027297D01*
X124758854Y-102001831D01*
X124745128Y-101981222D01*
X124735328Y-101966047D01*
X124729847Y-101956881D01*
X124728801Y-101954312D01*
X124731613Y-101949898D01*
X124738999Y-101939061D01*
X124750546Y-101922391D01*
X124765837Y-101900481D01*
X124784458Y-101873922D01*
X124805992Y-101843308D01*
X124830024Y-101809229D01*
X124856139Y-101772277D01*
X124883922Y-101733045D01*
X124898195Y-101712919D01*
X124926669Y-101672778D01*
X124953708Y-101634634D01*
X124978895Y-101599080D01*
X125001813Y-101566706D01*
X125022043Y-101538104D01*
X125039166Y-101513865D01*
X125052766Y-101494579D01*
X125062423Y-101480839D01*
X125067721Y-101473235D01*
X125068601Y-101471923D01*
X125067935Y-101470233D01*
X125063150Y-101468915D01*
X125053465Y-101467930D01*
X125038099Y-101467240D01*
X125016270Y-101466805D01*
X124987199Y-101466587D01*
X124960213Y-101466542D01*
X124848596Y-101466542D01*
X124737416Y-101643051D01*
X124737416Y-101643051D01*
G37*
X124737416Y-101643051D02*
X124715241Y-101678162D01*
X124694418Y-101710949D01*
X124675402Y-101740710D01*
X124658647Y-101766742D01*
X124644608Y-101788343D01*
X124633739Y-101804811D01*
X124626493Y-101815442D01*
X124623326Y-101819535D01*
X124623262Y-101819559D01*
X124620452Y-101816023D01*
X124613539Y-101805885D01*
X124602977Y-101789848D01*
X124589219Y-101768615D01*
X124572718Y-101742891D01*
X124553927Y-101713379D01*
X124533299Y-101680782D01*
X124511288Y-101645804D01*
X124509561Y-101643051D01*
X124398834Y-101466542D01*
X124287349Y-101466542D01*
X124257384Y-101466637D01*
X124230464Y-101466906D01*
X124207723Y-101467322D01*
X124190293Y-101467858D01*
X124179307Y-101468489D01*
X124175864Y-101469125D01*
X124178293Y-101472979D01*
X124185312Y-101483276D01*
X124196518Y-101499443D01*
X124211510Y-101520909D01*
X124229886Y-101547101D01*
X124251244Y-101577447D01*
X124275181Y-101611374D01*
X124301296Y-101648310D01*
X124329186Y-101687683D01*
X124348295Y-101714619D01*
X124520727Y-101957529D01*
X124383954Y-102150078D01*
X124356202Y-102189147D01*
X124328272Y-102228465D01*
X124300878Y-102267027D01*
X124274734Y-102303828D01*
X124250555Y-102337861D01*
X124229055Y-102368121D01*
X124210949Y-102393603D01*
X124196951Y-102413301D01*
X124194400Y-102416890D01*
X124141618Y-102491152D01*
X124254530Y-102491098D01*
X124367441Y-102491044D01*
X124494441Y-102290966D01*
X124518216Y-102253573D01*
X124540619Y-102218460D01*
X124561226Y-102186283D01*
X124579613Y-102157698D01*
X124595356Y-102133361D01*
X124608031Y-102113929D01*
X124617214Y-102100057D01*
X124622481Y-102092402D01*
X124623593Y-102091066D01*
X124626229Y-102094634D01*
X124633024Y-102104829D01*
X124643555Y-102120991D01*
X124657398Y-102142456D01*
X124674129Y-102168566D01*
X124693323Y-102198657D01*
X124714556Y-102232070D01*
X124737404Y-102268143D01*
X124751292Y-102290122D01*
X124876838Y-102489000D01*
X125101970Y-102491296D01*
X125089314Y-102472928D01*
X125084738Y-102466382D01*
X125075621Y-102453428D01*
X125062401Y-102434682D01*
X125045514Y-102410763D01*
X125025395Y-102382288D01*
X125002482Y-102349875D01*
X124977211Y-102314140D01*
X124950017Y-102275702D01*
X124921338Y-102235178D01*
X124901621Y-102207324D01*
X124872602Y-102166213D01*
X124845148Y-102127078D01*
X124819653Y-102090497D01*
X124796510Y-102057044D01*
X124776113Y-102027297D01*
X124758854Y-102001831D01*
X124745128Y-101981222D01*
X124735328Y-101966047D01*
X124729847Y-101956881D01*
X124728801Y-101954312D01*
X124731613Y-101949898D01*
X124738999Y-101939061D01*
X124750546Y-101922391D01*
X124765837Y-101900481D01*
X124784458Y-101873922D01*
X124805992Y-101843308D01*
X124830024Y-101809229D01*
X124856139Y-101772277D01*
X124883922Y-101733045D01*
X124898195Y-101712919D01*
X124926669Y-101672778D01*
X124953708Y-101634634D01*
X124978895Y-101599080D01*
X125001813Y-101566706D01*
X125022043Y-101538104D01*
X125039166Y-101513865D01*
X125052766Y-101494579D01*
X125062423Y-101480839D01*
X125067721Y-101473235D01*
X125068601Y-101471923D01*
X125067935Y-101470233D01*
X125063150Y-101468915D01*
X125053465Y-101467930D01*
X125038099Y-101467240D01*
X125016270Y-101466805D01*
X124987199Y-101466587D01*
X124960213Y-101466542D01*
X124848596Y-101466542D01*
X124737416Y-101643051D01*
G36*
X122845593Y-102491152D02*
X123026407Y-102491152D01*
X123026407Y-101074779D01*
X122845593Y-101074779D01*
X122845593Y-102491152D01*
X122845593Y-102491152D01*
G37*
X122845593Y-102491152D02*
X123026407Y-102491152D01*
X123026407Y-101074779D01*
X122845593Y-101074779D01*
X122845593Y-102491152D01*
G36*
X121131621Y-101443122D02*
X121112219Y-101443731D01*
X121097341Y-101444633D01*
X121088837Y-101445739D01*
X121088042Y-101445986D01*
X121085527Y-101447675D01*
X121083639Y-101451150D01*
X121082290Y-101457517D01*
X121081390Y-101467879D01*
X121080853Y-101483340D01*
X121080589Y-101505004D01*
X121080510Y-101533975D01*
X121080509Y-101540054D01*
X121080557Y-101570300D01*
X121080760Y-101592963D01*
X121081200Y-101609073D01*
X121081960Y-101619657D01*
X121083126Y-101625742D01*
X121084780Y-101628357D01*
X121087006Y-101628530D01*
X121087696Y-101628299D01*
X121101464Y-101624714D01*
X121121332Y-101621694D01*
X121144795Y-101619458D01*
X121169348Y-101618225D01*
X121192486Y-101618215D01*
X121199294Y-101618513D01*
X121246264Y-101625351D01*
X121290596Y-101640346D01*
X121332323Y-101663520D01*
X121371480Y-101694891D01*
X121408101Y-101734479D01*
X121414687Y-101742817D01*
X121433525Y-101767244D01*
X121433525Y-102491152D01*
X121610034Y-102491152D01*
X121610034Y-101466542D01*
X121433525Y-101466542D01*
X121433525Y-101535423D01*
X121433335Y-101558664D01*
X121432809Y-101578535D01*
X121432014Y-101593600D01*
X121431018Y-101602424D01*
X121430297Y-101604132D01*
X121426363Y-101600827D01*
X121418911Y-101592247D01*
X121409428Y-101580125D01*
X121407695Y-101577802D01*
X121387851Y-101553919D01*
X121363582Y-101529158D01*
X121337411Y-101505837D01*
X121311860Y-101486273D01*
X121299137Y-101478045D01*
X121272704Y-101463841D01*
X121247243Y-101453791D01*
X121220405Y-101447329D01*
X121189838Y-101443886D01*
X121153695Y-101442892D01*
X121131621Y-101443122D01*
X121131621Y-101443122D01*
G37*
X121131621Y-101443122D02*
X121112219Y-101443731D01*
X121097341Y-101444633D01*
X121088837Y-101445739D01*
X121088042Y-101445986D01*
X121085527Y-101447675D01*
X121083639Y-101451150D01*
X121082290Y-101457517D01*
X121081390Y-101467879D01*
X121080853Y-101483340D01*
X121080589Y-101505004D01*
X121080510Y-101533975D01*
X121080509Y-101540054D01*
X121080557Y-101570300D01*
X121080760Y-101592963D01*
X121081200Y-101609073D01*
X121081960Y-101619657D01*
X121083126Y-101625742D01*
X121084780Y-101628357D01*
X121087006Y-101628530D01*
X121087696Y-101628299D01*
X121101464Y-101624714D01*
X121121332Y-101621694D01*
X121144795Y-101619458D01*
X121169348Y-101618225D01*
X121192486Y-101618215D01*
X121199294Y-101618513D01*
X121246264Y-101625351D01*
X121290596Y-101640346D01*
X121332323Y-101663520D01*
X121371480Y-101694891D01*
X121408101Y-101734479D01*
X121414687Y-101742817D01*
X121433525Y-101767244D01*
X121433525Y-102491152D01*
X121610034Y-102491152D01*
X121610034Y-101466542D01*
X121433525Y-101466542D01*
X121433525Y-101535423D01*
X121433335Y-101558664D01*
X121432809Y-101578535D01*
X121432014Y-101593600D01*
X121431018Y-101602424D01*
X121430297Y-101604132D01*
X121426363Y-101600827D01*
X121418911Y-101592247D01*
X121409428Y-101580125D01*
X121407695Y-101577802D01*
X121387851Y-101553919D01*
X121363582Y-101529158D01*
X121337411Y-101505837D01*
X121311860Y-101486273D01*
X121299137Y-101478045D01*
X121272704Y-101463841D01*
X121247243Y-101453791D01*
X121220405Y-101447329D01*
X121189838Y-101443886D01*
X121153695Y-101442892D01*
X121131621Y-101443122D01*
G36*
X119328339Y-102491152D02*
X119504847Y-102491152D01*
X119504847Y-101466542D01*
X119328339Y-101466542D01*
X119328339Y-102491152D01*
X119328339Y-102491152D01*
G37*
X119328339Y-102491152D02*
X119504847Y-102491152D01*
X119504847Y-101466542D01*
X119328339Y-101466542D01*
X119328339Y-102491152D01*
G36*
X117591237Y-101443244D02*
X117561801Y-101443579D01*
X117539014Y-101444355D01*
X117520919Y-101445748D01*
X117505560Y-101447937D01*
X117490980Y-101451099D01*
X117483860Y-101452966D01*
X117434771Y-101470330D01*
X117391571Y-101493973D01*
X117354291Y-101523866D01*
X117322963Y-101559980D01*
X117297618Y-101602283D01*
X117279378Y-101647356D01*
X117275721Y-101658785D01*
X117272499Y-101669713D01*
X117269683Y-101680739D01*
X117267247Y-101692460D01*
X117265162Y-101705474D01*
X117263402Y-101720379D01*
X117261939Y-101737773D01*
X117260745Y-101758254D01*
X117259794Y-101782420D01*
X117259058Y-101810869D01*
X117258508Y-101844200D01*
X117258119Y-101883008D01*
X117257862Y-101927894D01*
X117257710Y-101979455D01*
X117257636Y-102038288D01*
X117257612Y-102104992D01*
X117257611Y-102121991D01*
X117257593Y-102491152D01*
X117438407Y-102491152D01*
X117438557Y-102132754D01*
X117438597Y-102064960D01*
X117438676Y-102005192D01*
X117438828Y-101952864D01*
X117439084Y-101907390D01*
X117439476Y-101868187D01*
X117440036Y-101834668D01*
X117440795Y-101806248D01*
X117441786Y-101782344D01*
X117443040Y-101762369D01*
X117444590Y-101745738D01*
X117446468Y-101731866D01*
X117448704Y-101720169D01*
X117451332Y-101710061D01*
X117454383Y-101700957D01*
X117457889Y-101692272D01*
X117461881Y-101683421D01*
X117463219Y-101680561D01*
X117471544Y-101664442D01*
X117480515Y-101649525D01*
X117487007Y-101640539D01*
X117500825Y-101628206D01*
X117520318Y-101615941D01*
X117542668Y-101605233D01*
X117565058Y-101597570D01*
X117571000Y-101596163D01*
X117597919Y-101592546D01*
X117628440Y-101591625D01*
X117658694Y-101593340D01*
X117684809Y-101597630D01*
X117686121Y-101597959D01*
X117726385Y-101611836D01*
X117768126Y-101632849D01*
X117809858Y-101660052D01*
X117850097Y-101692494D01*
X117880978Y-101722386D01*
X117911966Y-101755009D01*
X117911966Y-102491152D01*
X118092780Y-102491152D01*
X118092780Y-101466542D01*
X117911966Y-101466542D01*
X117911966Y-101528966D01*
X117911811Y-101551036D01*
X117911384Y-101569680D01*
X117910743Y-101583384D01*
X117909946Y-101590633D01*
X117909574Y-101591390D01*
X117905690Y-101588541D01*
X117897234Y-101580895D01*
X117885663Y-101569795D01*
X117878499Y-101562705D01*
X117832063Y-101521719D01*
X117782736Y-101488685D01*
X117730725Y-101463730D01*
X117697941Y-101452579D01*
X117684151Y-101448881D01*
X117671144Y-101446262D01*
X117657014Y-101444557D01*
X117639853Y-101443599D01*
X117617757Y-101443222D01*
X117591237Y-101443244D01*
X117591237Y-101443244D01*
G37*
X117591237Y-101443244D02*
X117561801Y-101443579D01*
X117539014Y-101444355D01*
X117520919Y-101445748D01*
X117505560Y-101447937D01*
X117490980Y-101451099D01*
X117483860Y-101452966D01*
X117434771Y-101470330D01*
X117391571Y-101493973D01*
X117354291Y-101523866D01*
X117322963Y-101559980D01*
X117297618Y-101602283D01*
X117279378Y-101647356D01*
X117275721Y-101658785D01*
X117272499Y-101669713D01*
X117269683Y-101680739D01*
X117267247Y-101692460D01*
X117265162Y-101705474D01*
X117263402Y-101720379D01*
X117261939Y-101737773D01*
X117260745Y-101758254D01*
X117259794Y-101782420D01*
X117259058Y-101810869D01*
X117258508Y-101844200D01*
X117258119Y-101883008D01*
X117257862Y-101927894D01*
X117257710Y-101979455D01*
X117257636Y-102038288D01*
X117257612Y-102104992D01*
X117257611Y-102121991D01*
X117257593Y-102491152D01*
X117438407Y-102491152D01*
X117438557Y-102132754D01*
X117438597Y-102064960D01*
X117438676Y-102005192D01*
X117438828Y-101952864D01*
X117439084Y-101907390D01*
X117439476Y-101868187D01*
X117440036Y-101834668D01*
X117440795Y-101806248D01*
X117441786Y-101782344D01*
X117443040Y-101762369D01*
X117444590Y-101745738D01*
X117446468Y-101731866D01*
X117448704Y-101720169D01*
X117451332Y-101710061D01*
X117454383Y-101700957D01*
X117457889Y-101692272D01*
X117461881Y-101683421D01*
X117463219Y-101680561D01*
X117471544Y-101664442D01*
X117480515Y-101649525D01*
X117487007Y-101640539D01*
X117500825Y-101628206D01*
X117520318Y-101615941D01*
X117542668Y-101605233D01*
X117565058Y-101597570D01*
X117571000Y-101596163D01*
X117597919Y-101592546D01*
X117628440Y-101591625D01*
X117658694Y-101593340D01*
X117684809Y-101597630D01*
X117686121Y-101597959D01*
X117726385Y-101611836D01*
X117768126Y-101632849D01*
X117809858Y-101660052D01*
X117850097Y-101692494D01*
X117880978Y-101722386D01*
X117911966Y-101755009D01*
X117911966Y-102491152D01*
X118092780Y-102491152D01*
X118092780Y-101466542D01*
X117911966Y-101466542D01*
X117911966Y-101528966D01*
X117911811Y-101551036D01*
X117911384Y-101569680D01*
X117910743Y-101583384D01*
X117909946Y-101590633D01*
X117909574Y-101591390D01*
X117905690Y-101588541D01*
X117897234Y-101580895D01*
X117885663Y-101569795D01*
X117878499Y-101562705D01*
X117832063Y-101521719D01*
X117782736Y-101488685D01*
X117730725Y-101463730D01*
X117697941Y-101452579D01*
X117684151Y-101448881D01*
X117671144Y-101446262D01*
X117657014Y-101444557D01*
X117639853Y-101443599D01*
X117617757Y-101443222D01*
X117591237Y-101443244D01*
G36*
X119328339Y-101268508D02*
X119504847Y-101268508D01*
X119504847Y-101074779D01*
X119328339Y-101074779D01*
X119328339Y-101268508D01*
X119328339Y-101268508D01*
G37*
X119328339Y-101268508D02*
X119504847Y-101268508D01*
X119504847Y-101074779D01*
X119328339Y-101074779D01*
X119328339Y-101268508D01*
G36*
X124929825Y-99916251D02*
X124875721Y-99927295D01*
X124818926Y-99946034D01*
X124766070Y-99972227D01*
X124717667Y-100005428D01*
X124674233Y-100045190D01*
X124636285Y-100091066D01*
X124604337Y-100142609D01*
X124588135Y-100176368D01*
X124570733Y-100221456D01*
X124557464Y-100267213D01*
X124547930Y-100315593D01*
X124541734Y-100368546D01*
X124538770Y-100419330D01*
X124536218Y-100489288D01*
X124924312Y-100489288D01*
X124990501Y-100489332D01*
X125051608Y-100489460D01*
X125107253Y-100489669D01*
X125157058Y-100489955D01*
X125200643Y-100490314D01*
X125237629Y-100490742D01*
X125267638Y-100491236D01*
X125290289Y-100491790D01*
X125305205Y-100492402D01*
X125312006Y-100493068D01*
X125312407Y-100493281D01*
X125311858Y-100499196D01*
X125310404Y-100511273D01*
X125308333Y-100527147D01*
X125307819Y-100530951D01*
X125298504Y-100582530D01*
X125284904Y-100629445D01*
X125266051Y-100674975D01*
X125264260Y-100678712D01*
X125252902Y-100701108D01*
X125242473Y-100718503D01*
X125230815Y-100733934D01*
X125215772Y-100750436D01*
X125207043Y-100759303D01*
X125171390Y-100790317D01*
X125133608Y-100813703D01*
X125092798Y-100829794D01*
X125048057Y-100838921D01*
X124998485Y-100841417D01*
X124985220Y-100841043D01*
X124936731Y-100835828D01*
X124892288Y-100824718D01*
X124852506Y-100808132D01*
X124817998Y-100786486D01*
X124789378Y-100760199D01*
X124767259Y-100729687D01*
X124752255Y-100695369D01*
X124748194Y-100679788D01*
X124743422Y-100657186D01*
X124555887Y-100657186D01*
X124559904Y-100679284D01*
X124565559Y-100702729D01*
X124574168Y-100729515D01*
X124584397Y-100755944D01*
X124594911Y-100778316D01*
X124596963Y-100782034D01*
X124628537Y-100828895D01*
X124666220Y-100869829D01*
X124709755Y-100904711D01*
X124758889Y-100933413D01*
X124813365Y-100955809D01*
X124872929Y-100971773D01*
X124937326Y-100981179D01*
X125004593Y-100983914D01*
X125030019Y-100983332D01*
X125055647Y-100982054D01*
X125078618Y-100980261D01*
X125096072Y-100978140D01*
X125097153Y-100977960D01*
X125162538Y-100962896D01*
X125222622Y-100941078D01*
X125277283Y-100912632D01*
X125326396Y-100877685D01*
X125369839Y-100836363D01*
X125407488Y-100788791D01*
X125439221Y-100735095D01*
X125464914Y-100675401D01*
X125484444Y-100609835D01*
X125491987Y-100574199D01*
X125495526Y-100548196D01*
X125497978Y-100515847D01*
X125499347Y-100479349D01*
X125499636Y-100440897D01*
X125498848Y-100402686D01*
X125496986Y-100366913D01*
X125495132Y-100347220D01*
X125308102Y-100347220D01*
X124730111Y-100347220D01*
X124733023Y-100325269D01*
X124738360Y-100298450D01*
X124747401Y-100267446D01*
X124759128Y-100235274D01*
X124772526Y-100204950D01*
X124775665Y-100198695D01*
X124800039Y-100160261D01*
X124830782Y-100126270D01*
X124866640Y-100097661D01*
X124906355Y-100075371D01*
X124948671Y-100060340D01*
X124965852Y-100056604D01*
X124994593Y-100052296D01*
X125019200Y-100050819D01*
X125043673Y-100052170D01*
X125072009Y-100056347D01*
X125072979Y-100056519D01*
X125118139Y-100068815D01*
X125159784Y-100088763D01*
X125197404Y-100115946D01*
X125230488Y-100149947D01*
X125258526Y-100190349D01*
X125274292Y-100220922D01*
X125280950Y-100237364D01*
X125288048Y-100257758D01*
X125294939Y-100279868D01*
X125300974Y-100301457D01*
X125305506Y-100320290D01*
X125307886Y-100334130D01*
X125308091Y-100337534D01*
X125308102Y-100347220D01*
X125495132Y-100347220D01*
X125494054Y-100335773D01*
X125491608Y-100319237D01*
X125476046Y-100252744D01*
X125454078Y-100190971D01*
X125425984Y-100134318D01*
X125392041Y-100083183D01*
X125352526Y-100037964D01*
X125307718Y-99999061D01*
X125257895Y-99966872D01*
X125239287Y-99957249D01*
X125183033Y-99934574D01*
X125122908Y-99919051D01*
X125059964Y-99910764D01*
X124995252Y-99909802D01*
X124929825Y-99916251D01*
X124929825Y-99916251D01*
G37*
X124929825Y-99916251D02*
X124875721Y-99927295D01*
X124818926Y-99946034D01*
X124766070Y-99972227D01*
X124717667Y-100005428D01*
X124674233Y-100045190D01*
X124636285Y-100091066D01*
X124604337Y-100142609D01*
X124588135Y-100176368D01*
X124570733Y-100221456D01*
X124557464Y-100267213D01*
X124547930Y-100315593D01*
X124541734Y-100368546D01*
X124538770Y-100419330D01*
X124536218Y-100489288D01*
X124924312Y-100489288D01*
X124990501Y-100489332D01*
X125051608Y-100489460D01*
X125107253Y-100489669D01*
X125157058Y-100489955D01*
X125200643Y-100490314D01*
X125237629Y-100490742D01*
X125267638Y-100491236D01*
X125290289Y-100491790D01*
X125305205Y-100492402D01*
X125312006Y-100493068D01*
X125312407Y-100493281D01*
X125311858Y-100499196D01*
X125310404Y-100511273D01*
X125308333Y-100527147D01*
X125307819Y-100530951D01*
X125298504Y-100582530D01*
X125284904Y-100629445D01*
X125266051Y-100674975D01*
X125264260Y-100678712D01*
X125252902Y-100701108D01*
X125242473Y-100718503D01*
X125230815Y-100733934D01*
X125215772Y-100750436D01*
X125207043Y-100759303D01*
X125171390Y-100790317D01*
X125133608Y-100813703D01*
X125092798Y-100829794D01*
X125048057Y-100838921D01*
X124998485Y-100841417D01*
X124985220Y-100841043D01*
X124936731Y-100835828D01*
X124892288Y-100824718D01*
X124852506Y-100808132D01*
X124817998Y-100786486D01*
X124789378Y-100760199D01*
X124767259Y-100729687D01*
X124752255Y-100695369D01*
X124748194Y-100679788D01*
X124743422Y-100657186D01*
X124555887Y-100657186D01*
X124559904Y-100679284D01*
X124565559Y-100702729D01*
X124574168Y-100729515D01*
X124584397Y-100755944D01*
X124594911Y-100778316D01*
X124596963Y-100782034D01*
X124628537Y-100828895D01*
X124666220Y-100869829D01*
X124709755Y-100904711D01*
X124758889Y-100933413D01*
X124813365Y-100955809D01*
X124872929Y-100971773D01*
X124937326Y-100981179D01*
X125004593Y-100983914D01*
X125030019Y-100983332D01*
X125055647Y-100982054D01*
X125078618Y-100980261D01*
X125096072Y-100978140D01*
X125097153Y-100977960D01*
X125162538Y-100962896D01*
X125222622Y-100941078D01*
X125277283Y-100912632D01*
X125326396Y-100877685D01*
X125369839Y-100836363D01*
X125407488Y-100788791D01*
X125439221Y-100735095D01*
X125464914Y-100675401D01*
X125484444Y-100609835D01*
X125491987Y-100574199D01*
X125495526Y-100548196D01*
X125497978Y-100515847D01*
X125499347Y-100479349D01*
X125499636Y-100440897D01*
X125498848Y-100402686D01*
X125496986Y-100366913D01*
X125495132Y-100347220D01*
X125308102Y-100347220D01*
X124730111Y-100347220D01*
X124733023Y-100325269D01*
X124738360Y-100298450D01*
X124747401Y-100267446D01*
X124759128Y-100235274D01*
X124772526Y-100204950D01*
X124775665Y-100198695D01*
X124800039Y-100160261D01*
X124830782Y-100126270D01*
X124866640Y-100097661D01*
X124906355Y-100075371D01*
X124948671Y-100060340D01*
X124965852Y-100056604D01*
X124994593Y-100052296D01*
X125019200Y-100050819D01*
X125043673Y-100052170D01*
X125072009Y-100056347D01*
X125072979Y-100056519D01*
X125118139Y-100068815D01*
X125159784Y-100088763D01*
X125197404Y-100115946D01*
X125230488Y-100149947D01*
X125258526Y-100190349D01*
X125274292Y-100220922D01*
X125280950Y-100237364D01*
X125288048Y-100257758D01*
X125294939Y-100279868D01*
X125300974Y-100301457D01*
X125305506Y-100320290D01*
X125307886Y-100334130D01*
X125308091Y-100337534D01*
X125308102Y-100347220D01*
X125495132Y-100347220D01*
X125494054Y-100335773D01*
X125491608Y-100319237D01*
X125476046Y-100252744D01*
X125454078Y-100190971D01*
X125425984Y-100134318D01*
X125392041Y-100083183D01*
X125352526Y-100037964D01*
X125307718Y-99999061D01*
X125257895Y-99966872D01*
X125239287Y-99957249D01*
X125183033Y-99934574D01*
X125122908Y-99919051D01*
X125059964Y-99910764D01*
X124995252Y-99909802D01*
X124929825Y-99916251D01*
G36*
X123955053Y-99911363D02*
X123921823Y-99913266D01*
X123893128Y-99916366D01*
X123881515Y-99918314D01*
X123823248Y-99933579D01*
X123770243Y-99955380D01*
X123722779Y-99983461D01*
X123681134Y-100017569D01*
X123645587Y-100057449D01*
X123616416Y-100102845D01*
X123593900Y-100153503D01*
X123582242Y-100191980D01*
X123578116Y-100209092D01*
X123574969Y-100223324D01*
X123573297Y-100232376D01*
X123573153Y-100233955D01*
X123574823Y-100235888D01*
X123580441Y-100237350D01*
X123590915Y-100238395D01*
X123607153Y-100239080D01*
X123630063Y-100239460D01*
X123660554Y-100239591D01*
X123665152Y-100239593D01*
X123757151Y-100239593D01*
X123762401Y-100212686D01*
X123770508Y-100184834D01*
X123783373Y-100156489D01*
X123799383Y-100130674D01*
X123816923Y-100110409D01*
X123817142Y-100110207D01*
X123842207Y-100091627D01*
X123873417Y-100075561D01*
X123908476Y-100062818D01*
X123945090Y-100054209D01*
X123980963Y-100050543D01*
X123986441Y-100050470D01*
X124023977Y-100053618D01*
X124063472Y-100062481D01*
X124101342Y-100076187D01*
X124111284Y-100080831D01*
X124150216Y-100104826D01*
X124184293Y-100135861D01*
X124213440Y-100173818D01*
X124237586Y-100218577D01*
X124256655Y-100270018D01*
X124270575Y-100328022D01*
X124273335Y-100344116D01*
X124276505Y-100372189D01*
X124278292Y-100405905D01*
X124278756Y-100443029D01*
X124277956Y-100481327D01*
X124275951Y-100518562D01*
X124272801Y-100552500D01*
X124268564Y-100580905D01*
X124266833Y-100589141D01*
X124251280Y-100642316D01*
X124230726Y-100690117D01*
X124205545Y-100731987D01*
X124176108Y-100767367D01*
X124142787Y-100795700D01*
X124119457Y-100809950D01*
X124077069Y-100827695D01*
X124031844Y-100838408D01*
X123985366Y-100842065D01*
X123939216Y-100838638D01*
X123894976Y-100828102D01*
X123861286Y-100814166D01*
X123829537Y-100793414D01*
X123802344Y-100766261D01*
X123780835Y-100734202D01*
X123766137Y-100698735D01*
X123762150Y-100682598D01*
X123757151Y-100657186D01*
X123665152Y-100657186D01*
X123633185Y-100657302D01*
X123608990Y-100657684D01*
X123591731Y-100658379D01*
X123580572Y-100659437D01*
X123574678Y-100660907D01*
X123573183Y-100662568D01*
X123574869Y-100676090D01*
X123579340Y-100695191D01*
X123585878Y-100717579D01*
X123593768Y-100740966D01*
X123602294Y-100763063D01*
X123609881Y-100779881D01*
X123638237Y-100827737D01*
X123672490Y-100869399D01*
X123712461Y-100904768D01*
X123757968Y-100933747D01*
X123808829Y-100956238D01*
X123864862Y-100972143D01*
X123925888Y-100981366D01*
X123988276Y-100983848D01*
X124012282Y-100983347D01*
X124035825Y-100982373D01*
X124056171Y-100981067D01*
X124070390Y-100979600D01*
X124131988Y-100966598D01*
X124189626Y-100946125D01*
X124242897Y-100918551D01*
X124291392Y-100884248D01*
X124334705Y-100843588D01*
X124372427Y-100796942D01*
X124404151Y-100744682D01*
X124429468Y-100687179D01*
X124444582Y-100638634D01*
X124452232Y-100607195D01*
X124457911Y-100578664D01*
X124461873Y-100550762D01*
X124464372Y-100521208D01*
X124465661Y-100487724D01*
X124465994Y-100448030D01*
X124465991Y-100446237D01*
X124464505Y-100387100D01*
X124460066Y-100334462D01*
X124452323Y-100286613D01*
X124440924Y-100241843D01*
X124425518Y-100198443D01*
X124406218Y-100155644D01*
X124375068Y-100101827D01*
X124337966Y-100054167D01*
X124295166Y-100012849D01*
X124246919Y-99978059D01*
X124193478Y-99949984D01*
X124135096Y-99928809D01*
X124081153Y-99916263D01*
X124055867Y-99913108D01*
X124024683Y-99911257D01*
X123990209Y-99910685D01*
X123955053Y-99911363D01*
X123955053Y-99911363D01*
G37*
X123955053Y-99911363D02*
X123921823Y-99913266D01*
X123893128Y-99916366D01*
X123881515Y-99918314D01*
X123823248Y-99933579D01*
X123770243Y-99955380D01*
X123722779Y-99983461D01*
X123681134Y-100017569D01*
X123645587Y-100057449D01*
X123616416Y-100102845D01*
X123593900Y-100153503D01*
X123582242Y-100191980D01*
X123578116Y-100209092D01*
X123574969Y-100223324D01*
X123573297Y-100232376D01*
X123573153Y-100233955D01*
X123574823Y-100235888D01*
X123580441Y-100237350D01*
X123590915Y-100238395D01*
X123607153Y-100239080D01*
X123630063Y-100239460D01*
X123660554Y-100239591D01*
X123665152Y-100239593D01*
X123757151Y-100239593D01*
X123762401Y-100212686D01*
X123770508Y-100184834D01*
X123783373Y-100156489D01*
X123799383Y-100130674D01*
X123816923Y-100110409D01*
X123817142Y-100110207D01*
X123842207Y-100091627D01*
X123873417Y-100075561D01*
X123908476Y-100062818D01*
X123945090Y-100054209D01*
X123980963Y-100050543D01*
X123986441Y-100050470D01*
X124023977Y-100053618D01*
X124063472Y-100062481D01*
X124101342Y-100076187D01*
X124111284Y-100080831D01*
X124150216Y-100104826D01*
X124184293Y-100135861D01*
X124213440Y-100173818D01*
X124237586Y-100218577D01*
X124256655Y-100270018D01*
X124270575Y-100328022D01*
X124273335Y-100344116D01*
X124276505Y-100372189D01*
X124278292Y-100405905D01*
X124278756Y-100443029D01*
X124277956Y-100481327D01*
X124275951Y-100518562D01*
X124272801Y-100552500D01*
X124268564Y-100580905D01*
X124266833Y-100589141D01*
X124251280Y-100642316D01*
X124230726Y-100690117D01*
X124205545Y-100731987D01*
X124176108Y-100767367D01*
X124142787Y-100795700D01*
X124119457Y-100809950D01*
X124077069Y-100827695D01*
X124031844Y-100838408D01*
X123985366Y-100842065D01*
X123939216Y-100838638D01*
X123894976Y-100828102D01*
X123861286Y-100814166D01*
X123829537Y-100793414D01*
X123802344Y-100766261D01*
X123780835Y-100734202D01*
X123766137Y-100698735D01*
X123762150Y-100682598D01*
X123757151Y-100657186D01*
X123665152Y-100657186D01*
X123633185Y-100657302D01*
X123608990Y-100657684D01*
X123591731Y-100658379D01*
X123580572Y-100659437D01*
X123574678Y-100660907D01*
X123573183Y-100662568D01*
X123574869Y-100676090D01*
X123579340Y-100695191D01*
X123585878Y-100717579D01*
X123593768Y-100740966D01*
X123602294Y-100763063D01*
X123609881Y-100779881D01*
X123638237Y-100827737D01*
X123672490Y-100869399D01*
X123712461Y-100904768D01*
X123757968Y-100933747D01*
X123808829Y-100956238D01*
X123864862Y-100972143D01*
X123925888Y-100981366D01*
X123988276Y-100983848D01*
X124012282Y-100983347D01*
X124035825Y-100982373D01*
X124056171Y-100981067D01*
X124070390Y-100979600D01*
X124131988Y-100966598D01*
X124189626Y-100946125D01*
X124242897Y-100918551D01*
X124291392Y-100884248D01*
X124334705Y-100843588D01*
X124372427Y-100796942D01*
X124404151Y-100744682D01*
X124429468Y-100687179D01*
X124444582Y-100638634D01*
X124452232Y-100607195D01*
X124457911Y-100578664D01*
X124461873Y-100550762D01*
X124464372Y-100521208D01*
X124465661Y-100487724D01*
X124465994Y-100448030D01*
X124465991Y-100446237D01*
X124464505Y-100387100D01*
X124460066Y-100334462D01*
X124452323Y-100286613D01*
X124440924Y-100241843D01*
X124425518Y-100198443D01*
X124406218Y-100155644D01*
X124375068Y-100101827D01*
X124337966Y-100054167D01*
X124295166Y-100012849D01*
X124246919Y-99978059D01*
X124193478Y-99949984D01*
X124135096Y-99928809D01*
X124081153Y-99916263D01*
X124055867Y-99913108D01*
X124024683Y-99911257D01*
X123990209Y-99910685D01*
X123955053Y-99911363D01*
G36*
X125544881Y-99710068D02*
X126014136Y-99710068D01*
X126014136Y-100958542D01*
X126203559Y-100958542D01*
X126203559Y-99710068D01*
X126668509Y-99710068D01*
X126668509Y-99542169D01*
X125544881Y-99542169D01*
X125544881Y-99710068D01*
X125544881Y-99710068D01*
G37*
X125544881Y-99710068D02*
X126014136Y-99710068D01*
X126014136Y-100958542D01*
X126203559Y-100958542D01*
X126203559Y-99710068D01*
X126668509Y-99710068D01*
X126668509Y-99542169D01*
X125544881Y-99542169D01*
X125544881Y-99710068D01*
G36*
X123297627Y-100063661D02*
X123270700Y-100036333D01*
X123224244Y-99994695D01*
X123175031Y-99961180D01*
X123123259Y-99935844D01*
X123069125Y-99918742D01*
X123012826Y-99909931D01*
X122954559Y-99909465D01*
X122894520Y-99917401D01*
X122869271Y-99923138D01*
X122822735Y-99939239D01*
X122780698Y-99962462D01*
X122743633Y-99992321D01*
X122712011Y-100028331D01*
X122686302Y-100070005D01*
X122666977Y-100116856D01*
X122660760Y-100138423D01*
X122657763Y-100150786D01*
X122655128Y-100163151D01*
X122652831Y-100176134D01*
X122650849Y-100190350D01*
X122649160Y-100206411D01*
X122647741Y-100224933D01*
X122646568Y-100246531D01*
X122645618Y-100271817D01*
X122644869Y-100301407D01*
X122644297Y-100335916D01*
X122643879Y-100375956D01*
X122643592Y-100422143D01*
X122643414Y-100475091D01*
X122643321Y-100535415D01*
X122643290Y-100603728D01*
X122643290Y-100604449D01*
X122643254Y-100958542D01*
X122823583Y-100958542D01*
X122825083Y-100591534D01*
X122825351Y-100526842D01*
X122825603Y-100470171D01*
X122825855Y-100420933D01*
X122826123Y-100378539D01*
X122826423Y-100342399D01*
X122826771Y-100311926D01*
X122827183Y-100286530D01*
X122827676Y-100265623D01*
X122828264Y-100248616D01*
X122828965Y-100234920D01*
X122829794Y-100223946D01*
X122830767Y-100215106D01*
X122831901Y-100207811D01*
X122833210Y-100201471D01*
X122834713Y-100195499D01*
X122835994Y-100190840D01*
X122849128Y-100152993D01*
X122865691Y-100122640D01*
X122886488Y-100099076D01*
X122912321Y-100081596D01*
X122943993Y-100069493D01*
X122982307Y-100062063D01*
X122982651Y-100062019D01*
X123004178Y-100059778D01*
X123021673Y-100059450D01*
X123039374Y-100061183D01*
X123059160Y-100064661D01*
X123105463Y-100077892D01*
X123151824Y-100099387D01*
X123197700Y-100128819D01*
X123242549Y-100165863D01*
X123266415Y-100189192D01*
X123297627Y-100221455D01*
X123297627Y-100958542D01*
X123478441Y-100958542D01*
X123478441Y-99542169D01*
X123297627Y-99542169D01*
X123297627Y-100063661D01*
X123297627Y-100063661D01*
G37*
X123297627Y-100063661D02*
X123270700Y-100036333D01*
X123224244Y-99994695D01*
X123175031Y-99961180D01*
X123123259Y-99935844D01*
X123069125Y-99918742D01*
X123012826Y-99909931D01*
X122954559Y-99909465D01*
X122894520Y-99917401D01*
X122869271Y-99923138D01*
X122822735Y-99939239D01*
X122780698Y-99962462D01*
X122743633Y-99992321D01*
X122712011Y-100028331D01*
X122686302Y-100070005D01*
X122666977Y-100116856D01*
X122660760Y-100138423D01*
X122657763Y-100150786D01*
X122655128Y-100163151D01*
X122652831Y-100176134D01*
X122650849Y-100190350D01*
X122649160Y-100206411D01*
X122647741Y-100224933D01*
X122646568Y-100246531D01*
X122645618Y-100271817D01*
X122644869Y-100301407D01*
X122644297Y-100335916D01*
X122643879Y-100375956D01*
X122643592Y-100422143D01*
X122643414Y-100475091D01*
X122643321Y-100535415D01*
X122643290Y-100603728D01*
X122643290Y-100604449D01*
X122643254Y-100958542D01*
X122823583Y-100958542D01*
X122825083Y-100591534D01*
X122825351Y-100526842D01*
X122825603Y-100470171D01*
X122825855Y-100420933D01*
X122826123Y-100378539D01*
X122826423Y-100342399D01*
X122826771Y-100311926D01*
X122827183Y-100286530D01*
X122827676Y-100265623D01*
X122828264Y-100248616D01*
X122828965Y-100234920D01*
X122829794Y-100223946D01*
X122830767Y-100215106D01*
X122831901Y-100207811D01*
X122833210Y-100201471D01*
X122834713Y-100195499D01*
X122835994Y-100190840D01*
X122849128Y-100152993D01*
X122865691Y-100122640D01*
X122886488Y-100099076D01*
X122912321Y-100081596D01*
X122943993Y-100069493D01*
X122982307Y-100062063D01*
X122982651Y-100062019D01*
X123004178Y-100059778D01*
X123021673Y-100059450D01*
X123039374Y-100061183D01*
X123059160Y-100064661D01*
X123105463Y-100077892D01*
X123151824Y-100099387D01*
X123197700Y-100128819D01*
X123242549Y-100165863D01*
X123266415Y-100189192D01*
X123297627Y-100221455D01*
X123297627Y-100958542D01*
X123478441Y-100958542D01*
X123478441Y-99542169D01*
X123297627Y-99542169D01*
X123297627Y-100063661D01*
G36*
X122255304Y-99752590D02*
X122221028Y-99763557D01*
X122190955Y-99781165D01*
X122166024Y-99804869D01*
X122147482Y-99833488D01*
X122139933Y-99850081D01*
X122135344Y-99864460D01*
X122132845Y-99880278D01*
X122131605Y-99900236D01*
X122132176Y-99931945D01*
X122137177Y-99958729D01*
X122147340Y-99983438D01*
X122157299Y-100000094D01*
X122178418Y-100024482D01*
X122205344Y-100043837D01*
X122236595Y-100057709D01*
X122270688Y-100065647D01*
X122306141Y-100067200D01*
X122341472Y-100061918D01*
X122351351Y-100059086D01*
X122384227Y-100044325D01*
X122411798Y-100023188D01*
X122433483Y-99996496D01*
X122448699Y-99965075D01*
X122456862Y-99929748D01*
X122457630Y-99916750D01*
X122414259Y-99916750D01*
X122411727Y-99939330D01*
X122408925Y-99950255D01*
X122397249Y-99974049D01*
X122379513Y-99996453D01*
X122358161Y-100014727D01*
X122344215Y-100022765D01*
X122316257Y-100031340D01*
X122286199Y-100032909D01*
X122256941Y-100027470D01*
X122244870Y-100022765D01*
X122223434Y-100009120D01*
X122203652Y-99989972D01*
X122188012Y-99968055D01*
X122180781Y-99952299D01*
X122174150Y-99920303D01*
X122175411Y-99888129D01*
X122184248Y-99857433D01*
X122200343Y-99829871D01*
X122205371Y-99823770D01*
X122228794Y-99803024D01*
X122255126Y-99789648D01*
X122283138Y-99783461D01*
X122311600Y-99784284D01*
X122339282Y-99791937D01*
X122364954Y-99806239D01*
X122387386Y-99827012D01*
X122404773Y-99852954D01*
X122410643Y-99870316D01*
X122413851Y-99892663D01*
X122414259Y-99916750D01*
X122457630Y-99916750D01*
X122458136Y-99908199D01*
X122454285Y-99870499D01*
X122443140Y-99836801D01*
X122425309Y-99807693D01*
X122401402Y-99783762D01*
X122372029Y-99765596D01*
X122337800Y-99753782D01*
X122299323Y-99748910D01*
X122292842Y-99748813D01*
X122255304Y-99752590D01*
X122255304Y-99752590D01*
G37*
X122255304Y-99752590D02*
X122221028Y-99763557D01*
X122190955Y-99781165D01*
X122166024Y-99804869D01*
X122147482Y-99833488D01*
X122139933Y-99850081D01*
X122135344Y-99864460D01*
X122132845Y-99880278D01*
X122131605Y-99900236D01*
X122132176Y-99931945D01*
X122137177Y-99958729D01*
X122147340Y-99983438D01*
X122157299Y-100000094D01*
X122178418Y-100024482D01*
X122205344Y-100043837D01*
X122236595Y-100057709D01*
X122270688Y-100065647D01*
X122306141Y-100067200D01*
X122341472Y-100061918D01*
X122351351Y-100059086D01*
X122384227Y-100044325D01*
X122411798Y-100023188D01*
X122433483Y-99996496D01*
X122448699Y-99965075D01*
X122456862Y-99929748D01*
X122457630Y-99916750D01*
X122414259Y-99916750D01*
X122411727Y-99939330D01*
X122408925Y-99950255D01*
X122397249Y-99974049D01*
X122379513Y-99996453D01*
X122358161Y-100014727D01*
X122344215Y-100022765D01*
X122316257Y-100031340D01*
X122286199Y-100032909D01*
X122256941Y-100027470D01*
X122244870Y-100022765D01*
X122223434Y-100009120D01*
X122203652Y-99989972D01*
X122188012Y-99968055D01*
X122180781Y-99952299D01*
X122174150Y-99920303D01*
X122175411Y-99888129D01*
X122184248Y-99857433D01*
X122200343Y-99829871D01*
X122205371Y-99823770D01*
X122228794Y-99803024D01*
X122255126Y-99789648D01*
X122283138Y-99783461D01*
X122311600Y-99784284D01*
X122339282Y-99791937D01*
X122364954Y-99806239D01*
X122387386Y-99827012D01*
X122404773Y-99852954D01*
X122410643Y-99870316D01*
X122413851Y-99892663D01*
X122414259Y-99916750D01*
X122457630Y-99916750D01*
X122458136Y-99908199D01*
X122454285Y-99870499D01*
X122443140Y-99836801D01*
X122425309Y-99807693D01*
X122401402Y-99783762D01*
X122372029Y-99765596D01*
X122337800Y-99753782D01*
X122299323Y-99748910D01*
X122292842Y-99748813D01*
X122255304Y-99752590D01*
G36*
X122314992Y-99817719D02*
X122283311Y-99818697D01*
X122259204Y-99821915D01*
X122241816Y-99827851D01*
X122230290Y-99836985D01*
X122223772Y-99849798D01*
X122221407Y-99866770D01*
X122221356Y-99870267D01*
X122222328Y-99884856D01*
X122226248Y-99895017D01*
X122233940Y-99904127D01*
X122244047Y-99912161D01*
X122253512Y-99916477D01*
X122255465Y-99916712D01*
X122262645Y-99918049D01*
X122264407Y-99920009D01*
X122262263Y-99924880D01*
X122256511Y-99935225D01*
X122248167Y-99949254D01*
X122242976Y-99957678D01*
X122233647Y-99972974D01*
X122226350Y-99985570D01*
X122222109Y-99993668D01*
X122221451Y-99995527D01*
X122225202Y-99997373D01*
X122234748Y-99997905D01*
X122239519Y-99997679D01*
X122247901Y-99996811D01*
X122254150Y-99994709D01*
X122259705Y-99989961D01*
X122266001Y-99981152D01*
X122274476Y-99966868D01*
X122279151Y-99958686D01*
X122289308Y-99941319D01*
X122296695Y-99930231D01*
X122302520Y-99924061D01*
X122307991Y-99921453D01*
X122312649Y-99921017D01*
X122324678Y-99921017D01*
X122324678Y-99998508D01*
X122359119Y-99998508D01*
X122359119Y-99890881D01*
X122325128Y-99890881D01*
X122298789Y-99890881D01*
X122283248Y-99890171D01*
X122270254Y-99888335D01*
X122264124Y-99886425D01*
X122257213Y-99878052D01*
X122255797Y-99868985D01*
X122257229Y-99859623D01*
X122263082Y-99853524D01*
X122271271Y-99849535D01*
X122286211Y-99845553D01*
X122302536Y-99844268D01*
X122304635Y-99844374D01*
X122322525Y-99845678D01*
X122323827Y-99868279D01*
X122325128Y-99890881D01*
X122359119Y-99890881D01*
X122359119Y-99817695D01*
X122314992Y-99817719D01*
X122314992Y-99817719D01*
G37*
X122314992Y-99817719D02*
X122283311Y-99818697D01*
X122259204Y-99821915D01*
X122241816Y-99827851D01*
X122230290Y-99836985D01*
X122223772Y-99849798D01*
X122221407Y-99866770D01*
X122221356Y-99870267D01*
X122222328Y-99884856D01*
X122226248Y-99895017D01*
X122233940Y-99904127D01*
X122244047Y-99912161D01*
X122253512Y-99916477D01*
X122255465Y-99916712D01*
X122262645Y-99918049D01*
X122264407Y-99920009D01*
X122262263Y-99924880D01*
X122256511Y-99935225D01*
X122248167Y-99949254D01*
X122242976Y-99957678D01*
X122233647Y-99972974D01*
X122226350Y-99985570D01*
X122222109Y-99993668D01*
X122221451Y-99995527D01*
X122225202Y-99997373D01*
X122234748Y-99997905D01*
X122239519Y-99997679D01*
X122247901Y-99996811D01*
X122254150Y-99994709D01*
X122259705Y-99989961D01*
X122266001Y-99981152D01*
X122274476Y-99966868D01*
X122279151Y-99958686D01*
X122289308Y-99941319D01*
X122296695Y-99930231D01*
X122302520Y-99924061D01*
X122307991Y-99921453D01*
X122312649Y-99921017D01*
X122324678Y-99921017D01*
X122324678Y-99998508D01*
X122359119Y-99998508D01*
X122359119Y-99890881D01*
X122325128Y-99890881D01*
X122298789Y-99890881D01*
X122283248Y-99890171D01*
X122270254Y-99888335D01*
X122264124Y-99886425D01*
X122257213Y-99878052D01*
X122255797Y-99868985D01*
X122257229Y-99859623D01*
X122263082Y-99853524D01*
X122271271Y-99849535D01*
X122286211Y-99845553D01*
X122302536Y-99844268D01*
X122304635Y-99844374D01*
X122322525Y-99845678D01*
X122323827Y-99868279D01*
X122325128Y-99890881D01*
X122359119Y-99890881D01*
X122359119Y-99817695D01*
X122314992Y-99817719D01*
M02*
