G04 #@! TF.FileFunction,Copper,L2,Bot,Signal*
%FSLAX46Y46*%
G04 Gerber Fmt 4.6, Leading zero omitted, Abs format (unit mm)*
G04 Created by KiCad (PCBNEW 4.0.1-stable) date 26/05/2016 09:01:35*
%MOMM*%
G01*
G04 APERTURE LIST*
%ADD10C,0.100000*%
%ADD11C,2.500000*%
%ADD12C,1.998980*%
%ADD13R,1.998980X1.998980*%
%ADD14R,2.540000X2.540000*%
%ADD15C,2.540000*%
%ADD16O,1.501140X1.998980*%
%ADD17O,1.998980X1.501140*%
%ADD18C,1.700000*%
%ADD19C,0.300000*%
%ADD20C,3.000000*%
G04 APERTURE END LIST*
D10*
D11*
X131064000Y-122555000D03*
X131191000Y-101854000D03*
X106680000Y-122428000D03*
X106680000Y-101600000D03*
D12*
X135130540Y-119888000D03*
D13*
X135130540Y-109728000D03*
D14*
X147828000Y-103124000D03*
D15*
X147828000Y-108204000D03*
D14*
X147828000Y-114300000D03*
D15*
X147828000Y-119380000D03*
D16*
X138176000Y-102108000D03*
D17*
X135636000Y-104648000D03*
X140716000Y-104648000D03*
D12*
X138176000Y-109728000D03*
X138176000Y-119888000D03*
X141224000Y-109728000D03*
X141224000Y-119888000D03*
D18*
X115936000Y-105879000D03*
X115936000Y-117879000D03*
X128436000Y-117879000D03*
X130436000Y-111879000D03*
X128436000Y-105879000D03*
D14*
X108077000Y-106807000D03*
D15*
X108077000Y-111887000D03*
X108077000Y-116967000D03*
D19*
X147828000Y-119380000D02*
X147828000Y-118872000D01*
X147828000Y-118872000D02*
X150876000Y-115824000D01*
X150876000Y-115824000D02*
X150876000Y-112776000D01*
X150876000Y-112776000D02*
X148844000Y-110744000D01*
X148844000Y-110744000D02*
X146304000Y-110744000D01*
X146304000Y-110744000D02*
X143256000Y-107696000D01*
X143256000Y-107696000D02*
X137162540Y-107696000D01*
X137162540Y-107696000D02*
X135130540Y-109728000D01*
X147828000Y-114300000D02*
X146812000Y-114300000D01*
X146812000Y-114300000D02*
X141224000Y-119888000D01*
X147828000Y-103124000D02*
X142240000Y-103124000D01*
X142240000Y-103124000D02*
X140716000Y-104648000D01*
D20*
X115936000Y-105879000D02*
X109005000Y-105879000D01*
X109005000Y-105879000D02*
X108077000Y-106807000D01*
X130436000Y-111879000D02*
X108085000Y-111879000D01*
X108085000Y-111879000D02*
X108077000Y-111887000D01*
X115936000Y-117879000D02*
X108989000Y-117879000D01*
X108989000Y-117879000D02*
X108077000Y-116967000D01*
M02*
