G04 #@! TF.FileFunction,Legend,Top*
%FSLAX46Y46*%
G04 Gerber Fmt 4.6, Leading zero omitted, Abs format (unit mm)*
G04 Created by KiCad (PCBNEW 4.0.1-stable) date 26/05/2016 09:01:35*
%MOMM*%
G01*
G04 APERTURE LIST*
%ADD10C,0.100000*%
%ADD11C,0.200000*%
%ADD12C,0.150000*%
G04 APERTURE END LIST*
D10*
D11*
X143617905Y-120383238D02*
X143617905Y-120230857D01*
X143579810Y-120154666D01*
X143541714Y-120116571D01*
X143427429Y-120040380D01*
X143275048Y-120002285D01*
X142970286Y-120002285D01*
X142894095Y-120040380D01*
X142856000Y-120078476D01*
X142817905Y-120154666D01*
X142817905Y-120307047D01*
X142856000Y-120383238D01*
X142894095Y-120421333D01*
X142970286Y-120459428D01*
X143160762Y-120459428D01*
X143236952Y-120421333D01*
X143275048Y-120383238D01*
X143313143Y-120307047D01*
X143313143Y-120154666D01*
X143275048Y-120078476D01*
X143236952Y-120040380D01*
X143160762Y-120002285D01*
X142817905Y-119773714D02*
X143617905Y-119507047D01*
X142817905Y-119240380D01*
X143579810Y-110108761D02*
X143617905Y-109994475D01*
X143617905Y-109803999D01*
X143579810Y-109727809D01*
X143541714Y-109689713D01*
X143465524Y-109651618D01*
X143389333Y-109651618D01*
X143313143Y-109689713D01*
X143275048Y-109727809D01*
X143236952Y-109803999D01*
X143198857Y-109956380D01*
X143160762Y-110032571D01*
X143122667Y-110070666D01*
X143046476Y-110108761D01*
X142970286Y-110108761D01*
X142894095Y-110070666D01*
X142856000Y-110032571D01*
X142817905Y-109956380D01*
X142817905Y-109765904D01*
X142856000Y-109651618D01*
X143617905Y-109308761D02*
X142817905Y-109308761D01*
X142856000Y-108508761D02*
X142817905Y-108584952D01*
X142817905Y-108699237D01*
X142856000Y-108813523D01*
X142932190Y-108889714D01*
X143008381Y-108927809D01*
X143160762Y-108965904D01*
X143275048Y-108965904D01*
X143427429Y-108927809D01*
X143503619Y-108889714D01*
X143579810Y-108813523D01*
X143617905Y-108699237D01*
X143617905Y-108623047D01*
X143579810Y-108508761D01*
X143541714Y-108470666D01*
X143275048Y-108470666D01*
X143275048Y-108623047D01*
X143617905Y-108127809D02*
X142817905Y-108127809D01*
X143617905Y-107670666D01*
X142817905Y-107670666D01*
X143389333Y-107327809D02*
X143389333Y-106946857D01*
X143617905Y-107404000D02*
X142817905Y-107137333D01*
X143617905Y-106870666D01*
X143617905Y-106223047D02*
X143617905Y-106604000D01*
X142817905Y-106604000D01*
X142856000Y-114909523D02*
X142817905Y-114985714D01*
X142817905Y-115099999D01*
X142856000Y-115214285D01*
X142932190Y-115290476D01*
X143008381Y-115328571D01*
X143160762Y-115366666D01*
X143275048Y-115366666D01*
X143427429Y-115328571D01*
X143503619Y-115290476D01*
X143579810Y-115214285D01*
X143617905Y-115099999D01*
X143617905Y-115023809D01*
X143579810Y-114909523D01*
X143541714Y-114871428D01*
X143275048Y-114871428D01*
X143275048Y-115023809D01*
X143617905Y-114528571D02*
X142817905Y-114528571D01*
X143617905Y-114071428D01*
X142817905Y-114071428D01*
X143617905Y-113690476D02*
X142817905Y-113690476D01*
X142817905Y-113500000D01*
X142856000Y-113385714D01*
X142932190Y-113309523D01*
X143008381Y-113271428D01*
X143160762Y-113233333D01*
X143275048Y-113233333D01*
X143427429Y-113271428D01*
X143503619Y-113309523D01*
X143579810Y-113385714D01*
X143617905Y-113500000D01*
X143617905Y-113690476D01*
X142856000Y-103733523D02*
X142817905Y-103809714D01*
X142817905Y-103923999D01*
X142856000Y-104038285D01*
X142932190Y-104114476D01*
X143008381Y-104152571D01*
X143160762Y-104190666D01*
X143275048Y-104190666D01*
X143427429Y-104152571D01*
X143503619Y-104114476D01*
X143579810Y-104038285D01*
X143617905Y-103923999D01*
X143617905Y-103847809D01*
X143579810Y-103733523D01*
X143541714Y-103695428D01*
X143275048Y-103695428D01*
X143275048Y-103847809D01*
X143617905Y-103352571D02*
X142817905Y-103352571D01*
X143617905Y-102895428D01*
X142817905Y-102895428D01*
X143617905Y-102514476D02*
X142817905Y-102514476D01*
X142817905Y-102324000D01*
X142856000Y-102209714D01*
X142932190Y-102133523D01*
X143008381Y-102095428D01*
X143160762Y-102057333D01*
X143275048Y-102057333D01*
X143427429Y-102095428D01*
X143503619Y-102133523D01*
X143579810Y-102209714D01*
X143617905Y-102324000D01*
X143617905Y-102514476D01*
D12*
X133350000Y-122555000D02*
G75*
G03X133350000Y-122555000I-2286000J0D01*
G01*
X133477000Y-101854000D02*
G75*
G03X133477000Y-101854000I-2286000J0D01*
G01*
X108966000Y-122428000D02*
G75*
G03X108966000Y-122428000I-2286000J0D01*
G01*
X108966000Y-101600000D02*
G75*
G03X108966000Y-101600000I-2286000J0D01*
G01*
X135130540Y-117348000D02*
X135130540Y-118364000D01*
X135130540Y-112522000D02*
X135130540Y-111252000D01*
X136400540Y-112776000D02*
X133860540Y-112776000D01*
X136400540Y-113030000D02*
X133860540Y-113030000D01*
X136400540Y-113284000D02*
X133860540Y-113284000D01*
X136400540Y-112522000D02*
X133860540Y-112522000D01*
X136400540Y-113538000D02*
X133860540Y-112268000D01*
X136400540Y-112268000D02*
X133860540Y-113538000D01*
X136400540Y-113538000D02*
X133860540Y-113538000D01*
X136400540Y-112903000D02*
X133860540Y-112903000D01*
X133860540Y-112268000D02*
X136400540Y-112268000D01*
X136400540Y-112268000D02*
X136400540Y-117348000D01*
X136400540Y-117348000D02*
X133860540Y-117348000D01*
X133860540Y-117348000D02*
X133860540Y-112268000D01*
X145288000Y-110744000D02*
X145288000Y-100584000D01*
X144018000Y-110744000D02*
X151638000Y-110744000D01*
X151638000Y-110744000D02*
X151638000Y-100584000D01*
X151638000Y-100584000D02*
X144018000Y-100584000D01*
X144018000Y-100584000D02*
X144018000Y-110744000D01*
X145288000Y-121920000D02*
X145288000Y-111760000D01*
X144018000Y-121920000D02*
X151638000Y-121920000D01*
X151638000Y-121920000D02*
X151638000Y-111760000D01*
X151638000Y-111760000D02*
X144018000Y-111760000D01*
X144018000Y-111760000D02*
X144018000Y-121920000D01*
X137176000Y-102448000D02*
G75*
G03X135976000Y-103648000I1000000J-2200000D01*
G01*
X139175999Y-102448000D02*
G75*
G02X140376000Y-103648000I-999999J-2200000D01*
G01*
X135988305Y-105644990D02*
G75*
G03X136476000Y-106348000I2187695J996990D01*
G01*
X140363695Y-105644990D02*
G75*
G02X139876000Y-106348000I-2187695J996990D01*
G01*
X136476000Y-106348000D02*
X139876000Y-106348000D01*
X139446000Y-112268000D02*
X139446000Y-117348000D01*
X139446000Y-117348000D02*
X136906000Y-117348000D01*
X136906000Y-117348000D02*
X136906000Y-112268000D01*
X136906000Y-112268000D02*
X139446000Y-112268000D01*
X138176000Y-112268000D02*
X138176000Y-110998000D01*
X138176000Y-117348000D02*
X138176000Y-118618000D01*
X142494000Y-112268000D02*
X142494000Y-117348000D01*
X142494000Y-117348000D02*
X139954000Y-117348000D01*
X139954000Y-117348000D02*
X139954000Y-112268000D01*
X139954000Y-112268000D02*
X142494000Y-112268000D01*
X141224000Y-112268000D02*
X141224000Y-110998000D01*
X141224000Y-117348000D02*
X141224000Y-118618000D01*
X126936000Y-105879000D02*
X124436000Y-105879000D01*
X124436000Y-105879000D02*
X124436000Y-117879000D01*
X124436000Y-117879000D02*
X126936000Y-117879000D01*
X112936000Y-104379000D02*
X131936000Y-104379000D01*
X131936000Y-104379000D02*
X131936000Y-119379000D01*
X131936000Y-119379000D02*
X112936000Y-119379000D01*
X112936000Y-119379000D02*
X112936000Y-104379000D01*
X104267000Y-104267000D02*
X111887000Y-104267000D01*
X104267000Y-119507000D02*
X111887000Y-119507000D01*
X105537000Y-104267000D02*
X105537000Y-119507000D01*
X111887000Y-104267000D02*
X111887000Y-119507000D01*
X104267000Y-104267000D02*
X104267000Y-119507000D01*
X135580381Y-116054095D02*
X134580381Y-116054095D01*
X134580381Y-115816000D01*
X134628000Y-115673142D01*
X134723238Y-115577904D01*
X134818476Y-115530285D01*
X135008952Y-115482666D01*
X135151810Y-115482666D01*
X135342286Y-115530285D01*
X135437524Y-115577904D01*
X135532762Y-115673142D01*
X135580381Y-115816000D01*
X135580381Y-116054095D01*
X135580381Y-114530285D02*
X135580381Y-115101714D01*
X135580381Y-114816000D02*
X134580381Y-114816000D01*
X134723238Y-114911238D01*
X134818476Y-115006476D01*
X134866095Y-115101714D01*
X152544429Y-108046571D02*
X151944429Y-108046571D01*
X151944429Y-107817999D01*
X151973000Y-107760857D01*
X152001571Y-107732285D01*
X152058714Y-107703714D01*
X152144429Y-107703714D01*
X152201571Y-107732285D01*
X152230143Y-107760857D01*
X152258714Y-107817999D01*
X152258714Y-108046571D01*
X152544429Y-107132285D02*
X152544429Y-107475142D01*
X152544429Y-107303714D02*
X151944429Y-107303714D01*
X152030143Y-107360857D01*
X152087286Y-107417999D01*
X152115857Y-107475142D01*
X152487286Y-106875142D02*
X152515857Y-106846570D01*
X152544429Y-106875142D01*
X152515857Y-106903713D01*
X152487286Y-106875142D01*
X152544429Y-106875142D01*
X152173000Y-106875142D02*
X152201571Y-106846570D01*
X152230143Y-106875142D01*
X152201571Y-106903713D01*
X152173000Y-106875142D01*
X152230143Y-106875142D01*
X152515857Y-106617999D02*
X152544429Y-106532285D01*
X152544429Y-106389428D01*
X152515857Y-106332285D01*
X152487286Y-106303714D01*
X152430143Y-106275142D01*
X152373000Y-106275142D01*
X152315857Y-106303714D01*
X152287286Y-106332285D01*
X152258714Y-106389428D01*
X152230143Y-106503714D01*
X152201571Y-106560856D01*
X152173000Y-106589428D01*
X152115857Y-106617999D01*
X152058714Y-106617999D01*
X152001571Y-106589428D01*
X151973000Y-106560856D01*
X151944429Y-106503714D01*
X151944429Y-106360856D01*
X151973000Y-106275142D01*
X152544429Y-106017999D02*
X151944429Y-106017999D01*
X151973000Y-105417999D02*
X151944429Y-105475142D01*
X151944429Y-105560856D01*
X151973000Y-105646571D01*
X152030143Y-105703713D01*
X152087286Y-105732285D01*
X152201571Y-105760856D01*
X152287286Y-105760856D01*
X152401571Y-105732285D01*
X152458714Y-105703713D01*
X152515857Y-105646571D01*
X152544429Y-105560856D01*
X152544429Y-105503713D01*
X152515857Y-105417999D01*
X152487286Y-105389428D01*
X152287286Y-105389428D01*
X152287286Y-105503713D01*
X152544429Y-105132285D02*
X151944429Y-105132285D01*
X152544429Y-104789428D01*
X151944429Y-104789428D01*
X152373000Y-104532285D02*
X152373000Y-104246571D01*
X152544429Y-104589428D02*
X151944429Y-104389428D01*
X152544429Y-104189428D01*
X152544429Y-103703714D02*
X152544429Y-103989428D01*
X151944429Y-103989428D01*
X152544429Y-119471714D02*
X151944429Y-119471714D01*
X151944429Y-119243142D01*
X151973000Y-119186000D01*
X152001571Y-119157428D01*
X152058714Y-119128857D01*
X152144429Y-119128857D01*
X152201571Y-119157428D01*
X152230143Y-119186000D01*
X152258714Y-119243142D01*
X152258714Y-119471714D01*
X152001571Y-118900285D02*
X151973000Y-118871714D01*
X151944429Y-118814571D01*
X151944429Y-118671714D01*
X151973000Y-118614571D01*
X152001571Y-118586000D01*
X152058714Y-118557428D01*
X152115857Y-118557428D01*
X152201571Y-118586000D01*
X152544429Y-118928857D01*
X152544429Y-118557428D01*
X152487286Y-118300285D02*
X152515857Y-118271713D01*
X152544429Y-118300285D01*
X152515857Y-118328856D01*
X152487286Y-118300285D01*
X152544429Y-118300285D01*
X152173000Y-118300285D02*
X152201571Y-118271713D01*
X152230143Y-118300285D01*
X152201571Y-118328856D01*
X152173000Y-118300285D01*
X152230143Y-118300285D01*
X152544429Y-117985999D02*
X152544429Y-117871714D01*
X152515857Y-117814571D01*
X152487286Y-117785999D01*
X152401571Y-117728857D01*
X152287286Y-117700285D01*
X152058714Y-117700285D01*
X152001571Y-117728857D01*
X151973000Y-117757428D01*
X151944429Y-117814571D01*
X151944429Y-117928857D01*
X151973000Y-117985999D01*
X152001571Y-118014571D01*
X152058714Y-118043142D01*
X152201571Y-118043142D01*
X152258714Y-118014571D01*
X152287286Y-117985999D01*
X152315857Y-117928857D01*
X152315857Y-117814571D01*
X152287286Y-117757428D01*
X152258714Y-117728857D01*
X152201571Y-117700285D01*
X151944429Y-117528856D02*
X152544429Y-117328856D01*
X151944429Y-117128856D01*
X152544429Y-116471713D02*
X151944429Y-116471713D01*
X151944429Y-116243141D01*
X151973000Y-116185999D01*
X152001571Y-116157427D01*
X152058714Y-116128856D01*
X152144429Y-116128856D01*
X152201571Y-116157427D01*
X152230143Y-116185999D01*
X152258714Y-116243141D01*
X152258714Y-116471713D01*
X151944429Y-115757427D02*
X151944429Y-115643141D01*
X151973000Y-115585999D01*
X152030143Y-115528856D01*
X152144429Y-115500284D01*
X152344429Y-115500284D01*
X152458714Y-115528856D01*
X152515857Y-115585999D01*
X152544429Y-115643141D01*
X152544429Y-115757427D01*
X152515857Y-115814570D01*
X152458714Y-115871713D01*
X152344429Y-115900284D01*
X152144429Y-115900284D01*
X152030143Y-115871713D01*
X151973000Y-115814570D01*
X151944429Y-115757427D01*
X151944429Y-115300285D02*
X152544429Y-115157428D01*
X152115857Y-115043142D01*
X152544429Y-114928856D01*
X151944429Y-114785999D01*
X152230143Y-114557428D02*
X152230143Y-114357428D01*
X152544429Y-114271714D02*
X152544429Y-114557428D01*
X151944429Y-114557428D01*
X151944429Y-114271714D01*
X152544429Y-113671714D02*
X152258714Y-113871714D01*
X152544429Y-114014571D02*
X151944429Y-114014571D01*
X151944429Y-113785999D01*
X151973000Y-113728857D01*
X152001571Y-113700285D01*
X152058714Y-113671714D01*
X152144429Y-113671714D01*
X152201571Y-113700285D01*
X152230143Y-113728857D01*
X152258714Y-113785999D01*
X152258714Y-114014571D01*
X135540762Y-102401619D02*
X135445524Y-102354000D01*
X135350286Y-102258762D01*
X135207429Y-102115905D01*
X135112190Y-102068286D01*
X135016952Y-102068286D01*
X135064571Y-102306381D02*
X134969333Y-102258762D01*
X134874095Y-102163524D01*
X134826476Y-101973048D01*
X134826476Y-101639714D01*
X134874095Y-101449238D01*
X134969333Y-101354000D01*
X135064571Y-101306381D01*
X135255048Y-101306381D01*
X135350286Y-101354000D01*
X135445524Y-101449238D01*
X135493143Y-101639714D01*
X135493143Y-101973048D01*
X135445524Y-102163524D01*
X135350286Y-102258762D01*
X135255048Y-102306381D01*
X135064571Y-102306381D01*
X136445524Y-102306381D02*
X135874095Y-102306381D01*
X136159809Y-102306381D02*
X136159809Y-101306381D01*
X136064571Y-101449238D01*
X135969333Y-101544476D01*
X135874095Y-101592095D01*
X136674428Y-106408571D02*
X136702999Y-106380000D01*
X136760142Y-106351429D01*
X136902999Y-106351429D01*
X136960142Y-106380000D01*
X136988713Y-106408571D01*
X137017285Y-106465714D01*
X137017285Y-106522857D01*
X136988713Y-106608571D01*
X136645856Y-106951429D01*
X137017285Y-106951429D01*
X137274428Y-106951429D02*
X137274428Y-106351429D01*
X137617285Y-106951429D01*
X137617285Y-106351429D01*
X137874428Y-106408571D02*
X137902999Y-106380000D01*
X137960142Y-106351429D01*
X138102999Y-106351429D01*
X138160142Y-106380000D01*
X138188713Y-106408571D01*
X138217285Y-106465714D01*
X138217285Y-106522857D01*
X138188713Y-106608571D01*
X137845856Y-106951429D01*
X138217285Y-106951429D01*
X138445857Y-106408571D02*
X138474428Y-106380000D01*
X138531571Y-106351429D01*
X138674428Y-106351429D01*
X138731571Y-106380000D01*
X138760142Y-106408571D01*
X138788714Y-106465714D01*
X138788714Y-106522857D01*
X138760142Y-106608571D01*
X138417285Y-106951429D01*
X138788714Y-106951429D01*
X139017286Y-106408571D02*
X139045857Y-106380000D01*
X139103000Y-106351429D01*
X139245857Y-106351429D01*
X139303000Y-106380000D01*
X139331571Y-106408571D01*
X139360143Y-106465714D01*
X139360143Y-106522857D01*
X139331571Y-106608571D01*
X138988714Y-106951429D01*
X139360143Y-106951429D01*
X139588715Y-106408571D02*
X139617286Y-106380000D01*
X139674429Y-106351429D01*
X139817286Y-106351429D01*
X139874429Y-106380000D01*
X139903000Y-106408571D01*
X139931572Y-106465714D01*
X139931572Y-106522857D01*
X139903000Y-106608571D01*
X139560143Y-106951429D01*
X139931572Y-106951429D01*
X138628381Y-115482666D02*
X138152190Y-115816000D01*
X138628381Y-116054095D02*
X137628381Y-116054095D01*
X137628381Y-115673142D01*
X137676000Y-115577904D01*
X137723619Y-115530285D01*
X137818857Y-115482666D01*
X137961714Y-115482666D01*
X138056952Y-115530285D01*
X138104571Y-115577904D01*
X138152190Y-115673142D01*
X138152190Y-116054095D01*
X138628381Y-114530285D02*
X138628381Y-115101714D01*
X138628381Y-114816000D02*
X137628381Y-114816000D01*
X137771238Y-114911238D01*
X137866476Y-115006476D01*
X137914095Y-115101714D01*
X141676381Y-115736666D02*
X141200190Y-116070000D01*
X141676381Y-116308095D02*
X140676381Y-116308095D01*
X140676381Y-115927142D01*
X140724000Y-115831904D01*
X140771619Y-115784285D01*
X140866857Y-115736666D01*
X141009714Y-115736666D01*
X141104952Y-115784285D01*
X141152571Y-115831904D01*
X141200190Y-115927142D01*
X141200190Y-116308095D01*
X140771619Y-115355714D02*
X140724000Y-115308095D01*
X140676381Y-115212857D01*
X140676381Y-114974761D01*
X140724000Y-114879523D01*
X140771619Y-114831904D01*
X140866857Y-114784285D01*
X140962095Y-114784285D01*
X141104952Y-114831904D01*
X141676381Y-115403333D01*
X141676381Y-114784285D01*
X111720381Y-119252905D02*
X112529905Y-119252905D01*
X112625143Y-119205286D01*
X112672762Y-119157667D01*
X112720381Y-119062429D01*
X112720381Y-118871952D01*
X112672762Y-118776714D01*
X112625143Y-118729095D01*
X112529905Y-118681476D01*
X111720381Y-118681476D01*
X112720381Y-117681476D02*
X112720381Y-118252905D01*
X112720381Y-117967191D02*
X111720381Y-117967191D01*
X111863238Y-118062429D01*
X111958476Y-118157667D01*
X112006095Y-118252905D01*
X118514762Y-118772666D02*
X118562381Y-118839333D01*
X118562381Y-118972666D01*
X118514762Y-119039333D01*
X118467143Y-119072666D01*
X118371905Y-119106000D01*
X118086190Y-119106000D01*
X117990952Y-119072666D01*
X117943333Y-119039333D01*
X117895714Y-118972666D01*
X117895714Y-118839333D01*
X117943333Y-118772666D01*
X118562381Y-118372666D02*
X118514762Y-118439333D01*
X118419524Y-118472666D01*
X117562381Y-118472666D01*
X118562381Y-118005999D02*
X118514762Y-118072666D01*
X118467143Y-118105999D01*
X118371905Y-118139333D01*
X118086190Y-118139333D01*
X117990952Y-118105999D01*
X117943333Y-118072666D01*
X117895714Y-118005999D01*
X117895714Y-117905999D01*
X117943333Y-117839333D01*
X117990952Y-117805999D01*
X118086190Y-117772666D01*
X118371905Y-117772666D01*
X118467143Y-117805999D01*
X118514762Y-117839333D01*
X118562381Y-117905999D01*
X118562381Y-118005999D01*
X118514762Y-117506000D02*
X118562381Y-117439333D01*
X118562381Y-117306000D01*
X118514762Y-117239333D01*
X118419524Y-117206000D01*
X118371905Y-117206000D01*
X118276667Y-117239333D01*
X118229048Y-117306000D01*
X118229048Y-117406000D01*
X118181429Y-117472666D01*
X118086190Y-117506000D01*
X118038571Y-117506000D01*
X117943333Y-117472666D01*
X117895714Y-117406000D01*
X117895714Y-117306000D01*
X117943333Y-117239333D01*
X118514762Y-116639333D02*
X118562381Y-116705999D01*
X118562381Y-116839333D01*
X118514762Y-116905999D01*
X118419524Y-116939333D01*
X118038571Y-116939333D01*
X117943333Y-116905999D01*
X117895714Y-116839333D01*
X117895714Y-116705999D01*
X117943333Y-116639333D01*
X118038571Y-116605999D01*
X118133810Y-116605999D01*
X118229048Y-116939333D01*
X118308381Y-107155332D02*
X118260762Y-107221999D01*
X118213143Y-107255332D01*
X118117905Y-107288666D01*
X117832190Y-107288666D01*
X117736952Y-107255332D01*
X117689333Y-107221999D01*
X117641714Y-107155332D01*
X117641714Y-107055332D01*
X117689333Y-106988666D01*
X117736952Y-106955332D01*
X117832190Y-106921999D01*
X118117905Y-106921999D01*
X118213143Y-106955332D01*
X118260762Y-106988666D01*
X118308381Y-107055332D01*
X118308381Y-107155332D01*
X117641714Y-106621999D02*
X118641714Y-106621999D01*
X117689333Y-106621999D02*
X117641714Y-106555333D01*
X117641714Y-106421999D01*
X117689333Y-106355333D01*
X117736952Y-106321999D01*
X117832190Y-106288666D01*
X118117905Y-106288666D01*
X118213143Y-106321999D01*
X118260762Y-106355333D01*
X118308381Y-106421999D01*
X118308381Y-106555333D01*
X118260762Y-106621999D01*
X118260762Y-105722000D02*
X118308381Y-105788666D01*
X118308381Y-105922000D01*
X118260762Y-105988666D01*
X118165524Y-106022000D01*
X117784571Y-106022000D01*
X117689333Y-105988666D01*
X117641714Y-105922000D01*
X117641714Y-105788666D01*
X117689333Y-105722000D01*
X117784571Y-105688666D01*
X117879810Y-105688666D01*
X117975048Y-106022000D01*
X117641714Y-105388666D02*
X118308381Y-105388666D01*
X117736952Y-105388666D02*
X117689333Y-105355333D01*
X117641714Y-105288666D01*
X117641714Y-105188666D01*
X117689333Y-105122000D01*
X117784571Y-105088666D01*
X118308381Y-105088666D01*
X128840762Y-113595665D02*
X128888381Y-113662332D01*
X128888381Y-113795665D01*
X128840762Y-113862332D01*
X128793143Y-113895665D01*
X128697905Y-113928999D01*
X128412190Y-113928999D01*
X128316952Y-113895665D01*
X128269333Y-113862332D01*
X128221714Y-113795665D01*
X128221714Y-113662332D01*
X128269333Y-113595665D01*
X128888381Y-113195665D02*
X128840762Y-113262332D01*
X128793143Y-113295665D01*
X128697905Y-113328999D01*
X128412190Y-113328999D01*
X128316952Y-113295665D01*
X128269333Y-113262332D01*
X128221714Y-113195665D01*
X128221714Y-113095665D01*
X128269333Y-113028999D01*
X128316952Y-112995665D01*
X128412190Y-112962332D01*
X128697905Y-112962332D01*
X128793143Y-112995665D01*
X128840762Y-113028999D01*
X128888381Y-113095665D01*
X128888381Y-113195665D01*
X128888381Y-112662332D02*
X128221714Y-112662332D01*
X128316952Y-112662332D02*
X128269333Y-112628999D01*
X128221714Y-112562332D01*
X128221714Y-112462332D01*
X128269333Y-112395666D01*
X128364571Y-112362332D01*
X128888381Y-112362332D01*
X128364571Y-112362332D02*
X128269333Y-112328999D01*
X128221714Y-112262332D01*
X128221714Y-112162332D01*
X128269333Y-112095666D01*
X128364571Y-112062332D01*
X128888381Y-112062332D01*
X128888381Y-111728999D02*
X128221714Y-111728999D01*
X128316952Y-111728999D02*
X128269333Y-111695666D01*
X128221714Y-111628999D01*
X128221714Y-111528999D01*
X128269333Y-111462333D01*
X128364571Y-111428999D01*
X128888381Y-111428999D01*
X128364571Y-111428999D02*
X128269333Y-111395666D01*
X128221714Y-111328999D01*
X128221714Y-111228999D01*
X128269333Y-111162333D01*
X128364571Y-111128999D01*
X128888381Y-111128999D01*
X128888381Y-110695666D02*
X128840762Y-110762333D01*
X128793143Y-110795666D01*
X128697905Y-110829000D01*
X128412190Y-110829000D01*
X128316952Y-110795666D01*
X128269333Y-110762333D01*
X128221714Y-110695666D01*
X128221714Y-110595666D01*
X128269333Y-110529000D01*
X128316952Y-110495666D01*
X128412190Y-110462333D01*
X128697905Y-110462333D01*
X128793143Y-110495666D01*
X128840762Y-110529000D01*
X128888381Y-110595666D01*
X128888381Y-110695666D01*
X128221714Y-110162333D02*
X128888381Y-110162333D01*
X128316952Y-110162333D02*
X128269333Y-110129000D01*
X128221714Y-110062333D01*
X128221714Y-109962333D01*
X128269333Y-109895667D01*
X128364571Y-109862333D01*
X128888381Y-109862333D01*
X123840762Y-112378999D02*
X123888381Y-112445666D01*
X123888381Y-112578999D01*
X123840762Y-112645666D01*
X123793143Y-112678999D01*
X123697905Y-112712333D01*
X123412190Y-112712333D01*
X123316952Y-112678999D01*
X123269333Y-112645666D01*
X123221714Y-112578999D01*
X123221714Y-112445666D01*
X123269333Y-112378999D01*
X123888381Y-111978999D02*
X123840762Y-112045666D01*
X123793143Y-112078999D01*
X123697905Y-112112333D01*
X123412190Y-112112333D01*
X123316952Y-112078999D01*
X123269333Y-112045666D01*
X123221714Y-111978999D01*
X123221714Y-111878999D01*
X123269333Y-111812333D01*
X123316952Y-111778999D01*
X123412190Y-111745666D01*
X123697905Y-111745666D01*
X123793143Y-111778999D01*
X123840762Y-111812333D01*
X123888381Y-111878999D01*
X123888381Y-111978999D01*
X123888381Y-111445666D02*
X123221714Y-111445666D01*
X122888381Y-111445666D02*
X122936000Y-111479000D01*
X122983619Y-111445666D01*
X122936000Y-111412333D01*
X122888381Y-111445666D01*
X122983619Y-111445666D01*
X123888381Y-111012333D02*
X123840762Y-111079000D01*
X123745524Y-111112333D01*
X122888381Y-111112333D01*
X111388381Y-114474238D02*
X111388381Y-114950429D01*
X111864571Y-114998048D01*
X111816952Y-114950429D01*
X111769333Y-114855191D01*
X111769333Y-114617095D01*
X111816952Y-114521857D01*
X111864571Y-114474238D01*
X111959810Y-114426619D01*
X112197905Y-114426619D01*
X112293143Y-114474238D01*
X112340762Y-114521857D01*
X112388381Y-114617095D01*
X112388381Y-114855191D01*
X112340762Y-114950429D01*
X112293143Y-114998048D01*
X111388381Y-114140905D02*
X112388381Y-113807572D01*
X111388381Y-113474238D01*
X112388381Y-111807571D02*
X111912190Y-112140905D01*
X112388381Y-112379000D02*
X111388381Y-112379000D01*
X111388381Y-111998047D01*
X111436000Y-111902809D01*
X111483619Y-111855190D01*
X111578857Y-111807571D01*
X111721714Y-111807571D01*
X111816952Y-111855190D01*
X111864571Y-111902809D01*
X111912190Y-111998047D01*
X111912190Y-112379000D01*
X112340762Y-110998047D02*
X112388381Y-111093285D01*
X112388381Y-111283762D01*
X112340762Y-111379000D01*
X112245524Y-111426619D01*
X111864571Y-111426619D01*
X111769333Y-111379000D01*
X111721714Y-111283762D01*
X111721714Y-111093285D01*
X111769333Y-110998047D01*
X111864571Y-110950428D01*
X111959810Y-110950428D01*
X112055048Y-111426619D01*
X112388381Y-110379000D02*
X112340762Y-110474238D01*
X112245524Y-110521857D01*
X111388381Y-110521857D01*
X112388381Y-109569475D02*
X111864571Y-109569475D01*
X111769333Y-109617094D01*
X111721714Y-109712332D01*
X111721714Y-109902809D01*
X111769333Y-109998047D01*
X112340762Y-109569475D02*
X112388381Y-109664713D01*
X112388381Y-109902809D01*
X112340762Y-109998047D01*
X112245524Y-110045666D01*
X112150286Y-110045666D01*
X112055048Y-109998047D01*
X112007429Y-109902809D01*
X112007429Y-109664713D01*
X111959810Y-109569475D01*
X111721714Y-109188523D02*
X112388381Y-108950428D01*
X111721714Y-108712332D02*
X112388381Y-108950428D01*
X112626476Y-109045666D01*
X112674095Y-109093285D01*
X112721714Y-109188523D01*
M02*
