M48
INCH,TZ
T1C0.031
T2C0.035
T3C0.039
T4C0.050
T5C0.060
T6C0.098
%
G90
G05
T1
X53400Y-41200
X54400Y-40200
X55400Y-41200
T2
X45644Y-41685
X45644Y-46409
X50565Y-41685
X50565Y-46409
X51353Y-44047
T3
X53201Y-43200
X54400Y-43200
X54400Y-47200
X55600Y-43200
X55600Y-47200
T4
X53201Y-47200
T5
X42550Y-42050
X42550Y-44050
X42550Y-46050
X58200Y-40600
X58200Y-42600
X58200Y-45000
X58200Y-47000
T6
X42000Y-40000
X42000Y-48200
X51600Y-48250
X51650Y-40100
T0
M30
